{
DisplayStrings = (
"\U00B7",
"\U00B6",
"\015",
" "
);
copyright = "Copyright 2010, 2012 Adobe Systems Incorporated. All Rights Reserved.";
customParameters = (
{
name = vendorID;
value = ADBE;
}
);
date = "2013-01-11 10:57:03 +0000";
designer = "Paul D. Hunt";
familyName = "Source Code Pro";
featurePrefixes = (
{
automatic = 1;
code = "languagesystem DFLT dflt;\012languagesystem grek dflt;\012languagesystem latn dflt;\012languagesystem latn ROM;\012languagesystem latn MOL;\012languagesystem latn CAT;\012";
name = Languagesystems;
}
);
features = (
{
automatic = 1;
code = "feature locl;\012feature frac;\012feature ordn;\012";
name = aalt;
},
{
automatic = 1;
code = "script latn;\012language ROM;\012sub Scedilla by Scommaaccent;\012sub scedilla by scommaaccent;\012sub Tcedilla by Tcommaaccent;\012sub tcedilla by tcommaaccent;\012language MOL;\012sub Scedilla by Scommaaccent;\012sub scedilla by scommaaccent;\012sub Tcedilla by Tcommaaccent;\012sub tcedilla by tcommaaccent;\012language CAT;\012sub  l' periodcentered' l by ldot;\012sub  L' periodcentered' L by Ldot;\012";
name = locl;
},
{
automatic = 1;
code = "lookup FRAC {\012\011sub slash by fraction;\012} FRAC;\012lookup UP {\012\011sub [zero one two three four five six seven eight nine] by [zero.numr one.numr two.numr three.numr four.numr five.numr six.numr seven.numr eight.numr nine.numr];\012} UP;\012lookup DOWN {\012\011sub fraction [zero.numr one.numr two.numr three.numr four.numr five.numr six.numr seven.numr eight.numr nine.numr]' by [zero.dnom one.dnom two.dnom three.dnom four.dnom five.dnom six.dnom seven.dnom eight.dnom nine.dnom];\012\011sub [zero.dnom one.dnom two.dnom three.dnom four.dnom five.dnom six.dnom seven.dnom eight.dnom nine.dnom] [zero.numr one.numr two.numr three.numr four.numr five.numr six.numr seven.numr eight.numr nine.numr]' by [zero.dnom one.dnom two.dnom three.dnom four.dnom five.dnom six.dnom seven.dnom eight.dnom nine.dnom];\012} DOWN;\012";
name = frac;
},
{
automatic = 1;

glyphs = (
{
glyphname = A;
layers = (
{
layerId = "071E7A8C-CF57-4473-AB35-23A61C6027DA";
name = Regular;
paths = (
{
closed = 1;
nodes = (
"397 267 LINE",
"366 367 LINE SMOOTH",
"343 440 OFFCURVE",
"322 512 OFFCURVE",
"301 588 CURVE",
"297 588 LINE",
"276 512 OFFCURVE",
"255 440 OFFCURVE",
"232 367 CURVE SMOOTH",
"201 267 LINE"
);
},
{
closed = 1;
nodes = (
"418 200 LINE",
"180 200 LINE",
"117 0 LINE",
"32 0 LINE",
"253 656 LINE",
"347 656 LINE",
"568 0 LINE",
"480 0 LINE"
);
}
);
width = 600;
}
);
unicode = 0041;
},
{
glyphname = Aacute;
layers = (
{
layerId = "071E7A8C-CF57-4473-AB35-23A61C6027DA";
name = Regular;
paths = (
{
closed = 1;
nodes = (
"397 267 LINE",
"366 367 LINE SMOOTH",
"343 440 OFFCURVE",
"322 512 OFFCURVE",
"301 588 CURVE",
"297 588 LINE",
"276 512 OFFCURVE",
"255 440 OFFCURVE",
"232 367 CURVE SMOOTH",
"201 267 LINE"
);
},
{
closed = 1;
nodes = (
"418 200 LINE",
"180 200 LINE",
"117 0 LINE",
"32 0 LINE",
"253 656 LINE",
"347 656 LINE",
"568 0 LINE",
"480 0 LINE"
);
},
{
closed = 1;
nodes = (
"318 706 LINE",
"249 706 LINE",
"337 818 LINE",
"431 818 LINE"
);
}
);
width = 600;
}
);
unicode = 00C1;
},
{
glyphname = Abreve;
layers = (
{
layerId = "071E7A8C-CF57-4473-AB35-23A61C6027DA";
name = Regular;
paths = (
{
closed = 1;
nodes = (
"397 267 LINE",
"366 367 LINE SMOOTH",
"343 440 OFFCURVE",
"322 512 OFFCURVE",
"301 588 CURVE",
"297 588 LINE",
"276 512 OFFCURVE",
"255 440 OFFCURVE",
"232 367 CURVE SMOOTH",
"201 267 LINE"
);
},
{
closed = 1;
nodes = (
"418 200 LINE",
"180 200 LINE",
"117 0 LINE",
"32 0 LINE",
"253 656 LINE",
"347 656 LINE",
"568 0 LINE",
"480 0 LINE"
);
},
{
closed = 1;
nodes = (
"260 708 OFFCURVE",
"231 722 OFFCURVE",
"211 742 CURVE SMOOTH",
"191 762 OFFCURVE",
"181 790 OFFCURVE",
"177 818 CURVE",
"227 818 LINE",
"234 786 OFFCURVE",
"255 755 OFFCURVE",
"300 755 CURVE SMOOTH",
"345 755 OFFCURVE",
"366 786 OFFCURVE",
"373 818 CURVE",
"423 818 LINE",
"419 790 OFFCURVE",
"409 762 OFFCURVE",
"389 742 CURVE SMOOTH",
"369 722 OFFCURVE",
"340 708 OFFCURVE",
"300 708 CURVE SMOOTH"
);
}
);
width = 600;
}
);
unicode = 0102;
},
{
glyphname = Abreveacute;
layers = (
{
layerId = "071E7A8C-CF57-4473-AB35-23A61C6027DA";
name = Regular;
paths = (
{
closed = 1;
nodes = (
"397 267 LINE",
"366 367 LINE SMOOTH",
"343 440 OFFCURVE",
"322 512 OFFCURVE",
"301 588 CURVE",
"297 588 LINE",
"276 512 OFFCURVE",
"255 440 OFFCURVE",
"232 367 CURVE SMOOTH",
"201 267 LINE"
);
},
{
closed = 1;
nodes = (
"418 200 LINE",
"180 200 LINE",
"117 0 LINE",
"32 0 LINE",
"253 656 LINE",
"347 656 LINE",
"568 0 LINE",
"480 0 LINE"
);
},
{
closed = 1;
nodes = (
"335 907 LINE",
"407 907 LINE",
"310 802 LINE",
"261 802 LINE"
);
},
{
closed = 1;
nodes = (
"261 708 OFFCURVE",
"233 721 OFFCURVE",
"213 741 CURVE SMOOTH",
"193 761 OFFCURVE",
"182 787 OFFCURVE",
"178 815 CURVE",
"223 815 LINE",
"231 780 OFFCURVE",
"252 751 OFFCURVE",
"300 751 CURVE SMOOTH",
"348 751 OFFCURVE",
"369 780 OFFCURVE",
"377 815 CURVE",
"422 815 LINE",
"418 787 OFFCURVE",
"407 761 OFFCURVE",
"387 741 CURVE SMOOTH",
"367 721 OFFCURVE",
"339 708 OFFCURVE",
"300 708 CURVE SMOOTH"
);
}
);
width = 600;
}
);
unicode = 1EAE;
},
{
glyphname = Abrevedotbelow;
layers = (
{
layerId = "071E7A8C-CF57-4473-AB35-23A61C6027DA";
name = Regular;
paths = (
{
closed = 1;
nodes = (
"397 267 LINE",
"366 367 LINE SMOOTH",
"343 440 OFFCURVE",
"322 512 OFFCURVE",
"301 588 CURVE",
"297 588 LINE",
"276 512 OFFCURVE",
"255 440 OFFCURVE",
"232 367 CURVE SMOOTH",
"201 267 LINE"
);
},
{
closed = 1;
nodes = (
"418 200 LINE",
"180 200 LINE",
"117 0 LINE",
"32 0 LINE",
"253 656 LINE",
"347 656 LINE",
"568 0 LINE",
"480 0 LINE"
);
},
{
closed = 1;
nodes = (
"260 708 OFFCURVE",
"231 722 OFFCURVE",
"211 742 CURVE SMOOTH",
"191 762 OFFCURVE",
"181 790 OFFCURVE",
"177 818 CURVE",
"227 818 LINE",
"234 786 OFFCURVE",
"255 755 OFFCURVE",
"300 755 CURVE SMOOTH",
"345 755 OFFCURVE",
"366 786 OFFCURVE",
"373 818 CURVE",
"423 818 LINE",
"419 790 OFFCURVE",
"409 762 OFFCURVE",
"389 742 CURVE SMOOTH",
"369 722 OFFCURVE",
"340 708 OFFCURVE",
"300 708 CURVE SMOOTH"
);
},
{
closed = 1;
nodes = (
"263 -226 OFFCURVE",
"234 -202 OFFCURVE",
"234 -163 CURVE SMOOTH",
"234 -124 OFFCURVE",
"263 -99 OFFCURVE",
"300 -99 CURVE SMOOTH",
"337 -99 OFFCURVE",
"366 -124 OFFCURVE",
"366 -163 CURVE SMOOTH",
"366 -202 OFFCURVE",
"337 -226 OFFCURVE",
"300 -226 CURVE SMOOTH"
);
}
);
width = 600;
}
);
unicode = 1EB6;
},
{
glyphname = Abrevegrave;
layers = (
{
layerId = "071E7A8C-CF57-4473-AB35-23A61C6027DA";
name = Regular;
paths = (
{
closed = 1;
nodes = (
"397 267 LINE",
"366 367 LINE SMOOTH",
"343 440 OFFCURVE",
"322 512 OFFCURVE",
"301 588 CURVE",
"297 588 LINE",
"276 512 OFFCURVE",
"255 440 OFFCURVE",
"232 367 CURVE SMOOTH",
"201 267 LINE"
);
},
{
closed = 1;
nodes = (
"418 200 LINE",
"180 200 LINE",
"117 0 LINE",
"32 0 LINE",
"253 656 LINE",
"347 656 LINE",
"568 0 LINE",
"480 0 LINE"
);
},
{
closed = 1;
nodes = (
"339 802 LINE",
"290 802 LINE",
"193 907 LINE",
"265 907 LINE"
);
},
{
closed = 1;
nodes = (
"261 708 OFFCURVE",
"233 721 OFFCURVE",
"213 741 CURVE SMOOTH",
"193 761 OFFCURVE",
"182 787 OFFCURVE",
"178 815 CURVE",
"223 815 LINE",
"231 780 OFFCURVE",
"252 751 OFFCURVE",
"300 751 CURVE SMOOTH",
"348 751 OFFCURVE",
"369 780 OFFCURVE",
"377 815 CURVE",
"422 815 LINE",
"418 787 OFFCURVE",
"407 761 OFFCURVE",
"387 741 CURVE SMOOTH",
"367 721 OFFCURVE",
"339 708 OFFCURVE",
"300 708 CURVE SMOOTH"
);
}
);
width = 600;
}
);
unicode = 1EB0;
},
{
glyphname = Abrevehookabove;
layers = (
{
layerId = "071E7A8C-CF57-4473-AB35-23A61C6027DA";
name = Regular;
paths = (
{
closed = 1;
nodes = (
"397 267 LINE",
"366 367 LINE SMOOTH",
"343 440 OFFCURVE",
"322 512 OFFCURVE",
"301 588 CURVE",
"297 588 LINE",
"276 512 OFFCURVE",
"255 440 OFFCURVE",
"232 367 CURVE SMOOTH",
"201 267 LINE"
);
},
{
closed = 1;
nodes = (
"418 200 LINE",
"180 200 LINE",
"117 0 LINE",
"32 0 LINE",
"253 656 LINE",
"347 656 LINE",
"568 0 LINE",
"480 0 LINE"
);
},
{
closed = 1;
nodes = (
"267 835 LINE",
"291 842 OFFCURVE",
"311 850 OFFCURVE",
"311 871 CURVE SMOOTH",
"311 898 OFFCURVE",
"290 907 OFFCURVE",
"241 910 CURVE",
"249 952 LINE",
"328 949 OFFCURVE",
"370 926 OFFCURVE",
"370 879 CURVE SMOOTH",
"370 854 OFFCURVE",
"358 836 OFFCURVE",
"342 824 CURVE SMOOTH",
"325 811 OFFCURVE",
"301 804 OFFCURVE",
"277 800 CURVE"
);
},
{
closed = 1;
nodes = (
"261 708 OFFCURVE",
"233 721 OFFCURVE",
"213 741 CURVE SMOOTH",
"193 761 OFFCURVE",
"182 787 OFFCURVE",
"178 815 CURVE",
"223 815 LINE",
"231 780 OFFCURVE",
"252 751 OFFCURVE",
"300 751 CURVE SMOOTH",
"348 751 OFFCURVE",
"369 780 OFFCURVE",
"377 815 CURVE",
"422 815 LINE",
"418 787 OFFCURVE",
"407 761 OFFCURVE",
"387 741 CURVE SMOOTH",
"367 721 OFFCURVE",
"339 708 OFFCURVE",
"300 708 CURVE SMOOTH"
);
}
);
width = 600;
}
);
unicode = 1EB2;
},
{
glyphname = Abrevetilde;
layers = (
{
layerId = "071E7A8C-CF57-4473-AB35-23A61C6027DA";
name = Regular;
paths = (
{
closed = 1;
nodes = (
"397 267 LINE",
"366 367 LINE SMOOTH",
"343 440 OFFCURVE",
"322 512 OFFCURVE",
"301 588 CURVE",
"297 588 LINE",
"276 512 OFFCURVE",
"255 440 OFFCURVE",
"232 367 CURVE SMOOTH",
"201 267 LINE"
);
},
{
closed = 1;
nodes = (
"418 200 LINE",
"180 200 LINE",
"117 0 LINE",
"32 0 LINE",
"253 656 LINE",
"347 656 LINE",
"568 0 LINE",
"480 0 LINE"
);
},
{
closed = 1;
nodes = (
"261 708 OFFCURVE",
"233 721 OFFCURVE",
"213 741 CURVE SMOOTH",
"193 761 OFFCURVE",
"182 787 OFFCURVE",
"178 815 CURVE",
"223 815 LINE",
"231 780 OFFCURVE",
"252 751 OFFCURVE",
"300 751 CURVE SMOOTH",
"348 751 OFFCURVE",
"369 780 OFFCURVE",
"377 815 CURVE",
"422 815 LINE",
"418 787 OFFCURVE",
"407 761 OFFCURVE",
"387 741 CURVE SMOOTH",
"367 721 OFFCURVE",
"339 708 OFFCURVE",
"300 708 CURVE SMOOTH"
);
},
{
closed = 1;
nodes = (
"167 846 LINE",
"171 899 OFFCURVE",
"199 939 OFFCURVE",
"246 939 CURVE SMOOTH",
"269 939 OFFCURVE",
"287 928 OFFCURVE",
"303 917 CURVE",
"319 905 OFFCURVE",
"333 894 OFFCURVE",
"349 894 CURVE SMOOTH",
"369 894 OFFCURVE",
"384 911 OFFCURVE",
"389 939 CURVE",
"431 939 LINE",
"426 887 OFFCURVE",
"399 846 OFFCURVE",
"352 846 CURVE SMOOTH",
"328 846 OFFCURVE",
"311 857 OFFCURVE",
"295 869 CURVE",
"279 880 OFFCURVE",
"265 891 OFFCURVE",
"249 891 CURVE SMOOTH",
"229 891 OFFCURVE",
"213 874 OFFCURVE",
"209 846 CURVE"
);
}
);
width = 600;
}
);
unicode = 1EB4;
},
{
glyphname = Acaron;
layers = (
{
layerId = "071E7A8C-CF57-4473-AB35-23A61C6027DA";
name = Regular;
paths = (
{
closed = 1;
nodes = (
"397 267 LINE",
"366 367 LINE SMOOTH",
"343 440 OFFCURVE",
"322 512 OFFCURVE",
"301 588 CURVE",
"297 588 LINE",
"276 512 OFFCURVE",
"255 440 OFFCURVE",
"232 367 CURVE SMOOTH",
"201 267 LINE"
);
},
{
closed = 1;
nodes = (
"418 200 LINE",
"180 200 LINE",
"117 0 LINE",
"32 0 LINE",
"253 656 LINE",
"347 656 LINE",
"568 0 LINE",
"480 0 LINE"
);
},
{
closed = 1;
nodes = (
"436 818 LINE",
"340 706 LINE",
"260 706 LINE",
"164 818 LINE",
"231 818 LINE",
"298 750 LINE",
"302 750 LINE",
"369 818 LINE"
);
}
);
width = 600;
}
);
unicode = 01CD;
},
{
glyphname = Acircumflex;
layers = (
{
layerId = "071E7A8C-CF57-4473-AB35-23A61C6027DA";
name = Regular;
paths = (
{
closed = 1;
nodes = (
"397 267 LINE",
"366 367 LINE SMOOTH",
"343 440 OFFCURVE",
"322 512 OFFCURVE",
"301 588 CURVE",
"297 588 LINE",
"276 512 OFFCURVE",
"255 440 OFFCURVE",
"232 367 CURVE SMOOTH",
"201 267 LINE"
);
},
{
closed = 1;
nodes = (
"418 200 LINE",
"180 200 LINE",
"117 0 LINE",
"32 0 LINE",
"253 656 LINE",
"347 656 LINE",
"568 0 LINE",
"480 0 LINE"
);
},
{
closed = 1;
nodes = (
"164 706 LINE",
"260 818 LINE",
"340 818 LINE",
"436 706 LINE",
"369 706 LINE",
"302 774 LINE",
"298 774 LINE",
"231 706 LINE"
);
}
);
width = 600;
}
);
unicode = 00C2;
},
{
glyphname = Acircumflexacute;
layers = (
{
layerId = "071E7A8C-CF57-4473-AB35-23A61C6027DA";
name = Regular;
paths = (
{
closed = 1;
nodes = (
"397 267 LINE",
"366 367 LINE SMOOTH",
"343 440 OFFCURVE",
"322 512 OFFCURVE",
"301 588 CURVE",
"297 588 LINE",
"276 512 OFFCURVE",
"255 440 OFFCURVE",
"232 367 CURVE SMOOTH",
"201 267 LINE"
);
},
{
closed = 1;
nodes = (
"418 200 LINE",
"180 200 LINE",
"117 0 LINE",
"32 0 LINE",
"253 656 LINE",
"347 656 LINE",
"568 0 LINE",
"480 0 LINE"
);
},
{
closed = 1;
nodes = (
"462 881 LINE",
"534 881 LINE",
"443 770 LINE",
"391 770 LINE"
);
},
{
closed = 1;
nodes = (
"264 812 LINE",
"336 812 LINE",
"428 706 LINE",
"365 706 LINE",
"302 768 LINE",
"298 768 LINE",
"235 706 LINE",
"172 706 LINE"
);
}
);
width = 600;
}
);
unicode = 1EA4;
},
{
glyphname = Acircumflexdotbelow;
layers = (
{
layerId = "071E7A8C-CF57-4473-AB35-23A61C6027DA";
name = Regular;
paths = (
{
closed = 1;
nodes = (
"397 267 LINE",
"366 367 LINE SMOOTH",
"343 440 OFFCURVE",
"322 512 OFFCURVE",
"301 588 CURVE",
"297 588 LINE",
"276 512 OFFCURVE",
"255 440 OFFCURVE",
"232 367 CURVE SMOOTH",
"201 267 LINE"
);
},
{
closed = 1;
nodes = (
"418 200 LINE",
"180 200 LINE",
"117 0 LINE",
"32 0 LINE",
"253 656 LINE",
"347 656 LINE",
"568 0 LINE",
"480 0 LINE"
);
},
{
closed = 1;
nodes = (
"164 706 LINE",
"260 818 LINE",
"340 818 LINE",
"436 706 LINE",
"369 706 LINE",
"302 774 LINE",
"298 774 LINE",
"231 706 LINE"
);
},
{
closed = 1;
nodes = (
"263 -226 OFFCURVE",
"234 -202 OFFCURVE",
"234 -163 CURVE SMOOTH",
"234 -124 OFFCURVE",
"263 -99 OFFCURVE",
"300 -99 CURVE SMOOTH",
"337 -99 OFFCURVE",
"366 -124 OFFCURVE",
"366 -163 CURVE SMOOTH",
"366 -202 OFFCURVE",
"337 -226 OFFCURVE",
"300 -226 CURVE SMOOTH"
);
}
);
width = 600;
}
);
unicode = 1EAC;
},
{
glyphname = Acircumflexgrave;
layers = (
{
layerId = "071E7A8C-CF57-4473-AB35-23A61C6027DA";
name = Regular;
paths = (
{
closed = 1;
nodes = (
"397 267 LINE",
"366 367 LINE SMOOTH",
"343 440 OFFCURVE",
"322 512 OFFCURVE",
"301 588 CURVE",
"297 588 LINE",
"276 512 OFFCURVE",
"255 440 OFFCURVE",
"232 367 CURVE SMOOTH",
"201 267 LINE"
);
},
{
closed = 1;
nodes = (
"418 200 LINE",
"180 200 LINE",
"117 0 LINE",
"32 0 LINE",
"253 656 LINE",
"347 656 LINE",
"568 0 LINE",
"480 0 LINE"
);
},
{
closed = 1;
nodes = (
"484 770 LINE",
"432 770 LINE",
"341 881 LINE",
"413 881 LINE"
);
},
{
closed = 1;
nodes = (
"264 812 LINE",
"336 812 LINE",
"428 706 LINE",
"365 706 LINE",
"302 768 LINE",
"298 768 LINE",
"235 706 LINE",
"172 706 LINE"
);
}
);
width = 600;
}
);
unicode = 1EA6;
},
{
glyphname = Acircumflexhookabove;
layers = (
{
layerId = "071E7A8C-CF57-4473-AB35-23A61C6027DA";
name = Regular;
paths = (
{
closed = 1;
nodes = (
"397 267 LINE",
"366 367 LINE SMOOTH",
"343 440 OFFCURVE",
"322 512 OFFCURVE",
"301 588 CURVE",
"297 588 LINE",
"276 512 OFFCURVE",
"255 440 OFFCURVE",
"232 367 CURVE SMOOTH",
"201 267 LINE"
);
},
{
closed = 1;
nodes = (
"418 200 LINE",
"180 200 LINE",
"117 0 LINE",
"32 0 LINE",
"253 656 LINE",
"347 656 LINE",
"568 0 LINE",
"480 0 LINE"
);
},
{
closed = 1;
nodes = (
"404 789 LINE",
"429 796 OFFCURVE",
"449 804 OFFCURVE",
"449 825 CURVE SMOOTH",
"449 852 OFFCURVE",
"429 861 OFFCURVE",
"378 864 CURVE",
"387 906 LINE",
"466 903 OFFCURVE",
"507 880 OFFCURVE",
"507 833 CURVE SMOOTH",
"507 782 OFFCURVE",
"463 762 OFFCURVE",
"415 754 CURVE"
);
},
{
closed = 1;
nodes = (
"264 812 LINE",
"336 812 LINE",
"428 706 LINE",
"365 706 LINE",
"302 768 LINE",
"298 768 LINE",
"235 706 LINE",
"172 706 LINE"
);
}
);
width = 600;
}
);
unicode = 1EA8;
},
{
glyphname = Acircumflextilde;
layers = (
{
layerId = "071E7A8C-CF57-4473-AB35-23A61C6027DA";
name = Regular;
paths = (
{
closed = 1;
nodes = (
"397 267 LINE",
"366 367 LINE SMOOTH",
"343 440 OFFCURVE",
"322 512 OFFCURVE",
"301 588 CURVE",
"297 588 LINE",
"276 512 OFFCURVE",
"255 440 OFFCURVE",
"232 367 CURVE SMOOTH",
"201 267 LINE"
);
},
{
closed = 1;
nodes = (
"418 200 LINE",
"180 200 LINE",
"117 0 LINE",
"32 0 LINE",
"253 656 LINE",
"347 656 LINE",
"568 0 LINE",
"480 0 LINE"
);
},
{
closed = 1;
nodes = (
"264 812 LINE",
"336 812 LINE",
"428 706 LINE",
"365 706 LINE",
"302 768 LINE",
"298 768 LINE",
"235 706 LINE",
"172 706 LINE"
);
},
{
closed = 1;
nodes = (
"168 848 LINE",
"173 900 OFFCURVE",
"199 938 OFFCURVE",
"246 938 CURVE SMOOTH",
"271 938 OFFCURVE",
"290 928 OFFCURVE",
"306 917 CURVE SMOOTH",
"322 906 OFFCURVE",
"335 896 OFFCURVE",
"351 896 CURVE SMOOTH",
"371 896 OFFCURVE",
"386 910 OFFCURVE",
"390 938 CURVE",
"432 938 LINE",
"427 885 OFFCURVE",
"401 848 OFFCURVE",
"354 848 CURVE SMOOTH",
"329 848 OFFCURVE",
"310 858 OFFCURVE",
"294 869 CURVE SMOOTH",
"278 880 OFFCURVE",
"265 890 OFFCURVE",
"249 890 CURVE SMOOTH",
"229 890 OFFCURVE",
"214 876 OFFCURVE",
"210 848 CURVE"
);
}
);
width = 600;
}
);
unicode = 1EAA;
},
{
glyphname = Adieresis;
layers = (
{
layerId = "071E7A8C-CF57-4473-AB35-23A61C6027DA";
name = Regular;
paths = (
{
closed = 1;
nodes = (
"397 267 LINE",
"366 367 LINE SMOOTH",
"343 440 OFFCURVE",
"322 512 OFFCURVE",
"301 588 CURVE",
"297 588 LINE",
"276 512 OFFCURVE",
"255 440 OFFCURVE",
"232 367 CURVE SMOOTH",
"201 267 LINE"
);
},
{
closed = 1;
nodes = (
"418 200 LINE",
"180 200 LINE",
"117 0 LINE",
"32 0 LINE",
"253 656 LINE",
"347 656 LINE",
"568 0 LINE",
"480 0 LINE"
);
},
{
closed = 1;
nodes = (
"185 715 OFFCURVE",
"165 736 OFFCURVE",
"165 764 CURVE SMOOTH",
"165 793 OFFCURVE",
"185 813 OFFCURVE",
"214 813 CURVE SMOOTH",
"242 813 OFFCURVE",
"263 793 OFFCURVE",
"263 764 CURVE SMOOTH",
"263 736 OFFCURVE",
"242 715 OFFCURVE",
"214 715 CURVE SMOOTH"
);
},
{
closed = 1;
nodes = (
"358 715 OFFCURVE",
"337 736 OFFCURVE",
"337 764 CURVE SMOOTH",
"337 793 OFFCURVE",
"358 813 OFFCURVE",
"386 813 CURVE SMOOTH",
"415 813 OFFCURVE",
"435 793 OFFCURVE",
"435 764 CURVE SMOOTH",
"435 736 OFFCURVE",
"415 715 OFFCURVE",
"386 715 CURVE SMOOTH"
);
}
);
width = 600;
}
);
unicode = 00C4;
},
{
glyphname = Adotbelow;
layers = (
{
layerId = "071E7A8C-CF57-4473-AB35-23A61C6027DA";
name = Regular;
paths = (
{
closed = 1;
nodes = (
"397 267 LINE",
"366 367 LINE SMOOTH",
"343 440 OFFCURVE",
"322 512 OFFCURVE",
"301 588 CURVE",
"297 588 LINE",
"276 512 OFFCURVE",
"255 440 OFFCURVE",
"232 367 CURVE SMOOTH",
"201 267 LINE"
);
},
{
closed = 1;
nodes = (
"418 200 LINE",
"180 200 LINE",
"117 0 LINE",
"32 0 LINE",
"253 656 LINE",
"347 656 LINE",
"568 0 LINE",
"480 0 LINE"
);
},
{
closed = 1;
nodes = (
"263 -226 OFFCURVE",
"234 -202 OFFCURVE",
"234 -163 CURVE SMOOTH",
"234 -124 OFFCURVE",
"263 -99 OFFCURVE",
"300 -99 CURVE SMOOTH",
"337 -99 OFFCURVE",
"366 -124 OFFCURVE",
"366 -163 CURVE SMOOTH",
"366 -202 OFFCURVE",
"337 -226 OFFCURVE",
"300 -226 CURVE SMOOTH"
);
}
);
width = 600;
}
);
unicode = 1EA0;
},
{
glyphname = Agrave;
layers = (
{
layerId = "071E7A8C-CF57-4473-AB35-23A61C6027DA";
name = Regular;
paths = (
{
closed = 1;
nodes = (
"397 267 LINE",
"366 367 LINE SMOOTH",
"343 440 OFFCURVE",
"322 512 OFFCURVE",
"301 588 CURVE",
"297 588 LINE",
"276 512 OFFCURVE",
"255 440 OFFCURVE",
"232 367 CURVE SMOOTH",
"201 267 LINE"
);
},
{
closed = 1;
nodes = (
"418 200 LINE",
"180 200 LINE",
"117 0 LINE",
"32 0 LINE",
"253 656 LINE",
"347 656 LINE",
"568 0 LINE",
"480 0 LINE"
);
},
{
closed = 1;
nodes = (
"169 818 LINE",
"263 818 LINE",
"351 706 LINE",
"282 706 LINE"
);
}
);
width = 600;
}
);
unicode = 00C0;
},
{
glyphname = Ahookabove;
layers = (
{
layerId = "071E7A8C-CF57-4473-AB35-23A61C6027DA";
name = Regular;
paths = (
{
closed = 1;
nodes = (
"397 267 LINE",
"366 367 LINE SMOOTH",
"343 440 OFFCURVE",
"322 512 OFFCURVE",
"301 588 CURVE",
"297 588 LINE",
"276 512 OFFCURVE",
"255 440 OFFCURVE",
"232 367 CURVE SMOOTH",
"201 267 LINE"
);
},
{
closed = 1;
nodes = (
"418 200 LINE",
"180 200 LINE",
"117 0 LINE",
"32 0 LINE",
"253 656 LINE",
"347 656 LINE",
"568 0 LINE",
"480 0 LINE"
);
},
{
closed = 1;
nodes = (
"263 736 LINE",
"295 745 OFFCURVE",
"319 757 OFFCURVE",
"319 782 CURVE SMOOTH",
"319 808 OFFCURVE",
"291 822 OFFCURVE",
"236 824 CURVE",
"245 872 LINE",
"333 869 OFFCURVE",
"383 842 OFFCURVE",
"383 791 CURVE SMOOTH",
"383 762 OFFCURVE",
"370 742 OFFCURVE",
"350 727 CURVE SMOOTH",
"329 711 OFFCURVE",
"301 703 OFFCURVE",
"272 698 CURVE"
);
}
);
width = 600;
}
);
unicode = 1EA2;
},
{
glyphname = Amacron;
layers = (
{
layerId = "071E7A8C-CF57-4473-AB35-23A61C6027DA";
name = Regular;
paths = (
{
closed = 1;
nodes = (
"397 267 LINE",
"366 367 LINE SMOOTH",
"343 440 OFFCURVE",
"322 512 OFFCURVE",
"301 588 CURVE",
"297 588 LINE",
"276 512 OFFCURVE",
"255 440 OFFCURVE",
"232 367 CURVE SMOOTH",
"201 267 LINE"
);
},
{
closed = 1;
nodes = (
"418 200 LINE",
"180 200 LINE",
"117 0 LINE",
"32 0 LINE",
"253 656 LINE",
"347 656 LINE",
"568 0 LINE",
"480 0 LINE"
);
},
{
closed = 1;
nodes = (
"176 786 LINE",
"424 786 LINE",
"424 729 LINE",
"176 729 LINE"
);
}
);
width = 600;
}
);
unicode = 0100;
},
{
glyphname = Aogonek;
layers = (
{
layerId = "071E7A8C-CF57-4473-AB35-23A61C6027DA";
name = Regular;
paths = (
{
closed = 1;
nodes = (
"397 267 LINE",
"366 367 LINE SMOOTH",
"343 440 OFFCURVE",
"322 512 OFFCURVE",
"301 588 CURVE",
"297 588 LINE",
"276 512 OFFCURVE",
"255 440 OFFCURVE",
"232 367 CURVE SMOOTH",
"201 267 LINE"
);
},
{
closed = 1;
nodes = (
"599 -184 LINE",
"580 -199 OFFCURVE",
"546 -212 OFFCURVE",
"519 -212 CURVE SMOOTH",
"466 -212 OFFCURVE",
"424 -182 OFFCURVE",
"424 -125 CURVE SMOOTH",
"424 -98 OFFCURVE",
"435 -72 OFFCURVE",
"449 -51 CURVE SMOOTH",
"463 -30 OFFCURVE",
"482 -12 OFFCURVE",
"499 0 CURVE",
"480 0 LINE",
"418 200 LINE",
"180 200 LINE",
"117 0 LINE",
"32 0 LINE",
"253 656 LINE",
"347 656 LINE",
"568 0 LINE",
"521 -19 OFFCURVE",
"488 -64 OFFCURVE",
"488 -107 CURVE SMOOTH",
"488 -138 OFFCURVE",
"511 -153 OFFCURVE",
"534 -153 CURVE SMOOTH",
"549 -153 OFFCURVE",
"563 -148 OFFCURVE",
"576 -139 CURVE"
);
}
);
width = 600;
}
);
unicode = 0104;
},
{
glyphname = Aring;
layers = (
{
layerId = "071E7A8C-CF57-4473-AB35-23A61C6027DA";
name = Regular;
paths = (
{
closed = 1;
nodes = (
"397 267 LINE",
"366 367 LINE SMOOTH",
"343 440 OFFCURVE",
"322 512 OFFCURVE",
"301 588 CURVE",
"297 588 LINE",
"276 512 OFFCURVE",
"255 440 OFFCURVE",
"232 367 CURVE SMOOTH",
"201 267 LINE"
);
},
{
closed = 1;
nodes = (
"418 200 LINE",
"180 200 LINE",
"117 0 LINE",
"32 0 LINE",
"253 656 LINE",
"347 656 LINE",
"568 0 LINE",
"480 0 LINE"
);
},
{
closed = 1;
nodes = (
"245 699 OFFCURVE",
"207 732 OFFCURVE",
"207 787 CURVE SMOOTH",
"207 840 OFFCURVE",
"245 875 OFFCURVE",
"300 875 CURVE SMOOTH",
"353 875 OFFCURVE",
"393 840 OFFCURVE",
"393 787 CURVE SMOOTH",
"393 732 OFFCURVE",
"353 699 OFFCURVE",
"300 699 CURVE SMOOTH"
);
},
{
closed = 1;
nodes = (
"325 735 OFFCURVE",
"347 754 OFFCURVE",
"347 787 CURVE SMOOTH",
"347 818 OFFCURVE",
"325 838 OFFCURVE",
"300 838 CURVE SMOOTH",
"273 838 OFFCURVE",
"252 818 OFFCURVE",
"252 787 CURVE SMOOTH",
"252 754 OFFCURVE",
"273 735 OFFCURVE",
"300 735 CURVE SMOOTH"
);
}
);
width = 600;
}
);
unicode = 00C5;
},
{
glyphname = Atilde;
layers = (
{
layerId = "071E7A8C-CF57-4473-AB35-23A61C6027DA";
name = Regular;
paths = (
{
closed = 1;
nodes = (
"397 267 LINE",
"366 367 LINE SMOOTH",
"343 440 OFFCURVE",
"322 512 OFFCURVE",
"301 588 CURVE",
"297 588 LINE",
"276 512 OFFCURVE",
"255 440 OFFCURVE",
"232 367 CURVE SMOOTH",
"201 267 LINE"
);
},
{
closed = 1;
nodes = (
"418 200 LINE",
"180 200 LINE",
"117 0 LINE",
"32 0 LINE",
"253 656 LINE",
"347 656 LINE",
"568 0 LINE",
"480 0 LINE"
);
},
{
closed = 1;
nodes = (
"333 711 OFFCURVE",
"313 724 OFFCURVE",
"295 737 CURVE SMOOTH",
"277 750 OFFCURVE",
"260 763 OFFCURVE",
"241 763 CURVE SMOOTH",
"222 763 OFFCURVE",
"206 746 OFFCURVE",
"201 711 CURVE",
"155 711 LINE",
"162 774 OFFCURVE",
"192 819 OFFCURVE",
"240 819 CURVE SMOOTH",
"267 819 OFFCURVE",
"288 806 OFFCURVE",
"306 793 CURVE SMOOTH",
"324 780 OFFCURVE",
"340 767 OFFCURVE",
"359 767 CURVE SMOOTH",
"378 767 OFFCURVE",
"394 786 OFFCURVE",
"399 819 CURVE",
"445 819 LINE",
"438 758 OFFCURVE",
"408 711 OFFCURVE",
"360 711 CURVE SMOOTH"
);
}
);
width = 600;
}
);
unicode = 00C3;
},
{
glyphname = AE;
layers = (
{
layerId = "071E7A8C-CF57-4473-AB35-23A61C6027DA";
name = Regular;
paths = (
{
closed = 1;
nodes = (
"317 258 LINE",
"317 590 LINE",
"314 590 LINE",
"301 554 OFFCURVE",
"287 519 OFFCURVE",
"273 484 CURVE SMOOTH",
"258 449 OFFCURVE",
"244 413 OFFCURVE",
"231 377 CURVE SMOOTH",
"185 258 LINE"
);
},
{
closed = 1;
nodes = (
"591 71 LINE",
"591 0 LINE",
"317 0 LINE",
"317 191 LINE",
"159 191 LINE",
"86 0 LINE",
"-1 0 LINE",
"259 656 LINE",
"582 656 LINE",
"582 586 LINE",
"393 586 LINE",
"393 381 LINE",
"540 381 LINE",
"540 310 LINE",
"393 310 LINE",
"393 71 LINE"
);
}
);
width = 600;
}
);
unicode = 00C6;
},
{
glyphname = B;
layers = (
{
layerId = "071E7A8C-CF57-4473-AB35-23A61C6027DA";
name = Regular;
paths = (
{
closed = 1;
nodes = (
"103 656 LINE",
"283 656 LINE SMOOTH",
"350 656 OFFCURVE",
"406 644 OFFCURVE",
"446 619 CURVE SMOOTH",
"485 594 OFFCURVE",
"508 553 OFFCURVE",
"508 496 CURVE SMOOTH",
"508 431 OFFCURVE",
"470 373 OFFCURVE",
"393 353 CURVE",
"393 349 LINE",
"489 334 OFFCURVE",
"545 283 OFFCURVE",
"545 192 CURVE SMOOTH",
"545 128 OFFCURVE",
"520 80 OFFCURVE",
"477 48 CURVE SMOOTH",
"433 16 OFFCURVE",
"371 0 OFFCURVE",
"298 0 CURVE SMOOTH",
"103 0 LINE"
);
},
{
closed = 1;
nodes = (
"269 376 LINE SMOOTH",
"381 376 OFFCURVE",
"426 416 OFFCURVE",
"426 489 CURVE SMOOTH",
"426 561 OFFCURVE",
"374 590 OFFCURVE",
"273 590 CURVE SMOOTH",
"187 590 LINE",
"187 376 LINE"
);
},
{
closed = 1;
nodes = (
"286 66 LINE SMOOTH",
"399 66 OFFCURVE",
"463 107 OFFCURVE",
"463 196 CURVE SMOOTH",
"463 277 OFFCURVE",
"402 314 OFFCURVE",
"286 314 CURVE SMOOTH",
"187 314 LINE",
"187 66 LINE"
);
}
);
width = 600;
}
);
unicode = 0042;
},
{
glyphname = Bstroke;
layers = (
{
layerId = "071E7A8C-CF57-4473-AB35-23A61C6027DA";
name = Regular;
paths = (
{
closed = 1;
nodes = (
"294 63 LINE SMOOTH",
"407 63 OFFCURVE",
"473 107 OFFCURVE",
"473 200 CURVE SMOOTH",
"473 287 OFFCURVE",
"410 325 OFFCURVE",
"294 325 CURVE SMOOTH",
"187 325 LINE",
"187 224 LINE",
"330 224 LINE",
"330 177 LINE",
"187 177 LINE",
"187 63 LINE"
);
},
{
closed = 1;
nodes = (
"187 380 LINE",
"277 380 LINE SMOOTH",
"389 380 OFFCURVE",
"435 417 OFFCURVE",
"435 492 CURVE SMOOTH",
"435 564 OFFCURVE",
"382 594 OFFCURVE",
"281 594 CURVE SMOOTH",
"187 594 LINE"
);
},
{
closed = 1;
nodes = (
"401 356 LINE",
"497 341 OFFCURVE",
"553 288 OFFCURVE",
"553 196 CURVE SMOOTH",
"553 129 OFFCURVE",
"528 81 OFFCURVE",
"485 49 CURVE SMOOTH",
"441 16 OFFCURVE",
"379 0 OFFCURVE",
"306 0 CURVE SMOOTH",
"104 0 LINE",
"104 177 LINE",
"27 177 LINE",
"27 219 LINE",
"104 224 LINE",
"104 656 LINE",
"291 656 LINE SMOOTH",
"358 656 OFFCURVE",
"414 644 OFFCURVE",
"454 619 CURVE SMOOTH",
"493 594 OFFCURVE",
"516 554 OFFCURVE",
"516 498 CURVE SMOOTH",
"516 434 OFFCURVE",
"480 380 OFFCURVE",
"401 360 CURVE"
);
}
);
width = 600;
}
);
unicode = 0243;
},
{
glyphname = C;
layers = (
{
layerId = "071E7A8C-CF57-4473-AB35-23A61C6027DA";
name = Regular;
paths = (
{
closed = 1;
nodes = (
"66 433 OFFCURVE",
"96 518 OFFCURVE",
"148 577 CURVE SMOOTH",
"200 636 OFFCURVE",
"274 668 OFFCURVE",
"359 668 CURVE SMOOTH",
"439 668 OFFCURVE",
"499 631 OFFCURVE",
"538 588 CURVE",
"491 535 LINE",
"456 571 OFFCURVE",
"415 595 OFFCURVE",
"359 595 CURVE SMOOTH",
"296 595 OFFCURVE",
"244 570 OFFCURVE",
"208 524 CURVE SMOOTH",
"172 478 OFFCURVE",
"152 411 OFFCURVE",
"152 330 CURVE SMOOTH",
"152 247 OFFCURVE",
"172 181 OFFCURVE",
"208 134 CURVE SMOOTH",
"244 87 OFFCURVE",
"296 61 OFFCURVE",
"359 61 CURVE SMOOTH",
"419 61 OFFCURVE",
"463 87 OFFCURVE",
"506 134 CURVE",
"554 83 LINE",
"502 23 OFFCURVE",
"438 -12 OFFCURVE",
"354 -12 CURVE SMOOTH",
"271 -12 OFFCURVE",
"200 20 OFFCURVE",
"149 78 CURVE SMOOTH",
"97 136 OFFCURVE",
"66 221 OFFCURVE",
"66 328 CURVE SMOOTH"
);
}
);
width = 600;
}
);
unicode = 0043;
},
{
glyphname = Cacute;
layers = (
{
layerId = "071E7A8C-CF57-4473-AB35-23A61C6027DA";
name = Regular;
paths = (
{
closed = 1;
nodes = (
"66 433 OFFCURVE",
"96 518 OFFCURVE",
"148 577 CURVE SMOOTH",
"200 636 OFFCURVE",
"274 668 OFFCURVE",
"359 668 CURVE SMOOTH",
"439 668 OFFCURVE",
"499 631 OFFCURVE",
"538 588 CURVE",
"491 535 LINE",
"456 571 OFFCURVE",
"415 595 OFFCURVE",
"359 595 CURVE SMOOTH",
"296 595 OFFCURVE",
"244 570 OFFCURVE",
"208 524 CURVE SMOOTH",
"172 478 OFFCURVE",
"152 411 OFFCURVE",
"152 330 CURVE SMOOTH",
"152 247 OFFCURVE",
"172 181 OFFCURVE",
"208 134 CURVE SMOOTH",
"244 87 OFFCURVE",
"296 61 OFFCURVE",
"359 61 CURVE SMOOTH",
"419 61 OFFCURVE",
"463 87 OFFCURVE",
"506 134 CURVE",
"554 83 LINE",
"502 23 OFFCURVE",
"438 -12 OFFCURVE",
"354 -12 CURVE SMOOTH",
"271 -12 OFFCURVE",
"200 20 OFFCURVE",
"149 78 CURVE SMOOTH",
"97 136 OFFCURVE",
"66 221 OFFCURVE",
"66 328 CURVE SMOOTH"
);
},
{
closed = 1;
nodes = (
"365 706 LINE",
"296 706 LINE",
"384 818 LINE",
"478 818 LINE"
);
}
);
width = 600;
}
);
unicode = 0106;
},
{
glyphname = Ccaron;
layers = (
{
layerId = "071E7A8C-CF57-4473-AB35-23A61C6027DA";
name = Regular;
paths = (
{
closed = 1;
nodes = (
"66 433 OFFCURVE",
"96 518 OFFCURVE",
"148 577 CURVE SMOOTH",
"200 636 OFFCURVE",
"274 668 OFFCURVE",
"359 668 CURVE SMOOTH",
"439 668 OFFCURVE",
"499 631 OFFCURVE",
"538 588 CURVE",
"491 535 LINE",
"456 571 OFFCURVE",
"415 595 OFFCURVE",
"359 595 CURVE SMOOTH",
"296 595 OFFCURVE",
"244 570 OFFCURVE",
"208 524 CURVE SMOOTH",
"172 478 OFFCURVE",
"152 411 OFFCURVE",
"152 330 CURVE SMOOTH",
"152 247 OFFCURVE",
"172 181 OFFCURVE",
"208 134 CURVE SMOOTH",
"244 87 OFFCURVE",
"296 61 OFFCURVE",
"359 61 CURVE SMOOTH",
"419 61 OFFCURVE",
"463 87 OFFCURVE",
"506 134 CURVE",
"554 83 LINE",
"502 23 OFFCURVE",
"438 -12 OFFCURVE",
"354 -12 CURVE SMOOTH",
"271 -12 OFFCURVE",
"200 20 OFFCURVE",
"149 78 CURVE SMOOTH",
"97 136 OFFCURVE",
"66 221 OFFCURVE",
"66 328 CURVE SMOOTH"
);
},
{
closed = 1;
nodes = (
"483 818 LINE",
"387 706 LINE",
"307 706 LINE",
"211 818 LINE",
"278 818 LINE",
"345 750 LINE",
"349 750 LINE",
"416 818 LINE"
);
}
);
width = 600;
}
);
unicode = 010C;
},
{
glyphname = Ccedilla;
layers = (
{
layerId = "071E7A8C-CF57-4473-AB35-23A61C6027DA";
name = Regular;
paths = (
{
closed = 1;
nodes = (
"66 433 OFFCURVE",
"96 518 OFFCURVE",
"148 577 CURVE SMOOTH",
"200 636 OFFCURVE",
"274 668 OFFCURVE",
"359 668 CURVE SMOOTH",
"439 668 OFFCURVE",
"499 631 OFFCURVE",
"538 588 CURVE",
"491 535 LINE",
"456 571 OFFCURVE",
"415 595 OFFCURVE",
"359 595 CURVE SMOOTH",
"296 595 OFFCURVE",
"244 570 OFFCURVE",
"208 524 CURVE SMOOTH",
"172 478 OFFCURVE",
"152 411 OFFCURVE",
"152 330 CURVE SMOOTH",
"152 247 OFFCURVE",
"172 181 OFFCURVE",
"208 134 CURVE SMOOTH",
"244 87 OFFCURVE",
"296 61 OFFCURVE",
"359 61 CURVE SMOOTH",
"419 61 OFFCURVE",
"463 87 OFFCURVE",
"506 134 CURVE",
"554 83 LINE",
"502 23 OFFCURVE",
"438 -12 OFFCURVE",
"354 -12 CURVE SMOOTH",
"271 -12 OFFCURVE",
"200 20 OFFCURVE",
"149 78 CURVE SMOOTH",
"97 136 OFFCURVE",
"66 221 OFFCURVE",
"66 328 CURVE SMOOTH"
);
},
{
closed = 1;
nodes = (
"322 3 LINE",
"376 3 LINE",
"351 -50 LINE",
"383 -61 OFFCURVE",
"410 -80 OFFCURVE",
"410 -121 CURVE SMOOTH",
"410 -150 OFFCURVE",
"393 -171 OFFCURVE",
"366 -186 CURVE SMOOTH",
"339 -201 OFFCURVE",
"302 -209 OFFCURVE",
"265 -213 CURVE",
"257 -172 LINE",
"310 -165 OFFCURVE",
"346 -151 OFFCURVE",
"346 -124 CURVE SMOOTH",
"346 -97 OFFCURVE",
"323 -86 OFFCURVE",
"282 -75 CURVE"
);
}
);
width = 600;
}
);
unicode = 00C7;
},
{
glyphname = Ccircumflex;
layers = (
{
layerId = "071E7A8C-CF57-4473-AB35-23A61C6027DA";
name = Regular;
paths = (
{
closed = 1;
nodes = (
"66 433 OFFCURVE",
"96 518 OFFCURVE",
"148 577 CURVE SMOOTH",
"200 636 OFFCURVE",
"274 668 OFFCURVE",
"359 668 CURVE SMOOTH",
"439 668 OFFCURVE",
"499 631 OFFCURVE",
"538 588 CURVE",
"491 535 LINE",
"456 571 OFFCURVE",
"415 595 OFFCURVE",
"359 595 CURVE SMOOTH",
"296 595 OFFCURVE",
"244 570 OFFCURVE",
"208 524 CURVE SMOOTH",
"172 478 OFFCURVE",
"152 411 OFFCURVE",
"152 330 CURVE SMOOTH",
"152 247 OFFCURVE",
"172 181 OFFCURVE",
"208 134 CURVE SMOOTH",
"244 87 OFFCURVE",
"296 61 OFFCURVE",
"359 61 CURVE SMOOTH",
"419 61 OFFCURVE",
"463 87 OFFCURVE",
"506 134 CURVE",
"554 83 LINE",
"502 23 OFFCURVE",
"438 -12 OFFCURVE",
"354 -12 CURVE SMOOTH",
"271 -12 OFFCURVE",
"200 20 OFFCURVE",
"149 78 CURVE SMOOTH",
"97 136 OFFCURVE",
"66 221 OFFCURVE",
"66 328 CURVE SMOOTH"
);
},
{
closed = 1;
nodes = (
"211 706 LINE",
"307 818 LINE",
"387 818 LINE",
"483 706 LINE",
"416 706 LINE",
"349 774 LINE",
"345 774 LINE",
"278 706 LINE"
);
}
);
width = 600;
}
);
unicode = 0108;
},
{
glyphname = Cdotaccent;
layers = (
{
layerId = "071E7A8C-CF57-4473-AB35-23A61C6027DA";
name = Regular;
paths = (
{
closed = 1;
nodes = (
"66 433 OFFCURVE",
"96 518 OFFCURVE",
"148 577 CURVE SMOOTH",
"200 636 OFFCURVE",
"274 668 OFFCURVE",
"359 668 CURVE SMOOTH",
"439 668 OFFCURVE",
"499 631 OFFCURVE",
"538 588 CURVE",
"491 535 LINE",
"456 571 OFFCURVE",
"415 595 OFFCURVE",
"359 595 CURVE SMOOTH",
"296 595 OFFCURVE",
"244 570 OFFCURVE",
"208 524 CURVE SMOOTH",
"172 478 OFFCURVE",
"152 411 OFFCURVE",
"152 330 CURVE SMOOTH",
"152 247 OFFCURVE",
"172 181 OFFCURVE",
"208 134 CURVE SMOOTH",
"244 87 OFFCURVE",
"296 61 OFFCURVE",
"359 61 CURVE SMOOTH",
"419 61 OFFCURVE",
"463 87 OFFCURVE",
"506 134 CURVE",
"554 83 LINE",
"502 23 OFFCURVE",
"438 -12 OFFCURVE",
"354 -12 CURVE SMOOTH",
"271 -12 OFFCURVE",
"200 20 OFFCURVE",
"149 78 CURVE SMOOTH",
"97 136 OFFCURVE",
"66 221 OFFCURVE",
"66 328 CURVE SMOOTH"
);
},
{
closed = 1;
nodes = (
"315 714 OFFCURVE",
"290 736 OFFCURVE",
"290 768 CURVE SMOOTH",
"290 799 OFFCURVE",
"315 821 OFFCURVE",
"347 821 CURVE SMOOTH",
"379 821 OFFCURVE",
"404 799 OFFCURVE",
"404 768 CURVE SMOOTH",
"404 736 OFFCURVE",
"379 714 OFFCURVE",
"347 714 CURVE SMOOTH"
);
}
);
width = 600;
}
);
unicode = 010A;
},
{
glyphname = D;
layers = (
{
layerId = "071E7A8C-CF57-4473-AB35-23A61C6027DA";
name = Regular;
paths = (
{
closed = 1;
nodes = (
"85 656 LINE",
"245 656 LINE SMOOTH",
"444 656 OFFCURVE",
"549 540 OFFCURVE",
"549 331 CURVE SMOOTH",
"549 227 OFFCURVE",
"523 144 OFFCURVE",
"472 88 CURVE SMOOTH",
"421 31 OFFCURVE",
"346 0 OFFCURVE",
"249 0 CURVE SMOOTH",
"85 0 LINE"
);
},
{
closed = 1;
nodes = (
"240 68 LINE SMOOTH",
"389 68 OFFCURVE",
"463 164 OFFCURVE",
"463 331 CURVE SMOOTH",
"463 498 OFFCURVE",
"389 588 OFFCURVE",
"240 588 CURVE SMOOTH",
"168 588 LINE",
"168 68 LINE"
);
}
);
width = 600;
}
);
unicode = 0044;
},
{
glyphname = Eth;
layers = (
{
layerId = "071E7A8C-CF57-4473-AB35-23A61C6027DA";
name = Regular;
paths = (
{
closed = 1;
nodes = (
"91 321 LINE",
"16 321 LINE",
"16 363 LINE",
"91 368 LINE",
"91 656 LINE",
"252 656 LINE SMOOTH",
"449 656 OFFCURVE",
"555 540 OFFCURVE",
"555 331 CURVE SMOOTH",
"555 122 OFFCURVE",
"448 0 OFFCURVE",
"255 0 CURVE SMOOTH",
"91 0 LINE"
);
},
{
closed = 1;
nodes = (
"246 68 LINE SMOOTH",
"395 68 OFFCURVE",
"469 164 OFFCURVE",
"469 331 CURVE SMOOTH",
"469 498 OFFCURVE",
"395 588 OFFCURVE",
"246 588 CURVE SMOOTH",
"174 588 LINE",
"174 368 LINE",
"317 368 LINE",
"317 321 LINE",
"174 321 LINE",
"174 68 LINE"
);
}
);
width = 600;
}
);
unicode = 00D0;
},
{
glyphname = Dcaron;
layers = (
{
layerId = "071E7A8C-CF57-4473-AB35-23A61C6027DA";
name = Regular;
paths = (
{
closed = 1;
nodes = (
"85 656 LINE",
"245 656 LINE SMOOTH",
"444 656 OFFCURVE",
"549 540 OFFCURVE",
"549 331 CURVE SMOOTH",
"549 227 OFFCURVE",
"523 144 OFFCURVE",
"472 88 CURVE SMOOTH",
"421 31 OFFCURVE",
"346 0 OFFCURVE",
"249 0 CURVE SMOOTH",
"85 0 LINE"
);
},
{
closed = 1;
nodes = (
"240 68 LINE SMOOTH",
"389 68 OFFCURVE",
"463 164 OFFCURVE",
"463 331 CURVE SMOOTH",
"463 498 OFFCURVE",
"389 588 OFFCURVE",
"240 588 CURVE SMOOTH",
"168 588 LINE",
"168 68 LINE"
);
},
{
closed = 1;
nodes = (
"436 818 LINE",
"340 706 LINE",
"260 706 LINE",
"164 818 LINE",
"231 818 LINE",
"298 750 LINE",
"302 750 LINE",
"369 818 LINE"
);
}
);
width = 600;
}
);
unicode = 010E;
},
{
glyphname = Dcroat;
layers = (
{
layerId = "071E7A8C-CF57-4473-AB35-23A61C6027DA";
name = Regular;
paths = (
{
closed = 1;
nodes = (
"91 321 LINE",
"16 321 LINE",
"16 363 LINE",
"91 368 LINE",
"91 656 LINE",
"252 656 LINE SMOOTH",
"449 656 OFFCURVE",
"555 540 OFFCURVE",
"555 331 CURVE SMOOTH",
"555 122 OFFCURVE",
"448 0 OFFCURVE",
"255 0 CURVE SMOOTH",
"91 0 LINE"
);
},
{
closed = 1;
nodes = (
"246 68 LINE SMOOTH",
"395 68 OFFCURVE",
"469 164 OFFCURVE",
"469 331 CURVE SMOOTH",
"469 498 OFFCURVE",
"395 588 OFFCURVE",
"246 588 CURVE SMOOTH",
"174 588 LINE",
"174 368 LINE",
"317 368 LINE",
"317 321 LINE",
"174 321 LINE",
"174 68 LINE"
);
}
);
width = 600;
}
);
unicode = 0110;
},
{
glyphname = Ddotbelow;
layers = (
{
layerId = "071E7A8C-CF57-4473-AB35-23A61C6027DA";
name = Regular;
paths = (
{
closed = 1;
nodes = (
"85 656 LINE",
"245 656 LINE SMOOTH",
"444 656 OFFCURVE",
"549 540 OFFCURVE",
"549 331 CURVE SMOOTH",
"549 227 OFFCURVE",
"523 144 OFFCURVE",
"472 88 CURVE SMOOTH",
"421 31 OFFCURVE",
"346 0 OFFCURVE",
"249 0 CURVE SMOOTH",
"85 0 LINE"
);
},
{
closed = 1;
nodes = (
"240 68 LINE SMOOTH",
"389 68 OFFCURVE",
"463 164 OFFCURVE",
"463 331 CURVE SMOOTH",
"463 498 OFFCURVE",
"389 588 OFFCURVE",
"240 588 CURVE SMOOTH",
"168 588 LINE",
"168 68 LINE"
);
},
{
closed = 1;
nodes = (
"254 -226 OFFCURVE",
"225 -202 OFFCURVE",
"225 -163 CURVE SMOOTH",
"225 -124 OFFCURVE",
"254 -99 OFFCURVE",
"291 -99 CURVE SMOOTH",
"328 -99 OFFCURVE",
"357 -124 OFFCURVE",
"357 -163 CURVE SMOOTH",
"357 -202 OFFCURVE",
"328 -226 OFFCURVE",
"291 -226 CURVE SMOOTH"
);
}
);
width = 600;
}
);
unicode = 1E0C;
},
{
glyphname = Dlinebelow;
layers = (
{
layerId = "071E7A8C-CF57-4473-AB35-23A61C6027DA";
name = Regular;
paths = (
{
closed = 1;
nodes = (
"85 656 LINE",
"245 656 LINE SMOOTH",
"444 656 OFFCURVE",
"549 540 OFFCURVE",
"549 331 CURVE SMOOTH",
"549 227 OFFCURVE",
"523 144 OFFCURVE",
"472 88 CURVE SMOOTH",
"421 31 OFFCURVE",
"346 0 OFFCURVE",
"249 0 CURVE SMOOTH",
"85 0 LINE"
);
},
{
closed = 1;
nodes = (
"240 68 LINE SMOOTH",
"389 68 OFFCURVE",
"463 164 OFFCURVE",
"463 331 CURVE SMOOTH",
"463 498 OFFCURVE",
"389 588 OFFCURVE",
"240 588 CURVE SMOOTH",
"168 588 LINE",
"168 68 LINE"
);
},
{
closed = 1;
nodes = (
"414 -171 LINE",
"167 -171 LINE",
"167 -113 LINE",
"414 -113 LINE"
);
}
);
width = 600;
}
);
unicode = 1E0E;
},
{
glyphname = E;
layers = (
{
layerId = "071E7A8C-CF57-4473-AB35-23A61C6027DA";
name = Regular;
paths = (
{
closed = 1;
nodes = (
"115 656 LINE",
"520 656 LINE",
"520 586 LINE",
"199 586 LINE",
"199 380 LINE",
"470 380 LINE",
"470 309 LINE",
"199 309 LINE",
"199 71 LINE",
"530 71 LINE",
"530 0 LINE",
"115 0 LINE"
);
}
);
width = 600;
}
);
unicode = 0045;
},
{
glyphname = Eacute;
layers = (
{
layerId = "071E7A8C-CF57-4473-AB35-23A61C6027DA";
name = Regular;
paths = (
{
closed = 1;
nodes = (
"115 656 LINE",
"520 656 LINE",
"520 586 LINE",
"199 586 LINE",
"199 380 LINE",
"470 380 LINE",
"470 309 LINE",
"199 309 LINE",
"199 71 LINE",
"530 71 LINE",
"530 0 LINE",
"115 0 LINE"
);
},
{
closed = 1;
nodes = (
"349 706 LINE",
"280 706 LINE",
"368 818 LINE",
"462 818 LINE"
);
}
);
width = 600;
}
);
unicode = 00C9;
},
{
glyphname = Ebreve;
layers = (
{
layerId = "071E7A8C-CF57-4473-AB35-23A61C6027DA";
name = Regular;
paths = (
{
closed = 1;
nodes = (
"115 656 LINE",
"520 656 LINE",
"520 586 LINE",
"199 586 LINE",
"199 380 LINE",
"470 380 LINE",
"470 309 LINE",
"199 309 LINE",
"199 71 LINE",
"530 71 LINE",
"530 0 LINE",
"115 0 LINE"
);
},
{
closed = 1;
nodes = (
"291 708 OFFCURVE",
"262 722 OFFCURVE",
"242 742 CURVE SMOOTH",
"222 762 OFFCURVE",
"212 790 OFFCURVE",
"208 818 CURVE",
"258 818 LINE",
"265 786 OFFCURVE",
"286 755 OFFCURVE",
"331 755 CURVE SMOOTH",
"376 755 OFFCURVE",
"397 786 OFFCURVE",
"404 818 CURVE",
"454 818 LINE",
"450 790 OFFCURVE",
"440 762 OFFCURVE",
"420 742 CURVE SMOOTH",
"400 722 OFFCURVE",
"371 708 OFFCURVE",
"331 708 CURVE SMOOTH"
);
}
);
width = 600;
}
);
unicode = 0114;
},
{
glyphname = Ecaron;
layers = (
{
layerId = "071E7A8C-CF57-4473-AB35-23A61C6027DA";
name = Regular;
paths = (
{
closed = 1;
nodes = (
"115 656 LINE",
"520 656 LINE",
"520 586 LINE",
"199 586 LINE",
"199 380 LINE",
"470 380 LINE",
"470 309 LINE",
"199 309 LINE",
"199 71 LINE",
"530 71 LINE",
"530 0 LINE",
"115 0 LINE"
);
},
{
closed = 1;
nodes = (
"467 818 LINE",
"371 706 LINE",
"291 706 LINE",
"195 818 LINE",
"262 818 LINE",
"329 750 LINE",
"333 750 LINE",
"400 818 LINE"
);
}
);
width = 600;
}
);
unicode = 011A;
},
{
glyphname = Ecircumflex;
layers = (
{
layerId = "071E7A8C-CF57-4473-AB35-23A61C6027DA";
name = Regular;
paths = (
{
closed = 1;
nodes = (
"115 656 LINE",
"520 656 LINE",
"520 586 LINE",
"199 586 LINE",
"199 380 LINE",
"470 380 LINE",
"470 309 LINE",
"199 309 LINE",
"199 71 LINE",
"530 71 LINE",
"530 0 LINE",
"115 0 LINE"
);
},
{
closed = 1;
nodes = (
"195 706 LINE",
"291 818 LINE",
"371 818 LINE",
"467 706 LINE",
"400 706 LINE",
"333 774 LINE",
"329 774 LINE",
"262 706 LINE"
);
}
);
width = 600;
}
);
unicode = 00CA;
},
{
glyphname = Ecircumflexacute;
layers = (
{
layerId = "071E7A8C-CF57-4473-AB35-23A61C6027DA";
name = Regular;
paths = (
{
closed = 1;
nodes = (
"115 656 LINE",
"520 656 LINE",
"520 586 LINE",
"199 586 LINE",
"199 380 LINE",
"470 380 LINE",
"470 309 LINE",
"199 309 LINE",
"199 71 LINE",
"530 71 LINE",
"530 0 LINE",
"115 0 LINE"
);
},
{
closed = 1;
nodes = (
"493 881 LINE",
"565 881 LINE",
"474 770 LINE",
"422 770 LINE"
);
},
{
closed = 1;
nodes = (
"295 812 LINE",
"367 812 LINE",
"459 706 LINE",
"396 706 LINE",
"333 768 LINE",
"329 768 LINE",
"266 706 LINE",
"203 706 LINE"
);
}
);
width = 600;
}
);
unicode = 1EBE;
},
{
glyphname = Ecircumflexdotbelow;
layers = (
{
layerId = "071E7A8C-CF57-4473-AB35-23A61C6027DA";
name = Regular;
paths = (
{
closed = 1;
nodes = (
"115 656 LINE",
"520 656 LINE",
"520 586 LINE",
"199 586 LINE",
"199 380 LINE",
"470 380 LINE",
"470 309 LINE",
"199 309 LINE",
"199 71 LINE",
"530 71 LINE",
"530 0 LINE",
"115 0 LINE"
);
},
{
closed = 1;
nodes = (
"195 706 LINE",
"291 818 LINE",
"371 818 LINE",
"467 706 LINE",
"400 706 LINE",
"333 774 LINE",
"329 774 LINE",
"262 706 LINE"
);
},
{
closed = 1;
nodes = (
"295 -226 OFFCURVE",
"266 -202 OFFCURVE",
"266 -163 CURVE SMOOTH",
"266 -124 OFFCURVE",
"295 -99 OFFCURVE",
"332 -99 CURVE SMOOTH",
"369 -99 OFFCURVE",
"398 -124 OFFCURVE",
"398 -163 CURVE SMOOTH",
"398 -202 OFFCURVE",
"369 -226 OFFCURVE",
"332 -226 CURVE SMOOTH"
);
}
);
width = 600;
}
);
unicode = 1EC6;
},
{
glyphname = Ecircumflexgrave;
layers = (
{
layerId = "071E7A8C-CF57-4473-AB35-23A61C6027DA";
name = Regular;
paths = (
{
closed = 1;
nodes = (
"115 656 LINE",
"520 656 LINE",
"520 586 LINE",
"199 586 LINE",
"199 380 LINE",
"470 380 LINE",
"470 309 LINE",
"199 309 LINE",
"199 71 LINE",
"530 71 LINE",
"530 0 LINE",
"115 0 LINE"
);
},
{
closed = 1;
nodes = (
"515 770 LINE",
"463 770 LINE",
"372 881 LINE",
"444 881 LINE"
);
},
{
closed = 1;
nodes = (
"295 812 LINE",
"367 812 LINE",
"459 706 LINE",
"396 706 LINE",
"333 768 LINE",
"329 768 LINE",
"266 706 LINE",
"203 706 LINE"
);
}
);
width = 600;
}
);
unicode = 1EC0;
},
{
glyphname = Ecircumflexhookabove;
layers = (
{
layerId = "071E7A8C-CF57-4473-AB35-23A61C6027DA";
name = Regular;
paths = (
{
closed = 1;
nodes = (
"115 656 LINE",
"520 656 LINE",
"520 586 LINE",
"199 586 LINE",
"199 380 LINE",
"470 380 LINE",
"470 309 LINE",
"199 309 LINE",
"199 71 LINE",
"530 71 LINE",
"530 0 LINE",
"115 0 LINE"
);
},
{
closed = 1;
nodes = (
"435 789 LINE",
"460 796 OFFCURVE",
"480 804 OFFCURVE",
"480 825 CURVE SMOOTH",
"480 852 OFFCURVE",
"460 861 OFFCURVE",
"409 864 CURVE",
"418 906 LINE",
"497 903 OFFCURVE",
"538 880 OFFCURVE",
"538 833 CURVE SMOOTH",
"538 782 OFFCURVE",
"494 762 OFFCURVE",
"446 754 CURVE"
);
},
{
closed = 1;
nodes = (
"295 812 LINE",
"367 812 LINE",
"459 706 LINE",
"396 706 LINE",
"333 768 LINE",
"329 768 LINE",
"266 706 LINE",
"203 706 LINE"
);
}
);
width = 600;
}
);
unicode = 1EC2;
},
{
glyphname = Ecircumflextilde;
layers = (
{
layerId = "071E7A8C-CF57-4473-AB35-23A61C6027DA";
name = Regular;
paths = (
{
closed = 1;
nodes = (
"115 656 LINE",
"520 656 LINE",
"520 586 LINE",
"199 586 LINE",
"199 380 LINE",
"470 380 LINE",
"470 309 LINE",
"199 309 LINE",
"199 71 LINE",
"530 71 LINE",
"530 0 LINE",
"115 0 LINE"
);
},
{
closed = 1;
nodes = (
"295 812 LINE",
"367 812 LINE",
"459 706 LINE",
"396 706 LINE",
"333 768 LINE",
"329 768 LINE",
"266 706 LINE",
"203 706 LINE"
);
},
{
closed = 1;
nodes = (
"199 848 LINE",
"204 900 OFFCURVE",
"230 938 OFFCURVE",
"277 938 CURVE SMOOTH",
"302 938 OFFCURVE",
"321 928 OFFCURVE",
"337 917 CURVE SMOOTH",
"353 906 OFFCURVE",
"366 896 OFFCURVE",
"382 896 CURVE SMOOTH",
"402 896 OFFCURVE",
"417 910 OFFCURVE",
"421 938 CURVE",
"463 938 LINE",
"458 885 OFFCURVE",
"432 848 OFFCURVE",
"385 848 CURVE SMOOTH",
"360 848 OFFCURVE",
"341 858 OFFCURVE",
"325 869 CURVE SMOOTH",
"309 880 OFFCURVE",
"296 890 OFFCURVE",
"280 890 CURVE SMOOTH",
"260 890 OFFCURVE",
"245 876 OFFCURVE",
"241 848 CURVE"
);
}
);
width = 600;
}
);
unicode = 1EC4;
},
{
glyphname = Edieresis;
layers = (
{
layerId = "071E7A8C-CF57-4473-AB35-23A61C6027DA";
name = Regular;
paths = (
{
closed = 1;
nodes = (
"115 656 LINE",
"520 656 LINE",
"520 586 LINE",
"199 586 LINE",
"199 380 LINE",
"470 380 LINE",
"470 309 LINE",
"199 309 LINE",
"199 71 LINE",
"530 71 LINE",
"530 0 LINE",
"115 0 LINE"
);
},
{
closed = 1;
nodes = (
"216 715 OFFCURVE",
"196 736 OFFCURVE",
"196 764 CURVE SMOOTH",
"196 793 OFFCURVE",
"216 813 OFFCURVE",
"245 813 CURVE SMOOTH",
"273 813 OFFCURVE",
"294 793 OFFCURVE",
"294 764 CURVE SMOOTH",
"294 736 OFFCURVE",
"273 715 OFFCURVE",
"245 715 CURVE SMOOTH"
);
},
{
closed = 1;
nodes = (
"389 715 OFFCURVE",
"368 736 OFFCURVE",
"368 764 CURVE SMOOTH",
"368 793 OFFCURVE",
"389 813 OFFCURVE",
"417 813 CURVE SMOOTH",
"446 813 OFFCURVE",
"466 793 OFFCURVE",
"466 764 CURVE SMOOTH",
"466 736 OFFCURVE",
"446 715 OFFCURVE",
"417 715 CURVE SMOOTH"
);
}
);
width = 600;
}
);
unicode = 00CB;
},
{
glyphname = Edotaccent;
layers = (
{
layerId = "071E7A8C-CF57-4473-AB35-23A61C6027DA";
name = Regular;
paths = (
{
closed = 1;
nodes = (
"115 656 LINE",
"520 656 LINE",
"520 586 LINE",
"199 586 LINE",
"199 380 LINE",
"470 380 LINE",
"470 309 LINE",
"199 309 LINE",
"199 71 LINE",
"530 71 LINE",
"530 0 LINE",
"115 0 LINE"
);
},
{
closed = 1;
nodes = (
"299 714 OFFCURVE",
"274 736 OFFCURVE",
"274 768 CURVE SMOOTH",
"274 799 OFFCURVE",
"299 821 OFFCURVE",
"331 821 CURVE SMOOTH",
"363 821 OFFCURVE",
"388 799 OFFCURVE",
"388 768 CURVE SMOOTH",
"388 736 OFFCURVE",
"363 714 OFFCURVE",
"331 714 CURVE SMOOTH"
);
}
);
width = 600;
}
);
unicode = 0116;
},
{
glyphname = Edotbelow;
layers = (
{
layerId = "071E7A8C-CF57-4473-AB35-23A61C6027DA";
name = Regular;
paths = (
{
closed = 1;
nodes = (
"115 656 LINE",
"520 656 LINE",
"520 586 LINE",
"199 586 LINE",
"199 380 LINE",
"470 380 LINE",
"470 309 LINE",
"199 309 LINE",
"199 71 LINE",
"530 71 LINE",
"530 0 LINE",
"115 0 LINE"
);
},
{
closed = 1;
nodes = (
"295 -226 OFFCURVE",
"266 -202 OFFCURVE",
"266 -163 CURVE SMOOTH",
"266 -124 OFFCURVE",
"295 -99 OFFCURVE",
"332 -99 CURVE SMOOTH",
"369 -99 OFFCURVE",
"398 -124 OFFCURVE",
"398 -163 CURVE SMOOTH",
"398 -202 OFFCURVE",
"369 -226 OFFCURVE",
"332 -226 CURVE SMOOTH"
);
}
);
width = 600;
}
);
unicode = 1EB8;
},
{
glyphname = Egrave;
layers = (
{
layerId = "071E7A8C-CF57-4473-AB35-23A61C6027DA";
name = Regular;
paths = (
{
closed = 1;
nodes = (
"115 656 LINE",
"520 656 LINE",
"520 586 LINE",
"199 586 LINE",
"199 380 LINE",
"470 380 LINE",
"470 309 LINE",
"199 309 LINE",
"199 71 LINE",
"530 71 LINE",
"530 0 LINE",
"115 0 LINE"
);
},
{
closed = 1;
nodes = (
"200 818 LINE",
"294 818 LINE",
"382 706 LINE",
"313 706 LINE"
);
}
);
width = 600;
}
);
unicode = 00C8;
},
{
glyphname = Ehookabove;
layers = (
{
layerId = "071E7A8C-CF57-4473-AB35-23A61C6027DA";
name = Regular;
paths = (
{
closed = 1;
nodes = (
"115 656 LINE",
"520 656 LINE",
"520 586 LINE",
"199 586 LINE",
"199 380 LINE",
"470 380 LINE",
"470 309 LINE",
"199 309 LINE",
"199 71 LINE",
"530 71 LINE",
"530 0 LINE",
"115 0 LINE"
);
},
{
closed = 1;
nodes = (
"294 736 LINE",
"326 745 OFFCURVE",
"350 757 OFFCURVE",
"350 782 CURVE SMOOTH",
"350 808 OFFCURVE",
"322 822 OFFCURVE",
"267 824 CURVE",
"276 872 LINE",
"364 869 OFFCURVE",
"414 842 OFFCURVE",
"414 791 CURVE SMOOTH",
"414 762 OFFCURVE",
"401 742 OFFCURVE",
"381 727 CURVE SMOOTH",
"360 711 OFFCURVE",
"332 703 OFFCURVE",
"303 698 CURVE"
);
}
);
width = 600;
}
);
unicode = 1EBA;
},
{
glyphname = Emacron;
layers = (
{
layerId = "071E7A8C-CF57-4473-AB35-23A61C6027DA";
name = Regular;
paths = (
{
closed = 1;
nodes = (
"115 656 LINE",
"520 656 LINE",
"520 586 LINE",
"199 586 LINE",
"199 380 LINE",
"470 380 LINE",
"470 309 LINE",
"199 309 LINE",
"199 71 LINE",
"530 71 LINE",
"530 0 LINE",
"115 0 LINE"
);
},
{
closed = 1;
nodes = (
"207 786 LINE",
"455 786 LINE",
"455 729 LINE",
"207 729 LINE"
);
}
);
width = 600;
}
);
unicode = 0112;
},
{
glyphname = Eogonek;
layers = (
{
layerId = "071E7A8C-CF57-4473-AB35-23A61C6027DA";
name = Regular;
paths = (
{
closed = 1;
nodes = (
"115 656 LINE",
"520 656 LINE",
"520 586 LINE",
"199 586 LINE",
"199 380 LINE",
"470 380 LINE",
"470 309 LINE",
"199 309 LINE",
"199 71 LINE",
"530 71 LINE",
"530 0 LINE",
"526 0 LINE",
"503 -3 OFFCURVE",
"480 -16 OFFCURVE",
"464 -35 CURVE SMOOTH",
"447 -55 OFFCURVE",
"435 -80 OFFCURVE",
"435 -107 CURVE SMOOTH",
"435 -138 OFFCURVE",
"458 -153 OFFCURVE",
"482 -153 CURVE SMOOTH",
"498 -153 OFFCURVE",
"510 -148 OFFCURVE",
"523 -139 CURVE",
"545 -184 LINE",
"526 -199 OFFCURVE",
"492 -212 OFFCURVE",
"465 -212 CURVE SMOOTH",
"413 -212 OFFCURVE",
"370 -182 OFFCURVE",
"370 -125 CURVE SMOOTH",
"370 -69 OFFCURVE",
"408 -24 OFFCURVE",
"445 0 CURVE",
"115 0 LINE"
);
}
);
width = 600;
}
);
unicode = 0118;
},
{
glyphname = Etilde;
layers = (
{
layerId = "071E7A8C-CF57-4473-AB35-23A61C6027DA";
name = Regular;
paths = (
{
closed = 1;
nodes = (
"115 656 LINE",
"520 656 LINE",
"520 586 LINE",
"199 586 LINE",
"199 380 LINE",
"470 380 LINE",
"470 309 LINE",
"199 309 LINE",
"199 71 LINE",
"530 71 LINE",
"530 0 LINE",
"115 0 LINE"
);
},
{
closed = 1;
nodes = (
"364 711 OFFCURVE",
"344 724 OFFCURVE",
"326 737 CURVE SMOOTH",
"308 750 OFFCURVE",
"291 763 OFFCURVE",
"272 763 CURVE SMOOTH",
"253 763 OFFCURVE",
"237 746 OFFCURVE",
"232 711 CURVE",
"186 711 LINE",
"193 774 OFFCURVE",
"223 819 OFFCURVE",
"271 819 CURVE SMOOTH",
"298 819 OFFCURVE",
"319 806 OFFCURVE",
"337 793 CURVE SMOOTH",
"355 780 OFFCURVE",
"371 767 OFFCURVE",
"390 767 CURVE SMOOTH",
"409 767 OFFCURVE",
"425 786 OFFCURVE",
"430 819 CURVE",
"476 819 LINE",
"469 758 OFFCURVE",
"439 711 OFFCURVE",
"391 711 CURVE SMOOTH"
);
}
);
width = 600;
}
);
unicode = 1EBC;
},
{
glyphname = F;
layers = (
{
layerId = "071E7A8C-CF57-4473-AB35-23A61C6027DA";
name = Regular;
paths = (
{
closed = 1;
nodes = (
"135 656 LINE",
"536 656 LINE",
"536 586 LINE",
"218 586 LINE",
"218 364 LINE",
"487 364 LINE",
"487 294 LINE",
"218 294 LINE",
"218 0 LINE",
"135 0 LINE"
);
}
);
width = 600;
}
);
unicode = 0046;
},
{
glyphname = G;
layers = (
{
layerId = "071E7A8C-CF57-4473-AB35-23A61C6027DA";
name = Regular;
paths = (
{
closed = 1;
nodes = (
"53 433 OFFCURVE",
"83 520 OFFCURVE",
"135 578 CURVE SMOOTH",
"186 636 OFFCURVE",
"259 668 OFFCURVE",
"344 668 CURVE SMOOTH",
"388 668 OFFCURVE",
"424 658 OFFCURVE",
"454 643 CURVE SMOOTH",
"484 627 OFFCURVE",
"506 608 OFFCURVE",
"525 588 CURVE",
"478 535 LINE",
"446 570 OFFCURVE",
"408 595 OFFCURVE",
"344 595 CURVE SMOOTH",
"283 595 OFFCURVE",
"232 570 OFFCURVE",
"196 524 CURVE SMOOTH",
"160 478 OFFCURVE",
"140 411 OFFCURVE",
"140 330 CURVE SMOOTH",
"140 247 OFFCURVE",
"159 181 OFFCURVE",
"193 134 CURVE SMOOTH",
"227 87 OFFCURVE",
"278 61 OFFCURVE",
"342 61 CURVE SMOOTH",
"389 61 OFFCURVE",
"431 76 OFFCURVE",
"456 100 CURVE",
"456 271 LINE",
"325 271 LINE",
"325 340 LINE",
"533 340 LINE",
"533 64 LINE",
"490 21 OFFCURVE",
"422 -12 OFFCURVE",
"337 -12 CURVE SMOOTH",
"254 -12 OFFCURVE",
"184 20 OFFCURVE",
"133 78 CURVE SMOOTH",
"82 136 OFFCURVE",
"53 221 OFFCURVE",
"53 328 CURVE SMOOTH"
);
}
);
width = 600;
}
);
unicode = 0047;
},
{
glyphname = Gbreve;
layers = (
{
layerId = "071E7A8C-CF57-4473-AB35-23A61C6027DA";
name = Regular;
paths = (
{
closed = 1;
nodes = (
"53 433 OFFCURVE",
"83 520 OFFCURVE",
"135 578 CURVE SMOOTH",
"186 636 OFFCURVE",
"259 668 OFFCURVE",
"344 668 CURVE SMOOTH",
"388 668 OFFCURVE",
"424 658 OFFCURVE",
"454 643 CURVE SMOOTH",
"484 627 OFFCURVE",
"506 608 OFFCURVE",
"525 588 CURVE",
"478 535 LINE",
"446 570 OFFCURVE",
"408 595 OFFCURVE",
"344 595 CURVE SMOOTH",
"283 595 OFFCURVE",
"232 570 OFFCURVE",
"196 524 CURVE SMOOTH",
"160 478 OFFCURVE",
"140 411 OFFCURVE",
"140 330 CURVE SMOOTH",
"140 247 OFFCURVE",
"159 181 OFFCURVE",
"193 134 CURVE SMOOTH",
"227 87 OFFCURVE",
"278 61 OFFCURVE",
"342 61 CURVE SMOOTH",
"389 61 OFFCURVE",
"431 76 OFFCURVE",
"456 100 CURVE",
"456 271 LINE",
"325 271 LINE",
"325 340 LINE",
"533 340 LINE",
"533 64 LINE",
"490 21 OFFCURVE",
"422 -12 OFFCURVE",
"337 -12 CURVE SMOOTH",
"254 -12 OFFCURVE",
"184 20 OFFCURVE",
"133 78 CURVE SMOOTH",
"82 136 OFFCURVE",
"53 221 OFFCURVE",
"53 328 CURVE SMOOTH"
);
},
{
closed = 1;
nodes = (
"291 708 OFFCURVE",
"262 722 OFFCURVE",
"242 742 CURVE SMOOTH",
"222 762 OFFCURVE",
"212 790 OFFCURVE",
"208 818 CURVE",
"258 818 LINE",
"265 786 OFFCURVE",
"286 755 OFFCURVE",
"331 755 CURVE SMOOTH",
"376 755 OFFCURVE",
"397 786 OFFCURVE",
"404 818 CURVE",
"454 818 LINE",
"450 790 OFFCURVE",
"440 762 OFFCURVE",
"420 742 CURVE SMOOTH",
"400 722 OFFCURVE",
"371 708 OFFCURVE",
"331 708 CURVE SMOOTH"
);
}
);
width = 600;
}
);
unicode = 011E;
},
{
glyphname = Gcaron;
layers = (
{
layerId = "071E7A8C-CF57-4473-AB35-23A61C6027DA";
name = Regular;
paths = (
{
closed = 1;
nodes = (
"53 433 OFFCURVE",
"83 520 OFFCURVE",
"135 578 CURVE SMOOTH",
"186 636 OFFCURVE",
"259 668 OFFCURVE",
"344 668 CURVE SMOOTH",
"388 668 OFFCURVE",
"424 658 OFFCURVE",
"454 643 CURVE SMOOTH",
"484 627 OFFCURVE",
"506 608 OFFCURVE",
"525 588 CURVE",
"478 535 LINE",
"446 570 OFFCURVE",
"408 595 OFFCURVE",
"344 595 CURVE SMOOTH",
"283 595 OFFCURVE",
"232 570 OFFCURVE",
"196 524 CURVE SMOOTH",
"160 478 OFFCURVE",
"140 411 OFFCURVE",
"140 330 CURVE SMOOTH",
"140 247 OFFCURVE",
"159 181 OFFCURVE",
"193 134 CURVE SMOOTH",
"227 87 OFFCURVE",
"278 61 OFFCURVE",
"342 61 CURVE SMOOTH",
"389 61 OFFCURVE",
"431 76 OFFCURVE",
"456 100 CURVE",
"456 271 LINE",
"325 271 LINE",
"325 340 LINE",
"533 340 LINE",
"533 64 LINE",
"490 21 OFFCURVE",
"422 -12 OFFCURVE",
"337 -12 CURVE SMOOTH",
"254 -12 OFFCURVE",
"184 20 OFFCURVE",
"133 78 CURVE SMOOTH",
"82 136 OFFCURVE",
"53 221 OFFCURVE",
"53 328 CURVE SMOOTH"
);
},
{
closed = 1;
nodes = (
"467 818 LINE",
"371 706 LINE",
"291 706 LINE",
"195 818 LINE",
"262 818 LINE",
"329 750 LINE",
"333 750 LINE",
"400 818 LINE"
);
}
);
width = 600;
}
);
unicode = 01E6;
},
{
glyphname = Gcircumflex;
layers = (
{
layerId = "071E7A8C-CF57-4473-AB35-23A61C6027DA";
name = Regular;
paths = (
{
closed = 1;
nodes = (
"53 433 OFFCURVE",
"83 520 OFFCURVE",
"135 578 CURVE SMOOTH",
"186 636 OFFCURVE",
"259 668 OFFCURVE",
"344 668 CURVE SMOOTH",
"388 668 OFFCURVE",
"424 658 OFFCURVE",
"454 643 CURVE SMOOTH",
"484 627 OFFCURVE",
"506 608 OFFCURVE",
"525 588 CURVE",
"478 535 LINE",
"446 570 OFFCURVE",
"408 595 OFFCURVE",
"344 595 CURVE SMOOTH",
"283 595 OFFCURVE",
"232 570 OFFCURVE",
"196 524 CURVE SMOOTH",
"160 478 OFFCURVE",
"140 411 OFFCURVE",
"140 330 CURVE SMOOTH",
"140 247 OFFCURVE",
"159 181 OFFCURVE",
"193 134 CURVE SMOOTH",
"227 87 OFFCURVE",
"278 61 OFFCURVE",
"342 61 CURVE SMOOTH",
"389 61 OFFCURVE",
"431 76 OFFCURVE",
"456 100 CURVE",
"456 271 LINE",
"325 271 LINE",
"325 340 LINE",
"533 340 LINE",
"533 64 LINE",
"490 21 OFFCURVE",
"422 -12 OFFCURVE",
"337 -12 CURVE SMOOTH",
"254 -12 OFFCURVE",
"184 20 OFFCURVE",
"133 78 CURVE SMOOTH",
"82 136 OFFCURVE",
"53 221 OFFCURVE",
"53 328 CURVE SMOOTH"
);
},
{
closed = 1;
nodes = (
"195 706 LINE",
"291 818 LINE",
"371 818 LINE",
"467 706 LINE",
"400 706 LINE",
"333 774 LINE",
"329 774 LINE",
"262 706 LINE"
);
}
);
width = 600;
}
);
unicode = 011C;
},
{
glyphname = Gcommaaccent;
layers = (
{
layerId = "071E7A8C-CF57-4473-AB35-23A61C6027DA";
name = Regular;
paths = (
{
closed = 1;
nodes = (
"53 433 OFFCURVE",
"83 520 OFFCURVE",
"135 578 CURVE SMOOTH",
"186 636 OFFCURVE",
"259 668 OFFCURVE",
"344 668 CURVE SMOOTH",
"388 668 OFFCURVE",
"424 658 OFFCURVE",
"454 643 CURVE SMOOTH",
"484 627 OFFCURVE",
"506 608 OFFCURVE",
"525 588 CURVE",
"478 535 LINE",
"446 570 OFFCURVE",
"408 595 OFFCURVE",
"344 595 CURVE SMOOTH",
"283 595 OFFCURVE",
"232 570 OFFCURVE",
"196 524 CURVE SMOOTH",
"160 478 OFFCURVE",
"140 411 OFFCURVE",
"140 330 CURVE SMOOTH",
"140 247 OFFCURVE",
"159 181 OFFCURVE",
"193 134 CURVE SMOOTH",
"227 87 OFFCURVE",
"278 61 OFFCURVE",
"342 61 CURVE SMOOTH",
"389 61 OFFCURVE",
"431 76 OFFCURVE",
"456 100 CURVE",
"456 271 LINE",
"325 271 LINE",
"325 340 LINE",
"533 340 LINE",
"533 64 LINE",
"490 21 OFFCURVE",
"422 -12 OFFCURVE",
"337 -12 CURVE SMOOTH",
"254 -12 OFFCURVE",
"184 20 OFFCURVE",
"133 78 CURVE SMOOTH",
"82 136 OFFCURVE",
"53 221 OFFCURVE",
"53 328 CURVE SMOOTH"
);
},
{
closed = 1;
nodes = (
"374 -59 OFFCURVE",
"403 -80 OFFCURVE",
"403 -125 CURVE SMOOTH",
"403 -154 OFFCURVE",
"386 -175 OFFCURVE",
"359 -190 CURVE SMOOTH",
"332 -205 OFFCURVE",
"295 -213 OFFCURVE",
"258 -216 CURVE",
"250 -176 LINE",
"303 -169 OFFCURVE",
"339 -157 OFFCURVE",
"339 -130 CURVE SMOOTH",
"339 -103 OFFCURVE",
"316 -93 OFFCURVE",
"288 -86 CURVE",
"306 -48 LINE"
);
}
);
width = 600;
}
);
unicode = 0122;
},
{
glyphname = Gdotaccent;
layers = (
{
layerId = "071E7A8C-CF57-4473-AB35-23A61C6027DA";
name = Regular;
paths = (
{
closed = 1;
nodes = (
"53 433 OFFCURVE",
"83 520 OFFCURVE",
"135 578 CURVE SMOOTH",
"186 636 OFFCURVE",
"259 668 OFFCURVE",
"344 668 CURVE SMOOTH",
"388 668 OFFCURVE",
"424 658 OFFCURVE",
"454 643 CURVE SMOOTH",
"484 627 OFFCURVE",
"506 608 OFFCURVE",
"525 588 CURVE",
"478 535 LINE",
"446 570 OFFCURVE",
"408 595 OFFCURVE",
"344 595 CURVE SMOOTH",
"283 595 OFFCURVE",
"232 570 OFFCURVE",
"196 524 CURVE SMOOTH",
"160 478 OFFCURVE",
"140 411 OFFCURVE",
"140 330 CURVE SMOOTH",
"140 247 OFFCURVE",
"159 181 OFFCURVE",
"193 134 CURVE SMOOTH",
"227 87 OFFCURVE",
"278 61 OFFCURVE",
"342 61 CURVE SMOOTH",
"389 61 OFFCURVE",
"431 76 OFFCURVE",
"456 100 CURVE",
"456 271 LINE",
"325 271 LINE",
"325 340 LINE",
"533 340 LINE",
"533 64 LINE",
"490 21 OFFCURVE",
"422 -12 OFFCURVE",
"337 -12 CURVE SMOOTH",
"254 -12 OFFCURVE",
"184 20 OFFCURVE",
"133 78 CURVE SMOOTH",
"82 136 OFFCURVE",
"53 221 OFFCURVE",
"53 328 CURVE SMOOTH"
);
},
{
closed = 1;
nodes = (
"299 714 OFFCURVE",
"274 736 OFFCURVE",
"274 768 CURVE SMOOTH",
"274 799 OFFCURVE",
"299 821 OFFCURVE",
"331 821 CURVE SMOOTH",
"363 821 OFFCURVE",
"388 799 OFFCURVE",
"388 768 CURVE SMOOTH",
"388 736 OFFCURVE",
"363 714 OFFCURVE",
"331 714 CURVE SMOOTH"
);
}
);
width = 600;
}
);
unicode = 0120;
},
{
glyphname = Gmacron;
layers = (
{
layerId = "071E7A8C-CF57-4473-AB35-23A61C6027DA";
name = Regular;
paths = (
{
closed = 1;
nodes = (
"53 433 OFFCURVE",
"83 520 OFFCURVE",
"135 578 CURVE SMOOTH",
"186 636 OFFCURVE",
"259 668 OFFCURVE",
"344 668 CURVE SMOOTH",
"388 668 OFFCURVE",
"424 658 OFFCURVE",
"454 643 CURVE SMOOTH",
"484 627 OFFCURVE",
"506 608 OFFCURVE",
"525 588 CURVE",
"478 535 LINE",
"446 570 OFFCURVE",
"408 595 OFFCURVE",
"344 595 CURVE SMOOTH",
"283 595 OFFCURVE",
"232 570 OFFCURVE",
"196 524 CURVE SMOOTH",
"160 478 OFFCURVE",
"140 411 OFFCURVE",
"140 330 CURVE SMOOTH",
"140 247 OFFCURVE",
"159 181 OFFCURVE",
"193 134 CURVE SMOOTH",
"227 87 OFFCURVE",
"278 61 OFFCURVE",
"342 61 CURVE SMOOTH",
"389 61 OFFCURVE",
"431 76 OFFCURVE",
"456 100 CURVE",
"456 271 LINE",
"325 271 LINE",
"325 340 LINE",
"533 340 LINE",
"533 64 LINE",
"490 21 OFFCURVE",
"422 -12 OFFCURVE",
"337 -12 CURVE SMOOTH",
"254 -12 OFFCURVE",
"184 20 OFFCURVE",
"133 78 CURVE SMOOTH",
"82 136 OFFCURVE",
"53 221 OFFCURVE",
"53 328 CURVE SMOOTH"
);
},
{
closed = 1;
nodes = (
"207 786 LINE",
"455 786 LINE",
"455 729 LINE",
"207 729 LINE"
);
}
);
width = 600;
}
);
unicode = 1E20;
},
{
glyphname = H;
layers = (
{
layerId = "071E7A8C-CF57-4473-AB35-23A61C6027DA";
name = Regular;
paths = (
{
closed = 1;
nodes = (
"79 656 LINE",
"163 656 LINE",
"163 381 LINE",
"437 381 LINE",
"437 656 LINE",
"521 656 LINE",
"521 0 LINE",
"437 0 LINE",
"437 309 LINE",
"163 309 LINE",
"163 0 LINE",
"79 0 LINE"
);
}
);
width = 600;
}
);
unicode = 0048;
},
{
glyphname = Hbar;
layers = (
{
layerId = "071E7A8C-CF57-4473-AB35-23A61C6027DA";
name = Regular;
paths = (
{
closed = 1;
nodes = (
"437 492 LINE",
"163 492 LINE",
"163 381 LINE",
"437 381 LINE"
);
},
{
closed = 1;
nodes = (
"590 492 LINE",
"521 492 LINE",
"521 0 LINE",
"437 0 LINE",
"437 309 LINE",
"163 309 LINE",
"163 0 LINE",
"79 0 LINE",
"79 492 LINE",
"10 492 LINE",
"10 534 LINE",
"79 539 LINE",
"79 656 LINE",
"163 656 LINE",
"163 539 LINE",
"437 539 LINE",
"437 656 LINE",
"521 656 LINE",
"521 539 LINE",
"590 539 LINE"
);
}
);
width = 600;
}
);
unicode = 0126;
},
{
glyphname = Hbrevebelow;
layers = (
{
layerId = "071E7A8C-CF57-4473-AB35-23A61C6027DA";
name = Regular;
paths = (
{
closed = 1;
nodes = (
"79 656 LINE",
"163 656 LINE",
"163 381 LINE",
"437 381 LINE",
"437 656 LINE",
"521 656 LINE",
"521 0 LINE",
"437 0 LINE",
"437 309 LINE",
"163 309 LINE",
"163 0 LINE",
"79 0 LINE"
);
},
{
closed = 1;
nodes = (
"257 -206 OFFCURVE",
"226 -189 OFFCURVE",
"206 -164 CURVE SMOOTH",
"186 -140 OFFCURVE",
"175 -108 OFFCURVE",
"174 -79 CURVE",
"225 -79 LINE",
"230 -118 OFFCURVE",
"253 -155 OFFCURVE",
"300 -155 CURVE SMOOTH",
"347 -155 OFFCURVE",
"370 -118 OFFCURVE",
"375 -79 CURVE",
"426 -79 LINE",
"423 -108 OFFCURVE",
"414 -140 OFFCURVE",
"394 -164 CURVE SMOOTH",
"374 -189 OFFCURVE",
"343 -206 OFFCURVE",
"300 -206 CURVE SMOOTH"
);
}
);
width = 600;
}
);
unicode = 1E2A;
},
{
glyphname = Hcircumflex;
layers = (
{
layerId = "071E7A8C-CF57-4473-AB35-23A61C6027DA";
name = Regular;
paths = (
{
closed = 1;
nodes = (
"79 656 LINE",
"163 656 LINE",
"163 381 LINE",
"437 381 LINE",
"437 656 LINE",
"521 656 LINE",
"521 0 LINE",
"437 0 LINE",
"437 309 LINE",
"163 309 LINE",
"163 0 LINE",
"79 0 LINE"
);
},
{
closed = 1;
nodes = (
"164 706 LINE",
"260 818 LINE",
"340 818 LINE",
"436 706 LINE",
"369 706 LINE",
"302 774 LINE",
"298 774 LINE",
"231 706 LINE"
);
}
);
width = 600;
}
);
unicode = 0124;
},
{
glyphname = Hdotbelow;
layers = (
{
layerId = "071E7A8C-CF57-4473-AB35-23A61C6027DA";
name = Regular;
paths = (
{
closed = 1;
nodes = (
"79 656 LINE",
"163 656 LINE",
"163 381 LINE",
"437 381 LINE",
"437 656 LINE",
"521 656 LINE",
"521 0 LINE",
"437 0 LINE",
"437 309 LINE",
"163 309 LINE",
"163 0 LINE",
"79 0 LINE"
);
},
{
closed = 1;
nodes = (
"263 -226 OFFCURVE",
"234 -202 OFFCURVE",
"234 -163 CURVE SMOOTH",
"234 -124 OFFCURVE",
"263 -99 OFFCURVE",
"300 -99 CURVE SMOOTH",
"337 -99 OFFCURVE",
"366 -124 OFFCURVE",
"366 -163 CURVE SMOOTH",
"366 -202 OFFCURVE",
"337 -226 OFFCURVE",
"300 -226 CURVE SMOOTH"
);
}
);
width = 600;
}
);
unicode = 1E24;
},
{
glyphname = I;
layers = (
{
layerId = "071E7A8C-CF57-4473-AB35-23A61C6027DA";
name = Regular;
paths = (
{
closed = 1;
nodes = (
"95 71 LINE",
"258 71 LINE",
"258 586 LINE",
"95 586 LINE",
"95 656 LINE",
"505 656 LINE",
"505 586 LINE",
"342 586 LINE",
"342 71 LINE",
"505 71 LINE",
"505 0 LINE",
"95 0 LINE"
);
}
);
width = 600;
}
);
unicode = 0049;
},
{
glyphname = Iacute;
layers = (
{
layerId = "071E7A8C-CF57-4473-AB35-23A61C6027DA";
name = Regular;
paths = (
{
closed = 1;
nodes = (
"95 71 LINE",
"258 71 LINE",
"258 586 LINE",
"95 586 LINE",
"95 656 LINE",
"505 656 LINE",
"505 586 LINE",
"342 586 LINE",
"342 71 LINE",
"505 71 LINE",
"505 0 LINE",
"95 0 LINE"
);
},
{
closed = 1;
nodes = (
"318 706 LINE",
"249 706 LINE",
"337 818 LINE",
"431 818 LINE"
);
}
);
width = 600;
}
);
unicode = 00CD;
},
{
glyphname = Ibreve;
layers = (
{
layerId = "071E7A8C-CF57-4473-AB35-23A61C6027DA";
name = Regular;
paths = (
{
closed = 1;
nodes = (
"95 71 LINE",
"258 71 LINE",
"258 586 LINE",
"95 586 LINE",
"95 656 LINE",
"505 656 LINE",
"505 586 LINE",
"342 586 LINE",
"342 71 LINE",
"505 71 LINE",
"505 0 LINE",
"95 0 LINE"
);
},
{
closed = 1;
nodes = (
"260 708 OFFCURVE",
"231 722 OFFCURVE",
"211 742 CURVE SMOOTH",
"191 762 OFFCURVE",
"181 790 OFFCURVE",
"177 818 CURVE",
"227 818 LINE",
"234 786 OFFCURVE",
"255 755 OFFCURVE",
"300 755 CURVE SMOOTH",
"345 755 OFFCURVE",
"366 786 OFFCURVE",
"373 818 CURVE",
"423 818 LINE",
"419 790 OFFCURVE",
"409 762 OFFCURVE",
"389 742 CURVE SMOOTH",
"369 722 OFFCURVE",
"340 708 OFFCURVE",
"300 708 CURVE SMOOTH"
);
}
);
width = 600;
}
);
unicode = 012C;
},
{
glyphname = Icaron;
layers = (
{
layerId = "071E7A8C-CF57-4473-AB35-23A61C6027DA";
name = Regular;
paths = (
{
closed = 1;
nodes = (
"95 71 LINE",
"258 71 LINE",
"258 586 LINE",
"95 586 LINE",
"95 656 LINE",
"505 656 LINE",
"505 586 LINE",
"342 586 LINE",
"342 71 LINE",
"505 71 LINE",
"505 0 LINE",
"95 0 LINE"
);
},
{
closed = 1;
nodes = (
"436 818 LINE",
"340 706 LINE",
"260 706 LINE",
"164 818 LINE",
"231 818 LINE",
"298 750 LINE",
"302 750 LINE",
"369 818 LINE"
);
}
);
width = 600;
}
);
unicode = 01CF;
},
{
glyphname = Icircumflex;
layers = (
{
layerId = "071E7A8C-CF57-4473-AB35-23A61C6027DA";
name = Regular;
paths = (
{
closed = 1;
nodes = (
"95 71 LINE",
"258 71 LINE",
"258 586 LINE",
"95 586 LINE",
"95 656 LINE",
"505 656 LINE",
"505 586 LINE",
"342 586 LINE",
"342 71 LINE",
"505 71 LINE",
"505 0 LINE",
"95 0 LINE"
);
},
{
closed = 1;
nodes = (
"164 706 LINE",
"260 818 LINE",
"340 818 LINE",
"436 706 LINE",
"369 706 LINE",
"302 774 LINE",
"298 774 LINE",
"231 706 LINE"
);
}
);
width = 600;
}
);
unicode = 00CE;
},
{
glyphname = Idieresis;
layers = (
{
layerId = "071E7A8C-CF57-4473-AB35-23A61C6027DA";
name = Regular;
paths = (
{
closed = 1;
nodes = (
"95 71 LINE",
"258 71 LINE",
"258 586 LINE",
"95 586 LINE",
"95 656 LINE",
"505 656 LINE",
"505 586 LINE",
"342 586 LINE",
"342 71 LINE",
"505 71 LINE",
"505 0 LINE",
"95 0 LINE"
);
},
{
closed = 1;
nodes = (
"185 715 OFFCURVE",
"165 736 OFFCURVE",
"165 764 CURVE SMOOTH",
"165 793 OFFCURVE",
"185 813 OFFCURVE",
"214 813 CURVE SMOOTH",
"242 813 OFFCURVE",
"263 793 OFFCURVE",
"263 764 CURVE SMOOTH",
"263 736 OFFCURVE",
"242 715 OFFCURVE",
"214 715 CURVE SMOOTH"
);
},
{
closed = 1;
nodes = (
"358 715 OFFCURVE",
"337 736 OFFCURVE",
"337 764 CURVE SMOOTH",
"337 793 OFFCURVE",
"358 813 OFFCURVE",
"386 813 CURVE SMOOTH",
"415 813 OFFCURVE",
"435 793 OFFCURVE",
"435 764 CURVE SMOOTH",
"435 736 OFFCURVE",
"415 715 OFFCURVE",
"386 715 CURVE SMOOTH"
);
}
);
width = 600;
}
);
unicode = 00CF;
},
{
glyphname = Idotaccent;
layers = (
{
layerId = "071E7A8C-CF57-4473-AB35-23A61C6027DA";
name = Regular;
paths = (
{
closed = 1;
nodes = (
"95 71 LINE",
"258 71 LINE",
"258 586 LINE",
"95 586 LINE",
"95 656 LINE",
"505 656 LINE",
"505 586 LINE",
"342 586 LINE",
"342 71 LINE",
"505 71 LINE",
"505 0 LINE",
"95 0 LINE"
);
},
{
closed = 1;
nodes = (
"268 714 OFFCURVE",
"243 736 OFFCURVE",
"243 768 CURVE SMOOTH",
"243 799 OFFCURVE",
"268 821 OFFCURVE",
"300 821 CURVE SMOOTH",
"332 821 OFFCURVE",
"357 799 OFFCURVE",
"357 768 CURVE SMOOTH",
"357 736 OFFCURVE",
"332 714 OFFCURVE",
"300 714 CURVE SMOOTH"
);
}
);
width = 600;
}
);
unicode = 0130;
},
{
glyphname = Idotbelow;
layers = (
{
layerId = "071E7A8C-CF57-4473-AB35-23A61C6027DA";
name = Regular;
paths = (
{
closed = 1;
nodes = (
"95 71 LINE",
"258 71 LINE",
"258 586 LINE",
"95 586 LINE",
"95 656 LINE",
"505 656 LINE",
"505 586 LINE",
"342 586 LINE",
"342 71 LINE",
"505 71 LINE",
"505 0 LINE",
"95 0 LINE"
);
},
{
closed = 1;
nodes = (
"264 -226 OFFCURVE",
"235 -202 OFFCURVE",
"235 -163 CURVE SMOOTH",
"235 -124 OFFCURVE",
"264 -99 OFFCURVE",
"301 -99 CURVE SMOOTH",
"338 -99 OFFCURVE",
"367 -124 OFFCURVE",
"367 -163 CURVE SMOOTH",
"367 -202 OFFCURVE",
"338 -226 OFFCURVE",
"301 -226 CURVE SMOOTH"
);
}
);
width = 600;
}
);
unicode = 1ECA;
},
{
glyphname = Igrave;
layers = (
{
layerId = "071E7A8C-CF57-4473-AB35-23A61C6027DA";
name = Regular;
paths = (
{
closed = 1;
nodes = (
"95 71 LINE",
"258 71 LINE",
"258 586 LINE",
"95 586 LINE",
"95 656 LINE",
"505 656 LINE",
"505 586 LINE",
"342 586 LINE",
"342 71 LINE",
"505 71 LINE",
"505 0 LINE",
"95 0 LINE"
);
},
{
closed = 1;
nodes = (
"169 818 LINE",
"263 818 LINE",
"351 706 LINE",
"282 706 LINE"
);
}
);
width = 600;
}
);
unicode = 00CC;
},
{
glyphname = Ihookabove;
layers = (
{
layerId = "071E7A8C-CF57-4473-AB35-23A61C6027DA";
name = Regular;
paths = (
{
closed = 1;
nodes = (
"95 71 LINE",
"258 71 LINE",
"258 586 LINE",
"95 586 LINE",
"95 656 LINE",
"505 656 LINE",
"505 586 LINE",
"342 586 LINE",
"342 71 LINE",
"505 71 LINE",
"505 0 LINE",
"95 0 LINE"
);
},
{
closed = 1;
nodes = (
"263 736 LINE",
"295 745 OFFCURVE",
"319 757 OFFCURVE",
"319 782 CURVE SMOOTH",
"319 808 OFFCURVE",
"291 822 OFFCURVE",
"236 824 CURVE",
"245 872 LINE",
"333 869 OFFCURVE",
"383 842 OFFCURVE",
"383 791 CURVE SMOOTH",
"383 762 OFFCURVE",
"370 742 OFFCURVE",
"350 727 CURVE SMOOTH",
"329 711 OFFCURVE",
"301 703 OFFCURVE",
"272 698 CURVE"
);
}
);
width = 600;
}
);
unicode = 1EC8;
},
{
glyphname = Imacron;
layers = (
{
layerId = "071E7A8C-CF57-4473-AB35-23A61C6027DA";
name = Regular;
paths = (
{
closed = 1;
nodes = (
"95 71 LINE",
"258 71 LINE",
"258 586 LINE",
"95 586 LINE",
"95 656 LINE",
"505 656 LINE",
"505 586 LINE",
"342 586 LINE",
"342 71 LINE",
"505 71 LINE",
"505 0 LINE",
"95 0 LINE"
);
},
{
closed = 1;
nodes = (
"176 786 LINE",
"424 786 LINE",
"424 729 LINE",
"176 729 LINE"
);
}
);
width = 600;
}
);
unicode = 012A;
},
{
glyphname = Iogonek;
layers = (
{
layerId = "071E7A8C-CF57-4473-AB35-23A61C6027DA";
name = Regular;
paths = (
{
closed = 1;
nodes = (
"95 71 LINE",
"258 71 LINE",
"258 586 LINE",
"95 586 LINE",
"95 656 LINE",
"505 656 LINE",
"505 586 LINE",
"342 586 LINE",
"342 71 LINE",
"505 71 LINE",
"505 0 LINE",
"342 0 LINE",
"299 -32 OFFCURVE",
"276 -66 OFFCURVE",
"276 -107 CURVE SMOOTH",
"276 -138 OFFCURVE",
"300 -153 OFFCURVE",
"324 -153 CURVE SMOOTH",
"339 -153 OFFCURVE",
"353 -148 OFFCURVE",
"364 -139 CURVE",
"387 -184 LINE",
"368 -199 OFFCURVE",
"334 -212 OFFCURVE",
"307 -212 CURVE SMOOTH",
"254 -212 OFFCURVE",
"212 -182 OFFCURVE",
"212 -125 CURVE SMOOTH",
"212 -68 OFFCURVE",
"246 -29 OFFCURVE",
"278 0 CURVE",
"95 0 LINE"
);
}
);
width = 600;
}
);
unicode = 012E;
},
{
glyphname = Itilde;
layers = (
{
layerId = "071E7A8C-CF57-4473-AB35-23A61C6027DA";
name = Regular;
paths = (
{
closed = 1;
nodes = (
"95 71 LINE",
"258 71 LINE",
"258 586 LINE",
"95 586 LINE",
"95 656 LINE",
"505 656 LINE",
"505 586 LINE",
"342 586 LINE",
"342 71 LINE",
"505 71 LINE",
"505 0 LINE",
"95 0 LINE"
);
},
{
closed = 1;
nodes = (
"333 711 OFFCURVE",
"313 724 OFFCURVE",
"295 737 CURVE SMOOTH",
"277 750 OFFCURVE",
"260 763 OFFCURVE",
"241 763 CURVE SMOOTH",
"222 763 OFFCURVE",
"206 746 OFFCURVE",
"201 711 CURVE",
"155 711 LINE",
"162 774 OFFCURVE",
"192 819 OFFCURVE",
"240 819 CURVE SMOOTH",
"267 819 OFFCURVE",
"288 806 OFFCURVE",
"306 793 CURVE SMOOTH",
"324 780 OFFCURVE",
"340 767 OFFCURVE",
"359 767 CURVE SMOOTH",
"378 767 OFFCURVE",
"394 786 OFFCURVE",
"399 819 CURVE",
"445 819 LINE",
"438 758 OFFCURVE",
"408 711 OFFCURVE",
"360 711 CURVE SMOOTH"
);
}
);
width = 600;
}
);
unicode = 0128;
},
{
glyphname = J;
layers = (
{
layerId = "071E7A8C-CF57-4473-AB35-23A61C6027DA";
name = Regular;
paths = (
{
closed = 1;
nodes = (
"135 147 LINE",
"174 88 OFFCURVE",
"223 61 OFFCURVE",
"274 61 CURVE SMOOTH",
"369 61 OFFCURVE",
"410 109 OFFCURVE",
"410 217 CURVE SMOOTH",
"410 587 LINE",
"135 587 LINE",
"135 657 LINE",
"493 657 LINE",
"493 210 LINE SMOOTH",
"493 149 OFFCURVE",
"480 93 OFFCURVE",
"446 53 CURVE SMOOTH",
"412 13 OFFCURVE",
"357 -12 OFFCURVE",
"276 -12 CURVE SMOOTH",
"201 -12 OFFCURVE",
"126 21 OFFCURVE",
"81 97 CURVE"
);
}
);
width = 600;
}
);
unicode = 004A;
},
{
glyphname = Jcircumflex;
layers = (
{
layerId = "071E7A8C-CF57-4473-AB35-23A61C6027DA";
name = Regular;
paths = (
{
closed = 1;
nodes = (
"135 147 LINE",
"174 88 OFFCURVE",
"223 61 OFFCURVE",
"274 61 CURVE SMOOTH",
"369 61 OFFCURVE",
"410 109 OFFCURVE",
"410 217 CURVE SMOOTH",
"410 587 LINE",
"135 587 LINE",
"135 657 LINE",
"493 657 LINE",
"493 210 LINE SMOOTH",
"493 149 OFFCURVE",
"480 93 OFFCURVE",
"446 53 CURVE SMOOTH",
"412 13 OFFCURVE",
"357 -12 OFFCURVE",
"276 -12 CURVE SMOOTH",
"201 -12 OFFCURVE",
"126 21 OFFCURVE",
"81 97 CURVE"
);
},
{
closed = 1;
nodes = (
"185 706 LINE",
"281 818 LINE",
"361 818 LINE",
"457 706 LINE",
"390 706 LINE",
"323 774 LINE",
"319 774 LINE",
"252 706 LINE"
);
}
);
width = 600;
}
);
unicode = 0134;
},
{
glyphname = K;
layers = (
{
layerId = "071E7A8C-CF57-4473-AB35-23A61C6027DA";
name = Regular;
paths = (
{
closed = 1;
nodes = (
"98 656 LINE",
"182 656 LINE",
"182 327 LINE",
"185 327 LINE",
"461 656 LINE",
"555 656 LINE",
"348 406 LINE",
"579 0 LINE",
"486 0 LINE",
"296 341 LINE",
"182 208 LINE",
"182 0 LINE",
"98 0 LINE"
);
}
);
width = 600;
}
);
unicode = 004B;
},
{
glyphname = Kcommaaccent;
layers = (
{
layerId = "071E7A8C-CF57-4473-AB35-23A61C6027DA";
name = Regular;
paths = (
{
closed = 1;
nodes = (
"98 656 LINE",
"182 656 LINE",
"182 327 LINE",
"185 327 LINE",
"461 656 LINE",
"555 656 LINE",
"348 406 LINE",
"579 0 LINE",
"486 0 LINE",
"296 341 LINE",
"182 208 LINE",
"182 0 LINE",
"98 0 LINE"
);
},
{
closed = 1;
nodes = (
"377 -59 OFFCURVE",
"406 -80 OFFCURVE",
"406 -125 CURVE SMOOTH",
"406 -154 OFFCURVE",
"389 -175 OFFCURVE",
"362 -190 CURVE SMOOTH",
"335 -205 OFFCURVE",
"298 -213 OFFCURVE",
"261 -216 CURVE",
"253 -176 LINE",
"306 -169 OFFCURVE",
"342 -157 OFFCURVE",
"342 -130 CURVE SMOOTH",
"342 -103 OFFCURVE",
"319 -93 OFFCURVE",
"291 -86 CURVE",
"309 -48 LINE"
);
}
);
width = 600;
}
);
unicode = 0136;
},
{
glyphname = L;
layers = (
{
layerId = "071E7A8C-CF57-4473-AB35-23A61C6027DA";
name = Regular;
paths = (
{
closed = 1;
nodes = (
"134 656 LINE",
"216 656 LINE",
"216 71 LINE",
"541 71 LINE",
"541 0 LINE",
"134 0 LINE"
);
}
);
width = 600;
}
);
unicode = 004C;
},
{
glyphname = Lacute;
layers = (
{
layerId = "071E7A8C-CF57-4473-AB35-23A61C6027DA";
name = Regular;
paths = (
{
closed = 1;
nodes = (
"134 656 LINE",
"216 656 LINE",
"216 71 LINE",
"541 71 LINE",
"541 0 LINE",
"134 0 LINE"
);
},
{
closed = 1;
nodes = (
"209 706 LINE",
"140 706 LINE",
"228 818 LINE",
"322 818 LINE"
);
}
);
width = 600;
}
);
unicode = 0139;
},
{
glyphname = Lcaron;
layers = (
{
layerId = "071E7A8C-CF57-4473-AB35-23A61C6027DA";
name = Regular;
paths = (
{
closed = 1;
nodes = (
"134 656 LINE",
"216 656 LINE",
"216 71 LINE",
"541 71 LINE",
"541 0 LINE",
"134 0 LINE"
);
},
{
closed = 1;
nodes = (
"390 515 LINE",
"386 727 LINE",
"445 727 LINE",
"444 670 LINE",
"430 515 LINE"
);
}
);
width = 600;
}
);
unicode = 013D;
},
{
glyphname = Lcommaaccent;
layers = (
{
layerId = "071E7A8C-CF57-4473-AB35-23A61C6027DA";
name = Regular;
paths = (
{
closed = 1;
nodes = (
"134 656 LINE",
"216 656 LINE",
"216 71 LINE",
"541 71 LINE",
"541 0 LINE",
"134 0 LINE"
);
},
{
closed = 1;
nodes = (
"385 -59 OFFCURVE",
"414 -80 OFFCURVE",
"414 -125 CURVE SMOOTH",
"414 -154 OFFCURVE",
"397 -175 OFFCURVE",
"370 -190 CURVE SMOOTH",
"343 -205 OFFCURVE",
"306 -213 OFFCURVE",
"269 -216 CURVE",
"261 -176 LINE",
"314 -169 OFFCURVE",
"350 -157 OFFCURVE",
"350 -130 CURVE SMOOTH",
"350 -103 OFFCURVE",
"327 -93 OFFCURVE",
"299 -86 CURVE",
"317 -48 LINE"
);
}
);
width = 600;
}
);
unicode = 013B;
},
{
glyphname = Ldot;
layers = (
{
layerId = "071E7A8C-CF57-4473-AB35-23A61C6027DA";
name = Regular;
paths = (
{
closed = 1;
nodes = (
"134 656 LINE",
"216 656 LINE",
"216 71 LINE",
"541 71 LINE",
"541 0 LINE",
"134 0 LINE"
);
},
{
closed = 1;
nodes = (
"393 285 OFFCURVE",
"364 309 OFFCURVE",
"364 348 CURVE SMOOTH",
"364 387 OFFCURVE",
"393 412 OFFCURVE",
"430 412 CURVE SMOOTH",
"467 412 OFFCURVE",
"496 387 OFFCURVE",
"496 348 CURVE SMOOTH",
"496 309 OFFCURVE",
"467 285 OFFCURVE",
"430 285 CURVE SMOOTH"
);
}
);
width = 600;
}
);
unicode = 013F;
},
{
glyphname = Ldotbelow;
layers = (
{
layerId = "071E7A8C-CF57-4473-AB35-23A61C6027DA";
name = Regular;
paths = (
{
closed = 1;
nodes = (
"134 656 LINE",
"216 656 LINE",
"216 71 LINE",
"541 71 LINE",
"541 0 LINE",
"134 0 LINE"
);
},
{
closed = 1;
nodes = (
"309 -226 OFFCURVE",
"280 -202 OFFCURVE",
"280 -163 CURVE SMOOTH",
"280 -124 OFFCURVE",
"309 -99 OFFCURVE",
"346 -99 CURVE SMOOTH",
"383 -99 OFFCURVE",
"412 -124 OFFCURVE",
"412 -163 CURVE SMOOTH",
"412 -202 OFFCURVE",
"383 -226 OFFCURVE",
"346 -226 CURVE SMOOTH"
);
}
);
width = 600;
}
);
unicode = 1E36;
},
{
glyphname = Ldotbelowmacron;
layers = (
{
layerId = "071E7A8C-CF57-4473-AB35-23A61C6027DA";
name = Regular;
paths = (
{
closed = 1;
nodes = (
"134 656 LINE",
"216 656 LINE",
"216 71 LINE",
"541 71 LINE",
"541 0 LINE",
"134 0 LINE"
);
},
{
closed = 1;
nodes = (
"67 786 LINE",
"315 786 LINE",
"315 729 LINE",
"67 729 LINE"
);
},
{
closed = 1;
nodes = (
"309 -226 OFFCURVE",
"280 -202 OFFCURVE",
"280 -163 CURVE SMOOTH",
"280 -124 OFFCURVE",
"309 -99 OFFCURVE",
"346 -99 CURVE SMOOTH",
"383 -99 OFFCURVE",
"412 -124 OFFCURVE",
"412 -163 CURVE SMOOTH",
"412 -202 OFFCURVE",
"383 -226 OFFCURVE",
"346 -226 CURVE SMOOTH"
);
}
);
width = 600;
}
);
unicode = 1E38;
},
{
glyphname = Llinebelow;
layers = (
{
layerId = "071E7A8C-CF57-4473-AB35-23A61C6027DA";
name = Regular;
paths = (
{
closed = 1;
nodes = (
"134 656 LINE",
"216 656 LINE",
"216 71 LINE",
"541 71 LINE",
"541 0 LINE",
"134 0 LINE"
);
},
{
closed = 1;
nodes = (
"469 -171 LINE",
"222 -171 LINE",
"222 -113 LINE",
"469 -113 LINE"
);
}
);
width = 600;
}
);
unicode = 1E3A;
},
{
glyphname = Lslash;
layers = (
{
layerId = "071E7A8C-CF57-4473-AB35-23A61C6027DA";
name = Regular;
paths = (
{
closed = 1;
nodes = (
"541 71 LINE",
"541 0 LINE",
"134 0 LINE",
"134 227 LINE",
"53 184 LINE",
"53 251 LINE",
"134 295 LINE",
"134 656 LINE",
"216 656 LINE",
"216 335 LINE",
"442 455 LINE",
"442 387 LINE",
"216 267 LINE",
"216 71 LINE"
);
}
);
width = 600;
}
);
unicode = 0141;
},
{
glyphname = M;
layers = (
{
layerId = "071E7A8C-CF57-4473-AB35-23A61C6027DA";
name = Regular;
paths = (
{
closed = 1;
nodes = (
"81 656 LINE",
"173 656 LINE",
"266 377 LINE",
"299 271 LINE",
"303 271 LINE",
"335 377 LINE",
"427 656 LINE",
"519 656 LINE",
"519 0 LINE",
"448 0 LINE",
"448 369 LINE SMOOTH",
"448 396 OFFCURVE",
"450 434 OFFCURVE",
"452 471 CURVE SMOOTH",
"454 507 OFFCURVE",
"455 544 OFFCURVE",
"458 571 CURVE",
"455 571 LINE",
"412 431 LINE",
"322 178 LINE",
"277 178 LINE",
"187 431 LINE",
"143 571 LINE",
"140 571 LINE",
"141 558 OFFCURVE",
"142 542 OFFCURVE",
"143 525 CURVE SMOOTH",
"146 489 OFFCURVE",
"149 452 OFFCURVE",
"150 416 CURVE SMOOTH",
"151 398 OFFCURVE",
"151 382 OFFCURVE",
"151 369 CURVE SMOOTH",
"151 0 LINE",
"81 0 LINE"
);
}
);
width = 600;
}
);
unicode = 004D;
},
{
glyphname = Mdotbelow;
layers = (
{
layerId = "071E7A8C-CF57-4473-AB35-23A61C6027DA";
name = Regular;
paths = (
{
closed = 1;
nodes = (
"81 656 LINE",
"173 656 LINE",
"266 377 LINE",
"299 271 LINE",
"303 271 LINE",
"335 377 LINE",
"427 656 LINE",
"519 656 LINE",
"519 0 LINE",
"448 0 LINE",
"448 369 LINE SMOOTH",
"448 396 OFFCURVE",
"450 434 OFFCURVE",
"452 471 CURVE SMOOTH",
"454 507 OFFCURVE",
"455 544 OFFCURVE",
"458 571 CURVE",
"455 571 LINE",
"412 431 LINE",
"322 178 LINE",
"277 178 LINE",
"187 431 LINE",
"143 571 LINE",
"140 571 LINE",
"141 558 OFFCURVE",
"142 542 OFFCURVE",
"143 525 CURVE SMOOTH",
"146 489 OFFCURVE",
"149 452 OFFCURVE",
"150 416 CURVE SMOOTH",
"151 398 OFFCURVE",
"151 382 OFFCURVE",
"151 369 CURVE SMOOTH",
"151 0 LINE",
"81 0 LINE"
);
},
{
closed = 1;
nodes = (
"263 -226 OFFCURVE",
"234 -202 OFFCURVE",
"234 -163 CURVE SMOOTH",
"234 -124 OFFCURVE",
"263 -99 OFFCURVE",
"300 -99 CURVE SMOOTH",
"337 -99 OFFCURVE",
"366 -124 OFFCURVE",
"366 -163 CURVE SMOOTH",
"366 -202 OFFCURVE",
"337 -226 OFFCURVE",
"300 -226 CURVE SMOOTH"
);
}
);
width = 600;
}
);
unicode = 1E42;
},
{
glyphname = N;
layers = (
{
layerId = "071E7A8C-CF57-4473-AB35-23A61C6027DA";
name = Regular;
paths = (
{
closed = 1;
nodes = (
"83 656 LINE",
"168 656 LINE",
"381 242 LINE",
"447 108 LINE",
"449 108 LINE",
"448 141 OFFCURVE",
"446 175 OFFCURVE",
"443 211 CURVE SMOOTH",
"440 246 OFFCURVE",
"438 281 OFFCURVE",
"438 316 CURVE SMOOTH",
"438 656 LINE",
"517 656 LINE",
"517 0 LINE",
"432 0 LINE",
"219 414 LINE",
"153 548 LINE",
"151 548 LINE",
"152 514 OFFCURVE",
"155 480 OFFCURVE",
"158 446 CURVE SMOOTH",
"161 411 OFFCURVE",
"162 377 OFFCURVE",
"162 343 CURVE SMOOTH",
"162 0 LINE",
"83 0 LINE"
);
}
);
width = 600;
}
);
unicode = 004E;
},
{
glyphname = Nacute;
layers = (
{
layerId = "071E7A8C-CF57-4473-AB35-23A61C6027DA";
name = Regular;
paths = (
{
closed = 1;
nodes = (
"83 656 LINE",
"168 656 LINE",
"381 242 LINE",
"447 108 LINE",
"449 108 LINE",
"448 141 OFFCURVE",
"446 175 OFFCURVE",
"443 211 CURVE SMOOTH",
"440 246 OFFCURVE",
"438 281 OFFCURVE",
"438 316 CURVE SMOOTH",
"438 656 LINE",
"517 656 LINE",
"517 0 LINE",
"432 0 LINE",
"219 414 LINE",
"153 548 LINE",
"151 548 LINE",
"152 514 OFFCURVE",
"155 480 OFFCURVE",
"158 446 CURVE SMOOTH",
"161 411 OFFCURVE",
"162 377 OFFCURVE",
"162 343 CURVE SMOOTH",
"162 0 LINE",
"83 0 LINE"
);
},
{
closed = 1;
nodes = (
"324 706 LINE",
"255 706 LINE",
"343 818 LINE",
"437 818 LINE"
);
}
);
width = 600;
}
);
unicode = 0143;
},
{
glyphname = Ncaron;
layers = (
{
layerId = "071E7A8C-CF57-4473-AB35-23A61C6027DA";
name = Regular;
paths = (
{
closed = 1;
nodes = (
"83 656 LINE",
"168 656 LINE",
"381 242 LINE",
"447 108 LINE",
"449 108 LINE",
"448 141 OFFCURVE",
"446 175 OFFCURVE",
"443 211 CURVE SMOOTH",
"440 246 OFFCURVE",
"438 281 OFFCURVE",
"438 316 CURVE SMOOTH",
"438 656 LINE",
"517 656 LINE",
"517 0 LINE",
"432 0 LINE",
"219 414 LINE",
"153 548 LINE",
"151 548 LINE",
"152 514 OFFCURVE",
"155 480 OFFCURVE",
"158 446 CURVE SMOOTH",
"161 411 OFFCURVE",
"162 377 OFFCURVE",
"162 343 CURVE SMOOTH",
"162 0 LINE",
"83 0 LINE"
);
},
{
closed = 1;
nodes = (
"442 818 LINE",
"346 706 LINE",
"266 706 LINE",
"170 818 LINE",
"237 818 LINE",
"304 750 LINE",
"308 750 LINE",
"375 818 LINE"
);
}
);
width = 600;
}
);
unicode = 0147;
},
{
glyphname = Ncommaaccent;
layers = (
{
layerId = "071E7A8C-CF57-4473-AB35-23A61C6027DA";
name = Regular;
paths = (
{
closed = 1;
nodes = (
"83 656 LINE",
"168 656 LINE",
"381 242 LINE",
"447 108 LINE",
"449 108 LINE",
"448 141 OFFCURVE",
"446 175 OFFCURVE",
"443 211 CURVE SMOOTH",
"440 246 OFFCURVE",
"438 281 OFFCURVE",
"438 316 CURVE SMOOTH",
"438 656 LINE",
"517 656 LINE",
"517 0 LINE",
"432 0 LINE",
"219 414 LINE",
"153 548 LINE",
"151 548 LINE",
"152 514 OFFCURVE",
"155 480 OFFCURVE",
"158 446 CURVE SMOOTH",
"161 411 OFFCURVE",
"162 377 OFFCURVE",
"162 343 CURVE SMOOTH",
"162 0 LINE",
"83 0 LINE"
);
},
{
closed = 1;
nodes = (
"339 -59 OFFCURVE",
"368 -80 OFFCURVE",
"368 -125 CURVE SMOOTH",
"368 -154 OFFCURVE",
"351 -175 OFFCURVE",
"324 -190 CURVE SMOOTH",
"297 -205 OFFCURVE",
"260 -213 OFFCURVE",
"223 -216 CURVE",
"215 -176 LINE",
"268 -169 OFFCURVE",
"304 -157 OFFCURVE",
"304 -130 CURVE SMOOTH",
"304 -103 OFFCURVE",
"281 -93 OFFCURVE",
"253 -86 CURVE",
"271 -48 LINE"
);
}
);
width = 600;
}
);
unicode = 0145;
},
{
glyphname = Ndotaccent;
layers = (
{
layerId = "071E7A8C-CF57-4473-AB35-23A61C6027DA";
name = Regular;
paths = (
{
closed = 1;
nodes = (
"83 656 LINE",
"168 656 LINE",
"381 242 LINE",
"447 108 LINE",
"449 108 LINE",
"448 141 OFFCURVE",
"446 175 OFFCURVE",
"443 211 CURVE SMOOTH",
"440 246 OFFCURVE",
"438 281 OFFCURVE",
"438 316 CURVE SMOOTH",
"438 656 LINE",
"517 656 LINE",
"517 0 LINE",
"432 0 LINE",
"219 414 LINE",
"153 548 LINE",
"151 548 LINE",
"152 514 OFFCURVE",
"155 480 OFFCURVE",
"158 446 CURVE SMOOTH",
"161 411 OFFCURVE",
"162 377 OFFCURVE",
"162 343 CURVE SMOOTH",
"162 0 LINE",
"83 0 LINE"
);
},
{
closed = 1;
nodes = (
"274 714 OFFCURVE",
"249 736 OFFCURVE",
"249 768 CURVE SMOOTH",
"249 799 OFFCURVE",
"274 821 OFFCURVE",
"306 821 CURVE SMOOTH",
"338 821 OFFCURVE",
"363 799 OFFCURVE",
"363 768 CURVE SMOOTH",
"363 736 OFFCURVE",
"338 714 OFFCURVE",
"306 714 CURVE SMOOTH"
);
}
);
width = 600;
}
);
unicode = 1E44;
},
{
glyphname = Ndotbelow;
layers = (
{
layerId = "071E7A8C-CF57-4473-AB35-23A61C6027DA";
name = Regular;
paths = (
{
closed = 1;
nodes = (
"83 656 LINE",
"168 656 LINE",
"381 242 LINE",
"447 108 LINE",
"449 108 LINE",
"448 141 OFFCURVE",
"446 175 OFFCURVE",
"443 211 CURVE SMOOTH",
"440 246 OFFCURVE",
"438 281 OFFCURVE",
"438 316 CURVE SMOOTH",
"438 656 LINE",
"517 656 LINE",
"517 0 LINE",
"432 0 LINE",
"219 414 LINE",
"153 548 LINE",
"151 548 LINE",
"152 514 OFFCURVE",
"155 480 OFFCURVE",
"158 446 CURVE SMOOTH",
"161 411 OFFCURVE",
"162 377 OFFCURVE",
"162 343 CURVE SMOOTH",
"162 0 LINE",
"83 0 LINE"
);
},
{
closed = 1;
nodes = (
"263 -226 OFFCURVE",
"234 -202 OFFCURVE",
"234 -163 CURVE SMOOTH",
"234 -124 OFFCURVE",
"263 -99 OFFCURVE",
"300 -99 CURVE SMOOTH",
"337 -99 OFFCURVE",
"366 -124 OFFCURVE",
"366 -163 CURVE SMOOTH",
"366 -202 OFFCURVE",
"337 -226 OFFCURVE",
"300 -226 CURVE SMOOTH"
);
}
);
width = 600;
}
);
unicode = 1E46;
},
{
glyphname = Nlinebelow;
layers = (
{
layerId = "071E7A8C-CF57-4473-AB35-23A61C6027DA";
name = Regular;
paths = (
{
closed = 1;
nodes = (
"83 656 LINE",
"168 656 LINE",
"381 242 LINE",
"447 108 LINE",
"449 108 LINE",
"448 141 OFFCURVE",
"446 175 OFFCURVE",
"443 211 CURVE SMOOTH",
"440 246 OFFCURVE",
"438 281 OFFCURVE",
"438 316 CURVE SMOOTH",
"438 656 LINE",
"517 656 LINE",
"517 0 LINE",
"432 0 LINE",
"219 414 LINE",
"153 548 LINE",
"151 548 LINE",
"152 514 OFFCURVE",
"155 480 OFFCURVE",
"158 446 CURVE SMOOTH",
"161 411 OFFCURVE",
"162 377 OFFCURVE",
"162 343 CURVE SMOOTH",
"162 0 LINE",
"83 0 LINE"
);
},
{
closed = 1;
nodes = (
"423 -171 LINE",
"176 -171 LINE",
"176 -113 LINE",
"423 -113 LINE"
);
}
);
width = 600;
}
);
unicode = 1E48;
},
{
glyphname = Ntilde;
layers = (
{
layerId = "071E7A8C-CF57-4473-AB35-23A61C6027DA";
name = Regular;
paths = (
{
closed = 1;
nodes = (
"83 656 LINE",
"168 656 LINE",
"381 242 LINE",
"447 108 LINE",
"449 108 LINE",
"448 141 OFFCURVE",
"446 175 OFFCURVE",
"443 211 CURVE SMOOTH",
"440 246 OFFCURVE",
"438 281 OFFCURVE",
"438 316 CURVE SMOOTH",
"438 656 LINE",
"517 656 LINE",
"517 0 LINE",
"432 0 LINE",
"219 414 LINE",
"153 548 LINE",
"151 548 LINE",
"152 514 OFFCURVE",
"155 480 OFFCURVE",
"158 446 CURVE SMOOTH",
"161 411 OFFCURVE",
"162 377 OFFCURVE",
"162 343 CURVE SMOOTH",
"162 0 LINE",
"83 0 LINE"
);
},
{
closed = 1;
nodes = (
"339 711 OFFCURVE",
"319 724 OFFCURVE",
"301 737 CURVE SMOOTH",
"283 750 OFFCURVE",
"266 763 OFFCURVE",
"247 763 CURVE SMOOTH",
"228 763 OFFCURVE",
"212 746 OFFCURVE",
"207 711 CURVE",
"161 711 LINE",
"168 774 OFFCURVE",
"198 819 OFFCURVE",
"246 819 CURVE SMOOTH",
"273 819 OFFCURVE",
"294 806 OFFCURVE",
"312 793 CURVE SMOOTH",
"330 780 OFFCURVE",
"346 767 OFFCURVE",
"365 767 CURVE SMOOTH",
"384 767 OFFCURVE",
"400 786 OFFCURVE",
"405 819 CURVE",
"451 819 LINE",
"444 758 OFFCURVE",
"414 711 OFFCURVE",
"366 711 CURVE SMOOTH"
);
}
);
width = 600;
}
);
unicode = 00D1;
},
{
glyphname = O;
layers = (
{
layerId = "071E7A8C-CF57-4473-AB35-23A61C6027DA";
name = Regular;
paths = (
{
closed = 1;
nodes = (
"225 -12 OFFCURVE",
"163 21 OFFCURVE",
"119 81 CURVE SMOOTH",
"74 140 OFFCURVE",
"48 226 OFFCURVE",
"48 331 CURVE SMOOTH",
"48 436 OFFCURVE",
"74 521 OFFCURVE",
"119 579 CURVE SMOOTH",
"163 637 OFFCURVE",
"225 668 OFFCURVE",
"300 668 CURVE SMOOTH",
"373 668 OFFCURVE",
"437 636 OFFCURVE",
"482 578 CURVE SMOOTH",
"526 520 OFFCURVE",
"552 435 OFFCURVE",
"552 331 CURVE SMOOTH",
"552 226 OFFCURVE",
"526 140 OFFCURVE",
"482 81 CURVE SMOOTH",
"437 21 OFFCURVE",
"373 -12 OFFCURVE",
"300 -12 CURVE SMOOTH"
);
},
{
closed = 1;
nodes = (
"349 61 OFFCURVE",
"392 87 OFFCURVE",
"421 135 CURVE SMOOTH",
"449 182 OFFCURVE",
"466 248 OFFCURVE",
"466 331 CURVE SMOOTH",
"466 412 OFFCURVE",
"449 479 OFFCURVE",
"421 524 CURVE SMOOTH",
"392 569 OFFCURVE",
"349 595 OFFCURVE",
"300 595 CURVE SMOOTH",
"249 595 OFFCURVE",
"208 569 OFFCURVE",
"180 524 CURVE SMOOTH",
"151 479 OFFCURVE",
"134 412 OFFCURVE",
"134 331 CURVE SMOOTH",
"134 248 OFFCURVE",
"151 182 OFFCURVE",
"180 135 CURVE SMOOTH",
"208 87 OFFCURVE",
"249 61 OFFCURVE",
"300 61 CURVE SMOOTH"
);
}
);
width = 600;
}
);
unicode = 004F;
},
{
glyphname = Oacute;
layers = (
{
layerId = "071E7A8C-CF57-4473-AB35-23A61C6027DA";
name = Regular;
paths = (
{
closed = 1;
nodes = (
"225 -12 OFFCURVE",
"163 21 OFFCURVE",
"119 81 CURVE SMOOTH",
"74 140 OFFCURVE",
"48 226 OFFCURVE",
"48 331 CURVE SMOOTH",
"48 436 OFFCURVE",
"74 521 OFFCURVE",
"119 579 CURVE SMOOTH",
"163 637 OFFCURVE",
"225 668 OFFCURVE",
"300 668 CURVE SMOOTH",
"373 668 OFFCURVE",
"437 636 OFFCURVE",
"482 578 CURVE SMOOTH",
"526 520 OFFCURVE",
"552 435 OFFCURVE",
"552 331 CURVE SMOOTH",
"552 226 OFFCURVE",
"526 140 OFFCURVE",
"482 81 CURVE SMOOTH",
"437 21 OFFCURVE",
"373 -12 OFFCURVE",
"300 -12 CURVE SMOOTH"
);
},
{
closed = 1;
nodes = (
"349 61 OFFCURVE",
"392 87 OFFCURVE",
"421 135 CURVE SMOOTH",
"449 182 OFFCURVE",
"466 248 OFFCURVE",
"466 331 CURVE SMOOTH",
"466 412 OFFCURVE",
"449 479 OFFCURVE",
"421 524 CURVE SMOOTH",
"392 569 OFFCURVE",
"349 595 OFFCURVE",
"300 595 CURVE SMOOTH",
"249 595 OFFCURVE",
"208 569 OFFCURVE",
"180 524 CURVE SMOOTH",
"151 479 OFFCURVE",
"134 412 OFFCURVE",
"134 331 CURVE SMOOTH",
"134 248 OFFCURVE",
"151 182 OFFCURVE",
"180 135 CURVE SMOOTH",
"208 87 OFFCURVE",
"249 61 OFFCURVE",
"300 61 CURVE SMOOTH"
);
},
{
closed = 1;
nodes = (
"318 706 LINE",
"249 706 LINE",
"337 818 LINE",
"431 818 LINE"
);
}
);
width = 600;
}
);
unicode = 00D3;
},
{
glyphname = Obreve;
layers = (
{
layerId = "071E7A8C-CF57-4473-AB35-23A61C6027DA";
name = Regular;
paths = (
{
closed = 1;
nodes = (
"225 -12 OFFCURVE",
"163 21 OFFCURVE",
"119 81 CURVE SMOOTH",
"74 140 OFFCURVE",
"48 226 OFFCURVE",
"48 331 CURVE SMOOTH",
"48 436 OFFCURVE",
"74 521 OFFCURVE",
"119 579 CURVE SMOOTH",
"163 637 OFFCURVE",
"225 668 OFFCURVE",
"300 668 CURVE SMOOTH",
"373 668 OFFCURVE",
"437 636 OFFCURVE",
"482 578 CURVE SMOOTH",
"526 520 OFFCURVE",
"552 435 OFFCURVE",
"552 331 CURVE SMOOTH",
"552 226 OFFCURVE",
"526 140 OFFCURVE",
"482 81 CURVE SMOOTH",
"437 21 OFFCURVE",
"373 -12 OFFCURVE",
"300 -12 CURVE SMOOTH"
);
},
{
closed = 1;
nodes = (
"349 61 OFFCURVE",
"392 87 OFFCURVE",
"421 135 CURVE SMOOTH",
"449 182 OFFCURVE",
"466 248 OFFCURVE",
"466 331 CURVE SMOOTH",
"466 412 OFFCURVE",
"449 479 OFFCURVE",
"421 524 CURVE SMOOTH",
"392 569 OFFCURVE",
"349 595 OFFCURVE",
"300 595 CURVE SMOOTH",
"249 595 OFFCURVE",
"208 569 OFFCURVE",
"180 524 CURVE SMOOTH",
"151 479 OFFCURVE",
"134 412 OFFCURVE",
"134 331 CURVE SMOOTH",
"134 248 OFFCURVE",
"151 182 OFFCURVE",
"180 135 CURVE SMOOTH",
"208 87 OFFCURVE",
"249 61 OFFCURVE",
"300 61 CURVE SMOOTH"
);
},
{
closed = 1;
nodes = (
"260 708 OFFCURVE",
"231 722 OFFCURVE",
"211 742 CURVE SMOOTH",
"191 762 OFFCURVE",
"181 790 OFFCURVE",
"177 818 CURVE",
"227 818 LINE",
"234 786 OFFCURVE",
"255 755 OFFCURVE",
"300 755 CURVE SMOOTH",
"345 755 OFFCURVE",
"366 786 OFFCURVE",
"373 818 CURVE",
"423 818 LINE",
"419 790 OFFCURVE",
"409 762 OFFCURVE",
"389 742 CURVE SMOOTH",
"369 722 OFFCURVE",
"340 708 OFFCURVE",
"300 708 CURVE SMOOTH"
);
}
);
width = 600;
}
);
unicode = 014E;
},
{
glyphname = Ocaron;
layers = (
{
layerId = "071E7A8C-CF57-4473-AB35-23A61C6027DA";
name = Regular;
paths = (
{
closed = 1;
nodes = (
"225 -12 OFFCURVE",
"163 21 OFFCURVE",
"119 81 CURVE SMOOTH",
"74 140 OFFCURVE",
"48 226 OFFCURVE",
"48 331 CURVE SMOOTH",
"48 436 OFFCURVE",
"74 521 OFFCURVE",
"119 579 CURVE SMOOTH",
"163 637 OFFCURVE",
"225 668 OFFCURVE",
"300 668 CURVE SMOOTH",
"373 668 OFFCURVE",
"437 636 OFFCURVE",
"482 578 CURVE SMOOTH",
"526 520 OFFCURVE",
"552 435 OFFCURVE",
"552 331 CURVE SMOOTH",
"552 226 OFFCURVE",
"526 140 OFFCURVE",
"482 81 CURVE SMOOTH",
"437 21 OFFCURVE",
"373 -12 OFFCURVE",
"300 -12 CURVE SMOOTH"
);
},
{
closed = 1;
nodes = (
"349 61 OFFCURVE",
"392 87 OFFCURVE",
"421 135 CURVE SMOOTH",
"449 182 OFFCURVE",
"466 248 OFFCURVE",
"466 331 CURVE SMOOTH",
"466 412 OFFCURVE",
"449 479 OFFCURVE",
"421 524 CURVE SMOOTH",
"392 569 OFFCURVE",
"349 595 OFFCURVE",
"300 595 CURVE SMOOTH",
"249 595 OFFCURVE",
"208 569 OFFCURVE",
"180 524 CURVE SMOOTH",
"151 479 OFFCURVE",
"134 412 OFFCURVE",
"134 331 CURVE SMOOTH",
"134 248 OFFCURVE",
"151 182 OFFCURVE",
"180 135 CURVE SMOOTH",
"208 87 OFFCURVE",
"249 61 OFFCURVE",
"300 61 CURVE SMOOTH"
);
},
{
closed = 1;
nodes = (
"436 818 LINE",
"340 706 LINE",
"260 706 LINE",
"164 818 LINE",
"231 818 LINE",
"298 750 LINE",
"302 750 LINE",
"369 818 LINE"
);
}
);
width = 600;
}
);
unicode = 01D1;
},
{
glyphname = Ocircumflex;
layers = (
{
layerId = "071E7A8C-CF57-4473-AB35-23A61C6027DA";
name = Regular;
paths = (
{
closed = 1;
nodes = (
"225 -12 OFFCURVE",
"163 21 OFFCURVE",
"119 81 CURVE SMOOTH",
"74 140 OFFCURVE",
"48 226 OFFCURVE",
"48 331 CURVE SMOOTH",
"48 436 OFFCURVE",
"74 521 OFFCURVE",
"119 579 CURVE SMOOTH",
"163 637 OFFCURVE",
"225 668 OFFCURVE",
"300 668 CURVE SMOOTH",
"373 668 OFFCURVE",
"437 636 OFFCURVE",
"482 578 CURVE SMOOTH",
"526 520 OFFCURVE",
"552 435 OFFCURVE",
"552 331 CURVE SMOOTH",
"552 226 OFFCURVE",
"526 140 OFFCURVE",
"482 81 CURVE SMOOTH",
"437 21 OFFCURVE",
"373 -12 OFFCURVE",
"300 -12 CURVE SMOOTH"
);
},
{
closed = 1;
nodes = (
"349 61 OFFCURVE",
"392 87 OFFCURVE",
"421 135 CURVE SMOOTH",
"449 182 OFFCURVE",
"466 248 OFFCURVE",
"466 331 CURVE SMOOTH",
"466 412 OFFCURVE",
"449 479 OFFCURVE",
"421 524 CURVE SMOOTH",
"392 569 OFFCURVE",
"349 595 OFFCURVE",
"300 595 CURVE SMOOTH",
"249 595 OFFCURVE",
"208 569 OFFCURVE",
"180 524 CURVE SMOOTH",
"151 479 OFFCURVE",
"134 412 OFFCURVE",
"134 331 CURVE SMOOTH",
"134 248 OFFCURVE",
"151 182 OFFCURVE",
"180 135 CURVE SMOOTH",
"208 87 OFFCURVE",
"249 61 OFFCURVE",
"300 61 CURVE SMOOTH"
);
},
{
closed = 1;
nodes = (
"164 706 LINE",
"260 818 LINE",
"340 818 LINE",
"436 706 LINE",
"369 706 LINE",
"302 774 LINE",
"298 774 LINE",
"231 706 LINE"
);
}
);
width = 600;
}
);
unicode = 00D4;
},
{
glyphname = Ocircumflexacute;
layers = (
{
layerId = "071E7A8C-CF57-4473-AB35-23A61C6027DA";
name = Regular;
paths = (
{
closed = 1;
nodes = (
"225 -12 OFFCURVE",
"163 21 OFFCURVE",
"119 81 CURVE SMOOTH",
"74 140 OFFCURVE",
"48 226 OFFCURVE",
"48 331 CURVE SMOOTH",
"48 436 OFFCURVE",
"74 521 OFFCURVE",
"119 579 CURVE SMOOTH",
"163 637 OFFCURVE",
"225 668 OFFCURVE",
"300 668 CURVE SMOOTH",
"373 668 OFFCURVE",
"437 636 OFFCURVE",
"482 578 CURVE SMOOTH",
"526 520 OFFCURVE",
"552 435 OFFCURVE",
"552 331 CURVE SMOOTH",
"552 226 OFFCURVE",
"526 140 OFFCURVE",
"482 81 CURVE SMOOTH",
"437 21 OFFCURVE",
"373 -12 OFFCURVE",
"300 -12 CURVE SMOOTH"
);
},
{
closed = 1;
nodes = (
"349 61 OFFCURVE",
"392 87 OFFCURVE",
"421 135 CURVE SMOOTH",
"449 182 OFFCURVE",
"466 248 OFFCURVE",
"466 331 CURVE SMOOTH",
"466 412 OFFCURVE",
"449 479 OFFCURVE",
"421 524 CURVE SMOOTH",
"392 569 OFFCURVE",
"349 595 OFFCURVE",
"300 595 CURVE SMOOTH",
"249 595 OFFCURVE",
"208 569 OFFCURVE",
"180 524 CURVE SMOOTH",
"151 479 OFFCURVE",
"134 412 OFFCURVE",
"134 331 CURVE SMOOTH",
"134 248 OFFCURVE",
"151 182 OFFCURVE",
"180 135 CURVE SMOOTH",
"208 87 OFFCURVE",
"249 61 OFFCURVE",
"300 61 CURVE SMOOTH"
);
},
{
closed = 1;
nodes = (
"462 881 LINE",
"534 881 LINE",
"443 770 LINE",
"391 770 LINE"
);
},
{
closed = 1;
nodes = (
"264 812 LINE",
"336 812 LINE",
"428 706 LINE",
"365 706 LINE",
"302 768 LINE",
"298 768 LINE",
"235 706 LINE",
"172 706 LINE"
);
}
);
width = 600;
}
);
unicode = 1ED0;
},
{
glyphname = Ocircumflexdotbelow;
layers = (
{
layerId = "071E7A8C-CF57-4473-AB35-23A61C6027DA";
name = Regular;
paths = (
{
closed = 1;
nodes = (
"225 -12 OFFCURVE",
"163 21 OFFCURVE",
"119 81 CURVE SMOOTH",
"74 140 OFFCURVE",
"48 226 OFFCURVE",
"48 331 CURVE SMOOTH",
"48 436 OFFCURVE",
"74 521 OFFCURVE",
"119 579 CURVE SMOOTH",
"163 637 OFFCURVE",
"225 668 OFFCURVE",
"300 668 CURVE SMOOTH",
"373 668 OFFCURVE",
"437 636 OFFCURVE",
"482 578 CURVE SMOOTH",
"526 520 OFFCURVE",
"552 435 OFFCURVE",
"552 331 CURVE SMOOTH",
"552 226 OFFCURVE",
"526 140 OFFCURVE",
"482 81 CURVE SMOOTH",
"437 21 OFFCURVE",
"373 -12 OFFCURVE",
"300 -12 CURVE SMOOTH"
);
},
{
closed = 1;
nodes = (
"349 61 OFFCURVE",
"392 87 OFFCURVE",
"421 135 CURVE SMOOTH",
"449 182 OFFCURVE",
"466 248 OFFCURVE",
"466 331 CURVE SMOOTH",
"466 412 OFFCURVE",
"449 479 OFFCURVE",
"421 524 CURVE SMOOTH",
"392 569 OFFCURVE",
"349 595 OFFCURVE",
"300 595 CURVE SMOOTH",
"249 595 OFFCURVE",
"208 569 OFFCURVE",
"180 524 CURVE SMOOTH",
"151 479 OFFCURVE",
"134 412 OFFCURVE",
"134 331 CURVE SMOOTH",
"134 248 OFFCURVE",
"151 182 OFFCURVE",
"180 135 CURVE SMOOTH",
"208 87 OFFCURVE",
"249 61 OFFCURVE",
"300 61 CURVE SMOOTH"
);
},
{
closed = 1;
nodes = (
"164 706 LINE",
"260 818 LINE",
"340 818 LINE",
"436 706 LINE",
"369 706 LINE",
"302 774 LINE",
"298 774 LINE",
"231 706 LINE"
);
},
{
closed = 1;
nodes = (
"263 -226 OFFCURVE",
"234 -202 OFFCURVE",
"234 -163 CURVE SMOOTH",
"234 -124 OFFCURVE",
"263 -99 OFFCURVE",
"300 -99 CURVE SMOOTH",
"337 -99 OFFCURVE",
"366 -124 OFFCURVE",
"366 -163 CURVE SMOOTH",
"366 -202 OFFCURVE",
"337 -226 OFFCURVE",
"300 -226 CURVE SMOOTH"
);
}
);
width = 600;
}
);
unicode = 1ED8;
},
{
glyphname = Ocircumflexgrave;
layers = (
{
layerId = "071E7A8C-CF57-4473-AB35-23A61C6027DA";
name = Regular;
paths = (
{
closed = 1;
nodes = (
"225 -12 OFFCURVE",
"163 21 OFFCURVE",
"119 81 CURVE SMOOTH",
"74 140 OFFCURVE",
"48 226 OFFCURVE",
"48 331 CURVE SMOOTH",
"48 436 OFFCURVE",
"74 521 OFFCURVE",
"119 579 CURVE SMOOTH",
"163 637 OFFCURVE",
"225 668 OFFCURVE",
"300 668 CURVE SMOOTH",
"373 668 OFFCURVE",
"437 636 OFFCURVE",
"482 578 CURVE SMOOTH",
"526 520 OFFCURVE",
"552 435 OFFCURVE",
"552 331 CURVE SMOOTH",
"552 226 OFFCURVE",
"526 140 OFFCURVE",
"482 81 CURVE SMOOTH",
"437 21 OFFCURVE",
"373 -12 OFFCURVE",
"300 -12 CURVE SMOOTH"
);
},
{
closed = 1;
nodes = (
"349 61 OFFCURVE",
"392 87 OFFCURVE",
"421 135 CURVE SMOOTH",
"449 182 OFFCURVE",
"466 248 OFFCURVE",
"466 331 CURVE SMOOTH",
"466 412 OFFCURVE",
"449 479 OFFCURVE",
"421 524 CURVE SMOOTH",
"392 569 OFFCURVE",
"349 595 OFFCURVE",
"300 595 CURVE SMOOTH",
"249 595 OFFCURVE",
"208 569 OFFCURVE",
"180 524 CURVE SMOOTH",
"151 479 OFFCURVE",
"134 412 OFFCURVE",
"134 331 CURVE SMOOTH",
"134 248 OFFCURVE",
"151 182 OFFCURVE",
"180 135 CURVE SMOOTH",
"208 87 OFFCURVE",
"249 61 OFFCURVE",
"300 61 CURVE SMOOTH"
);
},
{
closed = 1;
nodes = (
"484 770 LINE",
"432 770 LINE",
"341 881 LINE",
"413 881 LINE"
);
},
{
closed = 1;
nodes = (
"264 812 LINE",
"336 812 LINE",
"428 706 LINE",
"365 706 LINE",
"302 768 LINE",
"298 768 LINE",
"235 706 LINE",
"172 706 LINE"
);
}
);
width = 600;
}
);
unicode = 1ED2;
},
{
glyphname = Ocircumflexhookabove;
layers = (
{
layerId = "071E7A8C-CF57-4473-AB35-23A61C6027DA";
name = Regular;
paths = (
{
closed = 1;
nodes = (
"225 -12 OFFCURVE",
"163 21 OFFCURVE",
"119 81 CURVE SMOOTH",
"74 140 OFFCURVE",
"48 226 OFFCURVE",
"48 331 CURVE SMOOTH",
"48 436 OFFCURVE",
"74 521 OFFCURVE",
"119 579 CURVE SMOOTH",
"163 637 OFFCURVE",
"225 668 OFFCURVE",
"300 668 CURVE SMOOTH",
"373 668 OFFCURVE",
"437 636 OFFCURVE",
"482 578 CURVE SMOOTH",
"526 520 OFFCURVE",
"552 435 OFFCURVE",
"552 331 CURVE SMOOTH",
"552 226 OFFCURVE",
"526 140 OFFCURVE",
"482 81 CURVE SMOOTH",
"437 21 OFFCURVE",
"373 -12 OFFCURVE",
"300 -12 CURVE SMOOTH"
);
},
{
closed = 1;
nodes = (
"349 61 OFFCURVE",
"392 87 OFFCURVE",
"421 135 CURVE SMOOTH",
"449 182 OFFCURVE",
"466 248 OFFCURVE",
"466 331 CURVE SMOOTH",
"466 412 OFFCURVE",
"449 479 OFFCURVE",
"421 524 CURVE SMOOTH",
"392 569 OFFCURVE",
"349 595 OFFCURVE",
"300 595 CURVE SMOOTH",
"249 595 OFFCURVE",
"208 569 OFFCURVE",
"180 524 CURVE SMOOTH",
"151 479 OFFCURVE",
"134 412 OFFCURVE",
"134 331 CURVE SMOOTH",
"134 248 OFFCURVE",
"151 182 OFFCURVE",
"180 135 CURVE SMOOTH",
"208 87 OFFCURVE",
"249 61 OFFCURVE",
"300 61 CURVE SMOOTH"
);
},
{
closed = 1;
nodes = (
"404 789 LINE",
"429 796 OFFCURVE",
"449 804 OFFCURVE",
"449 825 CURVE SMOOTH",
"449 852 OFFCURVE",
"429 861 OFFCURVE",
"378 864 CURVE",
"387 906 LINE",
"466 903 OFFCURVE",
"507 880 OFFCURVE",
"507 833 CURVE SMOOTH",
"507 782 OFFCURVE",
"463 762 OFFCURVE",
"415 754 CURVE"
);
},
{
closed = 1;
nodes = (
"264 812 LINE",
"336 812 LINE",
"428 706 LINE",
"365 706 LINE",
"302 768 LINE",
"298 768 LINE",
"235 706 LINE",
"172 706 LINE"
);
}
);
width = 600;
}
);
unicode = 1ED4;
},
{
glyphname = Ocircumflextilde;
layers = (
{
layerId = "071E7A8C-CF57-4473-AB35-23A61C6027DA";
name = Regular;
paths = (
{
closed = 1;
nodes = (
"225 -12 OFFCURVE",
"163 21 OFFCURVE",
"119 81 CURVE SMOOTH",
"74 140 OFFCURVE",
"48 226 OFFCURVE",
"48 331 CURVE SMOOTH",
"48 436 OFFCURVE",
"74 521 OFFCURVE",
"119 579 CURVE SMOOTH",
"163 637 OFFCURVE",
"225 668 OFFCURVE",
"300 668 CURVE SMOOTH",
"373 668 OFFCURVE",
"437 636 OFFCURVE",
"482 578 CURVE SMOOTH",
"526 520 OFFCURVE",
"552 435 OFFCURVE",
"552 331 CURVE SMOOTH",
"552 226 OFFCURVE",
"526 140 OFFCURVE",
"482 81 CURVE SMOOTH",
"437 21 OFFCURVE",
"373 -12 OFFCURVE",
"300 -12 CURVE SMOOTH"
);
},
{
closed = 1;
nodes = (
"349 61 OFFCURVE",
"392 87 OFFCURVE",
"421 135 CURVE SMOOTH",
"449 182 OFFCURVE",
"466 248 OFFCURVE",
"466 331 CURVE SMOOTH",
"466 412 OFFCURVE",
"449 479 OFFCURVE",
"421 524 CURVE SMOOTH",
"392 569 OFFCURVE",
"349 595 OFFCURVE",
"300 595 CURVE SMOOTH",
"249 595 OFFCURVE",
"208 569 OFFCURVE",
"180 524 CURVE SMOOTH",
"151 479 OFFCURVE",
"134 412 OFFCURVE",
"134 331 CURVE SMOOTH",
"134 248 OFFCURVE",
"151 182 OFFCURVE",
"180 135 CURVE SMOOTH",
"208 87 OFFCURVE",
"249 61 OFFCURVE",
"300 61 CURVE SMOOTH"
);
},
{
closed = 1;
nodes = (
"264 812 LINE",
"336 812 LINE",
"428 706 LINE",
"365 706 LINE",
"302 768 LINE",
"298 768 LINE",
"235 706 LINE",
"172 706 LINE"
);
},
{
closed = 1;
nodes = (
"168 848 LINE",
"173 900 OFFCURVE",
"199 938 OFFCURVE",
"246 938 CURVE SMOOTH",
"271 938 OFFCURVE",
"290 928 OFFCURVE",
"306 917 CURVE SMOOTH",
"322 906 OFFCURVE",
"335 896 OFFCURVE",
"351 896 CURVE SMOOTH",
"371 896 OFFCURVE",
"386 910 OFFCURVE",
"390 938 CURVE",
"432 938 LINE",
"427 885 OFFCURVE",
"401 848 OFFCURVE",
"354 848 CURVE SMOOTH",
"329 848 OFFCURVE",
"310 858 OFFCURVE",
"294 869 CURVE SMOOTH",
"278 880 OFFCURVE",
"265 890 OFFCURVE",
"249 890 CURVE SMOOTH",
"229 890 OFFCURVE",
"214 876 OFFCURVE",
"210 848 CURVE"
);
}
);
width = 600;
}
);
unicode = 1ED6;
},
{
glyphname = Odieresis;
layers = (
{
layerId = "071E7A8C-CF57-4473-AB35-23A61C6027DA";
name = Regular;
paths = (
{
closed = 1;
nodes = (
"225 -12 OFFCURVE",
"163 21 OFFCURVE",
"119 81 CURVE SMOOTH",
"74 140 OFFCURVE",
"48 226 OFFCURVE",
"48 331 CURVE SMOOTH",
"48 436 OFFCURVE",
"74 521 OFFCURVE",
"119 579 CURVE SMOOTH",
"163 637 OFFCURVE",
"225 668 OFFCURVE",
"300 668 CURVE SMOOTH",
"373 668 OFFCURVE",
"437 636 OFFCURVE",
"482 578 CURVE SMOOTH",
"526 520 OFFCURVE",
"552 435 OFFCURVE",
"552 331 CURVE SMOOTH",
"552 226 OFFCURVE",
"526 140 OFFCURVE",
"482 81 CURVE SMOOTH",
"437 21 OFFCURVE",
"373 -12 OFFCURVE",
"300 -12 CURVE SMOOTH"
);
},
{
closed = 1;
nodes = (
"349 61 OFFCURVE",
"392 87 OFFCURVE",
"421 135 CURVE SMOOTH",
"449 182 OFFCURVE",
"466 248 OFFCURVE",
"466 331 CURVE SMOOTH",
"466 412 OFFCURVE",
"449 479 OFFCURVE",
"421 524 CURVE SMOOTH",
"392 569 OFFCURVE",
"349 595 OFFCURVE",
"300 595 CURVE SMOOTH",
"249 595 OFFCURVE",
"208 569 OFFCURVE",
"180 524 CURVE SMOOTH",
"151 479 OFFCURVE",
"134 412 OFFCURVE",
"134 331 CURVE SMOOTH",
"134 248 OFFCURVE",
"151 182 OFFCURVE",
"180 135 CURVE SMOOTH",
"208 87 OFFCURVE",
"249 61 OFFCURVE",
"300 61 CURVE SMOOTH"
);
},
{
closed = 1;
nodes = (
"185 715 OFFCURVE",
"165 736 OFFCURVE",
"165 764 CURVE SMOOTH",
"165 793 OFFCURVE",
"185 813 OFFCURVE",
"214 813 CURVE SMOOTH",
"242 813 OFFCURVE",
"263 793 OFFCURVE",
"263 764 CURVE SMOOTH",
"263 736 OFFCURVE",
"242 715 OFFCURVE",
"214 715 CURVE SMOOTH"
);
},
{
closed = 1;
nodes = (
"358 715 OFFCURVE",
"337 736 OFFCURVE",
"337 764 CURVE SMOOTH",
"337 793 OFFCURVE",
"358 813 OFFCURVE",
"386 813 CURVE SMOOTH",
"415 813 OFFCURVE",
"435 793 OFFCURVE",
"435 764 CURVE SMOOTH",
"435 736 OFFCURVE",
"415 715 OFFCURVE",
"386 715 CURVE SMOOTH"
);
}
);
width = 600;
}
);
unicode = 00D6;
},
{
glyphname = Odotbelow;
layers = (
{
layerId = "071E7A8C-CF57-4473-AB35-23A61C6027DA";
name = Regular;
paths = (
{
closed = 1;
nodes = (
"225 -12 OFFCURVE",
"163 21 OFFCURVE",
"119 81 CURVE SMOOTH",
"74 140 OFFCURVE",
"48 226 OFFCURVE",
"48 331 CURVE SMOOTH",
"48 436 OFFCURVE",
"74 521 OFFCURVE",
"119 579 CURVE SMOOTH",
"163 637 OFFCURVE",
"225 668 OFFCURVE",
"300 668 CURVE SMOOTH",
"373 668 OFFCURVE",
"437 636 OFFCURVE",
"482 578 CURVE SMOOTH",
"526 520 OFFCURVE",
"552 435 OFFCURVE",
"552 331 CURVE SMOOTH",
"552 226 OFFCURVE",
"526 140 OFFCURVE",
"482 81 CURVE SMOOTH",
"437 21 OFFCURVE",
"373 -12 OFFCURVE",
"300 -12 CURVE SMOOTH"
);
},
{
closed = 1;
nodes = (
"349 61 OFFCURVE",
"392 87 OFFCURVE",
"421 135 CURVE SMOOTH",
"449 182 OFFCURVE",
"466 248 OFFCURVE",
"466 331 CURVE SMOOTH",
"466 412 OFFCURVE",
"449 479 OFFCURVE",
"421 524 CURVE SMOOTH",
"392 569 OFFCURVE",
"349 595 OFFCURVE",
"300 595 CURVE SMOOTH",
"249 595 OFFCURVE",
"208 569 OFFCURVE",
"180 524 CURVE SMOOTH",
"151 479 OFFCURVE",
"134 412 OFFCURVE",
"134 331 CURVE SMOOTH",
"134 248 OFFCURVE",
"151 182 OFFCURVE",
"180 135 CURVE SMOOTH",
"208 87 OFFCURVE",
"249 61 OFFCURVE",
"300 61 CURVE SMOOTH"
);
},
{
closed = 1;
nodes = (
"263 -226 OFFCURVE",
"234 -202 OFFCURVE",
"234 -163 CURVE SMOOTH",
"234 -124 OFFCURVE",
"263 -99 OFFCURVE",
"300 -99 CURVE SMOOTH",
"337 -99 OFFCURVE",
"366 -124 OFFCURVE",
"366 -163 CURVE SMOOTH",
"366 -202 OFFCURVE",
"337 -226 OFFCURVE",
"300 -226 CURVE SMOOTH"
);
}
);
width = 600;
}
);
unicode = 1ECC;
},
{
glyphname = Ograve;
layers = (
{
layerId = "071E7A8C-CF57-4473-AB35-23A61C6027DA";
name = Regular;
paths = (
{
closed = 1;
nodes = (
"225 -12 OFFCURVE",
"163 21 OFFCURVE",
"119 81 CURVE SMOOTH",
"74 140 OFFCURVE",
"48 226 OFFCURVE",
"48 331 CURVE SMOOTH",
"48 436 OFFCURVE",
"74 521 OFFCURVE",
"119 579 CURVE SMOOTH",
"163 637 OFFCURVE",
"225 668 OFFCURVE",
"300 668 CURVE SMOOTH",
"373 668 OFFCURVE",
"437 636 OFFCURVE",
"482 578 CURVE SMOOTH",
"526 520 OFFCURVE",
"552 435 OFFCURVE",
"552 331 CURVE SMOOTH",
"552 226 OFFCURVE",
"526 140 OFFCURVE",
"482 81 CURVE SMOOTH",
"437 21 OFFCURVE",
"373 -12 OFFCURVE",
"300 -12 CURVE SMOOTH"
);
},
{
closed = 1;
nodes = (
"349 61 OFFCURVE",
"392 87 OFFCURVE",
"421 135 CURVE SMOOTH",
"449 182 OFFCURVE",
"466 248 OFFCURVE",
"466 331 CURVE SMOOTH",
"466 412 OFFCURVE",
"449 479 OFFCURVE",
"421 524 CURVE SMOOTH",
"392 569 OFFCURVE",
"349 595 OFFCURVE",
"300 595 CURVE SMOOTH",
"249 595 OFFCURVE",
"208 569 OFFCURVE",
"180 524 CURVE SMOOTH",
"151 479 OFFCURVE",
"134 412 OFFCURVE",
"134 331 CURVE SMOOTH",
"134 248 OFFCURVE",
"151 182 OFFCURVE",
"180 135 CURVE SMOOTH",
"208 87 OFFCURVE",
"249 61 OFFCURVE",
"300 61 CURVE SMOOTH"
);
},
{
closed = 1;
nodes = (
"169 818 LINE",
"263 818 LINE",
"351 706 LINE",
"282 706 LINE"
);
}
);
width = 600;
}
);
unicode = 00D2;
},
{
glyphname = Ohookabove;
layers = (
{
layerId = "071E7A8C-CF57-4473-AB35-23A61C6027DA";
name = Regular;
paths = (
{
closed = 1;
nodes = (
"225 -12 OFFCURVE",
"163 21 OFFCURVE",
"119 81 CURVE SMOOTH",
"74 140 OFFCURVE",
"48 226 OFFCURVE",
"48 331 CURVE SMOOTH",
"48 436 OFFCURVE",
"74 521 OFFCURVE",
"119 579 CURVE SMOOTH",
"163 637 OFFCURVE",
"225 668 OFFCURVE",
"300 668 CURVE SMOOTH",
"373 668 OFFCURVE",
"437 636 OFFCURVE",
"482 578 CURVE SMOOTH",
"526 520 OFFCURVE",
"552 435 OFFCURVE",
"552 331 CURVE SMOOTH",
"552 226 OFFCURVE",
"526 140 OFFCURVE",
"482 81 CURVE SMOOTH",
"437 21 OFFCURVE",
"373 -12 OFFCURVE",
"300 -12 CURVE SMOOTH"
);
},
{
closed = 1;
nodes = (
"349 61 OFFCURVE",
"392 87 OFFCURVE",
"421 135 CURVE SMOOTH",
"449 182 OFFCURVE",
"466 248 OFFCURVE",
"466 331 CURVE SMOOTH",
"466 412 OFFCURVE",
"449 479 OFFCURVE",
"421 524 CURVE SMOOTH",
"392 569 OFFCURVE",
"349 595 OFFCURVE",
"300 595 CURVE SMOOTH",
"249 595 OFFCURVE",
"208 569 OFFCURVE",
"180 524 CURVE SMOOTH",
"151 479 OFFCURVE",
"134 412 OFFCURVE",
"134 331 CURVE SMOOTH",
"134 248 OFFCURVE",
"151 182 OFFCURVE",
"180 135 CURVE SMOOTH",
"208 87 OFFCURVE",
"249 61 OFFCURVE",
"300 61 CURVE SMOOTH"
);
},
{
closed = 1;
nodes = (
"263 736 LINE",
"295 745 OFFCURVE",
"319 757 OFFCURVE",
"319 782 CURVE SMOOTH",
"319 808 OFFCURVE",
"291 822 OFFCURVE",
"236 824 CURVE",
"245 872 LINE",
"333 869 OFFCURVE",
"383 842 OFFCURVE",
"383 791 CURVE SMOOTH",
"383 762 OFFCURVE",
"370 742 OFFCURVE",
"350 727 CURVE SMOOTH",
"329 711 OFFCURVE",
"301 703 OFFCURVE",
"272 698 CURVE"
);
}
);
width = 600;
}
);
unicode = 1ECE;
},
{
glyphname = Ohorn;
layers = (
{
layerId = "071E7A8C-CF57-4473-AB35-23A61C6027DA";
name = Regular;
paths = (
{
closed = 1;
nodes = (
"349 61 OFFCURVE",
"392 87 OFFCURVE",
"421 135 CURVE SMOOTH",
"449 182 OFFCURVE",
"466 248 OFFCURVE",
"466 331 CURVE SMOOTH",
"466 412 OFFCURVE",
"449 479 OFFCURVE",
"421 524 CURVE SMOOTH",
"392 569 OFFCURVE",
"349 595 OFFCURVE",
"300 595 CURVE SMOOTH",
"249 595 OFFCURVE",
"208 569 OFFCURVE",
"180 524 CURVE SMOOTH",
"151 479 OFFCURVE",
"134 412 OFFCURVE",
"134 331 CURVE SMOOTH",
"134 248 OFFCURVE",
"151 182 OFFCURVE",
"180 135 CURVE SMOOTH",
"208 87 OFFCURVE",
"249 61 OFFCURVE",
"300 61 CURVE SMOOTH"
);
},
{
closed = 1;
nodes = (
"539 773 LINE",
"554 754 OFFCURVE",
"562 733 OFFCURVE",
"562 708 CURVE SMOOTH",
"562 648 OFFCURVE",
"520 617 OFFCURVE",
"460 602 CURVE",
"519 545 OFFCURVE",
"552 452 OFFCURVE",
"552 331 CURVE SMOOTH",
"552 226 OFFCURVE",
"526 140 OFFCURVE",
"482 81 CURVE SMOOTH",
"437 21 OFFCURVE",
"373 -12 OFFCURVE",
"300 -12 CURVE SMOOTH",
"225 -12 OFFCURVE",
"163 21 OFFCURVE",
"119 81 CURVE SMOOTH",
"74 140 OFFCURVE",
"48 226 OFFCURVE",
"48 331 CURVE SMOOTH",
"48 436 OFFCURVE",
"74 521 OFFCURVE",
"119 579 CURVE SMOOTH",
"163 637 OFFCURVE",
"225 668 OFFCURVE",
"300 668 CURVE SMOOTH",
"342 668 OFFCURVE",
"381 658 OFFCURVE",
"416 637 CURVE",
"468 645 OFFCURVE",
"495 663 OFFCURVE",
"495 703 CURVE SMOOTH",
"495 718 OFFCURVE",
"489 731 OFFCURVE",
"480 744 CURVE"
);
}
);
width = 600;
}
);
unicode = 01A0;
},
{
glyphname = Ohornacute;
layers = (
{
layerId = "071E7A8C-CF57-4473-AB35-23A61C6027DA";
name = Regular;
paths = (
{
closed = 1;
nodes = (
"349 61 OFFCURVE",
"392 87 OFFCURVE",
"421 135 CURVE SMOOTH",
"449 182 OFFCURVE",
"466 248 OFFCURVE",
"466 331 CURVE SMOOTH",
"466 412 OFFCURVE",
"449 479 OFFCURVE",
"421 524 CURVE SMOOTH",
"392 569 OFFCURVE",
"349 595 OFFCURVE",
"300 595 CURVE SMOOTH",
"249 595 OFFCURVE",
"208 569 OFFCURVE",
"180 524 CURVE SMOOTH",
"151 479 OFFCURVE",
"134 412 OFFCURVE",
"134 331 CURVE SMOOTH",
"134 248 OFFCURVE",
"151 182 OFFCURVE",
"180 135 CURVE SMOOTH",
"208 87 OFFCURVE",
"249 61 OFFCURVE",
"300 61 CURVE SMOOTH"
);
},
{
closed = 1;
nodes = (
"539 773 LINE",
"554 754 OFFCURVE",
"562 733 OFFCURVE",
"562 708 CURVE SMOOTH",
"562 648 OFFCURVE",
"520 617 OFFCURVE",
"460 602 CURVE",
"519 545 OFFCURVE",
"552 452 OFFCURVE",
"552 331 CURVE SMOOTH",
"552 226 OFFCURVE",
"526 140 OFFCURVE",
"482 81 CURVE SMOOTH",
"437 21 OFFCURVE",
"373 -12 OFFCURVE",
"300 -12 CURVE SMOOTH",
"225 -12 OFFCURVE",
"163 21 OFFCURVE",
"119 81 CURVE SMOOTH",
"74 140 OFFCURVE",
"48 226 OFFCURVE",
"48 331 CURVE SMOOTH",
"48 436 OFFCURVE",
"74 521 OFFCURVE",
"119 579 CURVE SMOOTH",
"163 637 OFFCURVE",
"225 668 OFFCURVE",
"300 668 CURVE SMOOTH",
"342 668 OFFCURVE",
"381 658 OFFCURVE",
"416 637 CURVE",
"468 645 OFFCURVE",
"495 663 OFFCURVE",
"495 703 CURVE SMOOTH",
"495 718 OFFCURVE",
"489 731 OFFCURVE",
"480 744 CURVE"
);
},
{
closed = 1;
nodes = (
"318 706 LINE",
"249 706 LINE",
"337 818 LINE",
"431 818 LINE"
);
}
);
width = 600;
}
);
unicode = 1EDA;
},
{
glyphname = Ohorndotbelow;
layers = (
{
layerId = "071E7A8C-CF57-4473-AB35-23A61C6027DA";
name = Regular;
paths = (
{
closed = 1;
nodes = (
"349 61 OFFCURVE",
"392 87 OFFCURVE",
"421 135 CURVE SMOOTH",
"449 182 OFFCURVE",
"466 248 OFFCURVE",
"466 331 CURVE SMOOTH",
"466 412 OFFCURVE",
"449 479 OFFCURVE",
"421 524 CURVE SMOOTH",
"392 569 OFFCURVE",
"349 595 OFFCURVE",
"300 595 CURVE SMOOTH",
"249 595 OFFCURVE",
"208 569 OFFCURVE",
"180 524 CURVE SMOOTH",
"151 479 OFFCURVE",
"134 412 OFFCURVE",
"134 331 CURVE SMOOTH",
"134 248 OFFCURVE",
"151 182 OFFCURVE",
"180 135 CURVE SMOOTH",
"208 87 OFFCURVE",
"249 61 OFFCURVE",
"300 61 CURVE SMOOTH"
);
},
{
closed = 1;
nodes = (
"539 773 LINE",
"554 754 OFFCURVE",
"562 733 OFFCURVE",
"562 708 CURVE SMOOTH",
"562 648 OFFCURVE",
"520 617 OFFCURVE",
"460 602 CURVE",
"519 545 OFFCURVE",
"552 452 OFFCURVE",
"552 331 CURVE SMOOTH",
"552 226 OFFCURVE",
"526 140 OFFCURVE",
"482 81 CURVE SMOOTH",
"437 21 OFFCURVE",
"373 -12 OFFCURVE",
"300 -12 CURVE SMOOTH",
"225 -12 OFFCURVE",
"163 21 OFFCURVE",
"119 81 CURVE SMOOTH",
"74 140 OFFCURVE",
"48 226 OFFCURVE",
"48 331 CURVE SMOOTH",
"48 436 OFFCURVE",
"74 521 OFFCURVE",
"119 579 CURVE SMOOTH",
"163 637 OFFCURVE",
"225 668 OFFCURVE",
"300 668 CURVE SMOOTH",
"342 668 OFFCURVE",
"381 658 OFFCURVE",
"416 637 CURVE",
"468 645 OFFCURVE",
"495 663 OFFCURVE",
"495 703 CURVE SMOOTH",
"495 718 OFFCURVE",
"489 731 OFFCURVE",
"480 744 CURVE"
);
},
{
closed = 1;
nodes = (
"263 -226 OFFCURVE",
"234 -202 OFFCURVE",
"234 -163 CURVE SMOOTH",
"234 -124 OFFCURVE",
"263 -99 OFFCURVE",
"300 -99 CURVE SMOOTH",
"337 -99 OFFCURVE",
"366 -124 OFFCURVE",
"366 -163 CURVE SMOOTH",
"366 -202 OFFCURVE",
"337 -226 OFFCURVE",
"300 -226 CURVE SMOOTH"
);
}
);
width = 600;
}
);
unicode = 1EE2;
},
{
glyphname = Ohorngrave;
layers = (
{
layerId = "071E7A8C-CF57-4473-AB35-23A61C6027DA";
name = Regular;
paths = (
{
closed = 1;
nodes = (
"349 61 OFFCURVE",
"392 87 OFFCURVE",
"421 135 CURVE SMOOTH",
"449 182 OFFCURVE",
"466 248 OFFCURVE",
"466 331 CURVE SMOOTH",
"466 412 OFFCURVE",
"449 479 OFFCURVE",
"421 524 CURVE SMOOTH",
"392 569 OFFCURVE",
"349 595 OFFCURVE",
"300 595 CURVE SMOOTH",
"249 595 OFFCURVE",
"208 569 OFFCURVE",
"180 524 CURVE SMOOTH",
"151 479 OFFCURVE",
"134 412 OFFCURVE",
"134 331 CURVE SMOOTH",
"134 248 OFFCURVE",
"151 182 OFFCURVE",
"180 135 CURVE SMOOTH",
"208 87 OFFCURVE",
"249 61 OFFCURVE",
"300 61 CURVE SMOOTH"
);
},
{
closed = 1;
nodes = (
"539 773 LINE",
"554 754 OFFCURVE",
"562 733 OFFCURVE",
"562 708 CURVE SMOOTH",
"562 648 OFFCURVE",
"520 617 OFFCURVE",
"460 602 CURVE",
"519 545 OFFCURVE",
"552 452 OFFCURVE",
"552 331 CURVE SMOOTH",
"552 226 OFFCURVE",
"526 140 OFFCURVE",
"482 81 CURVE SMOOTH",
"437 21 OFFCURVE",
"373 -12 OFFCURVE",
"300 -12 CURVE SMOOTH",
"225 -12 OFFCURVE",
"163 21 OFFCURVE",
"119 81 CURVE SMOOTH",
"74 140 OFFCURVE",
"48 226 OFFCURVE",
"48 331 CURVE SMOOTH",
"48 436 OFFCURVE",
"74 521 OFFCURVE",
"119 579 CURVE SMOOTH",
"163 637 OFFCURVE",
"225 668 OFFCURVE",
"300 668 CURVE SMOOTH",
"342 668 OFFCURVE",
"381 658 OFFCURVE",
"416 637 CURVE",
"468 645 OFFCURVE",
"495 663 OFFCURVE",
"495 703 CURVE SMOOTH",
"495 718 OFFCURVE",
"489 731 OFFCURVE",
"480 744 CURVE"
);
},
{
closed = 1;
nodes = (
"169 818 LINE",
"263 818 LINE",
"351 706 LINE",
"282 706 LINE"
);
}
);
width = 600;
}
);
unicode = 1EDC;
},
{
glyphname = Ohornhookabove;
layers = (
{
layerId = "071E7A8C-CF57-4473-AB35-23A61C6027DA";
name = Regular;
paths = (
{
closed = 1;
nodes = (
"349 61 OFFCURVE",
"392 87 OFFCURVE",
"421 135 CURVE SMOOTH",
"449 182 OFFCURVE",
"466 248 OFFCURVE",
"466 331 CURVE SMOOTH",
"466 412 OFFCURVE",
"449 479 OFFCURVE",
"421 524 CURVE SMOOTH",
"392 569 OFFCURVE",
"349 595 OFFCURVE",
"300 595 CURVE SMOOTH",
"249 595 OFFCURVE",
"208 569 OFFCURVE",
"180 524 CURVE SMOOTH",
"151 479 OFFCURVE",
"134 412 OFFCURVE",
"134 331 CURVE SMOOTH",
"134 248 OFFCURVE",
"151 182 OFFCURVE",
"180 135 CURVE SMOOTH",
"208 87 OFFCURVE",
"249 61 OFFCURVE",
"300 61 CURVE SMOOTH"
);
},
{
closed = 1;
nodes = (
"539 773 LINE",
"554 754 OFFCURVE",
"562 733 OFFCURVE",
"562 708 CURVE SMOOTH",
"562 648 OFFCURVE",
"520 617 OFFCURVE",
"460 602 CURVE",
"519 545 OFFCURVE",
"552 452 OFFCURVE",
"552 331 CURVE SMOOTH",
"552 226 OFFCURVE",
"526 140 OFFCURVE",
"482 81 CURVE SMOOTH",
"437 21 OFFCURVE",
"373 -12 OFFCURVE",
"300 -12 CURVE SMOOTH",
"225 -12 OFFCURVE",
"163 21 OFFCURVE",
"119 81 CURVE SMOOTH",
"74 140 OFFCURVE",
"48 226 OFFCURVE",
"48 331 CURVE SMOOTH",
"48 436 OFFCURVE",
"74 521 OFFCURVE",
"119 579 CURVE SMOOTH",
"163 637 OFFCURVE",
"225 668 OFFCURVE",
"300 668 CURVE SMOOTH",
"342 668 OFFCURVE",
"381 658 OFFCURVE",
"416 637 CURVE",
"468 645 OFFCURVE",
"495 663 OFFCURVE",
"495 703 CURVE SMOOTH",
"495 718 OFFCURVE",
"489 731 OFFCURVE",
"480 744 CURVE"
);
},
{
closed = 1;
nodes = (
"263 736 LINE",
"295 745 OFFCURVE",
"319 757 OFFCURVE",
"319 782 CURVE SMOOTH",
"319 808 OFFCURVE",
"291 822 OFFCURVE",
"236 824 CURVE",
"245 872 LINE",
"333 869 OFFCURVE",
"383 842 OFFCURVE",
"383 791 CURVE SMOOTH",
"383 762 OFFCURVE",
"370 742 OFFCURVE",
"350 727 CURVE SMOOTH",
"329 711 OFFCURVE",
"301 703 OFFCURVE",
"272 698 CURVE"
);
}
);
width = 600;
}
);
unicode = 1EDE;
},
{
glyphname = Ohorntilde;
layers = (
{
layerId = "071E7A8C-CF57-4473-AB35-23A61C6027DA";
name = Regular;
paths = (
{
closed = 1;
nodes = (
"349 61 OFFCURVE",
"392 87 OFFCURVE",
"421 135 CURVE SMOOTH",
"449 182 OFFCURVE",
"466 248 OFFCURVE",
"466 331 CURVE SMOOTH",
"466 412 OFFCURVE",
"449 479 OFFCURVE",
"421 524 CURVE SMOOTH",
"392 569 OFFCURVE",
"349 595 OFFCURVE",
"300 595 CURVE SMOOTH",
"249 595 OFFCURVE",
"208 569 OFFCURVE",
"180 524 CURVE SMOOTH",
"151 479 OFFCURVE",
"134 412 OFFCURVE",
"134 331 CURVE SMOOTH",
"134 248 OFFCURVE",
"151 182 OFFCURVE",
"180 135 CURVE SMOOTH",
"208 87 OFFCURVE",
"249 61 OFFCURVE",
"300 61 CURVE SMOOTH"
);
},
{
closed = 1;
nodes = (
"539 773 LINE",
"554 754 OFFCURVE",
"562 733 OFFCURVE",
"562 708 CURVE SMOOTH",
"562 648 OFFCURVE",
"520 617 OFFCURVE",
"460 602 CURVE",
"519 545 OFFCURVE",
"552 452 OFFCURVE",
"552 331 CURVE SMOOTH",
"552 226 OFFCURVE",
"526 140 OFFCURVE",
"482 81 CURVE SMOOTH",
"437 21 OFFCURVE",
"373 -12 OFFCURVE",
"300 -12 CURVE SMOOTH",
"225 -12 OFFCURVE",
"163 21 OFFCURVE",
"119 81 CURVE SMOOTH",
"74 140 OFFCURVE",
"48 226 OFFCURVE",
"48 331 CURVE SMOOTH",
"48 436 OFFCURVE",
"74 521 OFFCURVE",
"119 579 CURVE SMOOTH",
"163 637 OFFCURVE",
"225 668 OFFCURVE",
"300 668 CURVE SMOOTH",
"342 668 OFFCURVE",
"381 658 OFFCURVE",
"416 637 CURVE",
"468 645 OFFCURVE",
"495 663 OFFCURVE",
"495 703 CURVE SMOOTH",
"495 718 OFFCURVE",
"489 731 OFFCURVE",
"480 744 CURVE"
);
},
{
closed = 1;
nodes = (
"333 711 OFFCURVE",
"313 724 OFFCURVE",
"295 737 CURVE SMOOTH",
"277 750 OFFCURVE",
"260 763 OFFCURVE",
"241 763 CURVE SMOOTH",
"222 763 OFFCURVE",
"206 746 OFFCURVE",
"201 711 CURVE",
"155 711 LINE",
"162 774 OFFCURVE",
"192 819 OFFCURVE",
"240 819 CURVE SMOOTH",
"267 819 OFFCURVE",
"288 806 OFFCURVE",
"306 793 CURVE SMOOTH",
"324 780 OFFCURVE",
"340 767 OFFCURVE",
"359 767 CURVE SMOOTH",
"378 767 OFFCURVE",
"394 786 OFFCURVE",
"399 819 CURVE",
"445 819 LINE",
"438 758 OFFCURVE",
"408 711 OFFCURVE",
"360 711 CURVE SMOOTH"
);
}
);
width = 600;
}
);
unicode = 1EE0;
},
{
glyphname = Ohungarumlaut;
layers = (
{
layerId = "071E7A8C-CF57-4473-AB35-23A61C6027DA";
name = Regular;
paths = (
{
closed = 1;
nodes = (
"225 -12 OFFCURVE",
"163 21 OFFCURVE",
"119 81 CURVE SMOOTH",
"74 140 OFFCURVE",
"48 226 OFFCURVE",
"48 331 CURVE SMOOTH",
"48 436 OFFCURVE",
"74 521 OFFCURVE",
"119 579 CURVE SMOOTH",
"163 637 OFFCURVE",
"225 668 OFFCURVE",
"300 668 CURVE SMOOTH",
"373 668 OFFCURVE",
"437 636 OFFCURVE",
"482 578 CURVE SMOOTH",
"526 520 OFFCURVE",
"552 435 OFFCURVE",
"552 331 CURVE SMOOTH",
"552 226 OFFCURVE",
"526 140 OFFCURVE",
"482 81 CURVE SMOOTH",
"437 21 OFFCURVE",
"373 -12 OFFCURVE",
"300 -12 CURVE SMOOTH"
);
},
{
closed = 1;
nodes = (
"349 61 OFFCURVE",
"392 87 OFFCURVE",
"421 135 CURVE SMOOTH",
"449 182 OFFCURVE",
"466 248 OFFCURVE",
"466 331 CURVE SMOOTH",
"466 412 OFFCURVE",
"449 479 OFFCURVE",
"421 524 CURVE SMOOTH",
"392 569 OFFCURVE",
"349 595 OFFCURVE",
"300 595 CURVE SMOOTH",
"249 595 OFFCURVE",
"208 569 OFFCURVE",
"180 524 CURVE SMOOTH",
"151 479 OFFCURVE",
"134 412 OFFCURVE",
"134 331 CURVE SMOOTH",
"134 248 OFFCURVE",
"151 182 OFFCURVE",
"180 135 CURVE SMOOTH",
"208 87 OFFCURVE",
"249 61 OFFCURVE",
"300 61 CURVE SMOOTH"
);
},
{
closed = 1;
nodes = (
"191 706 LINE",
"257 818 LINE",
"334 818 LINE",
"251 706 LINE"
);
},
{
closed = 1;
nodes = (
"415 818 LINE",
"492 818 LINE",
"408 706 LINE",
"349 706 LINE"
);
}
);
width = 600;
}
);
unicode = 0150;
},
{
glyphname = Omacron;
layers = (
{
layerId = "071E7A8C-CF57-4473-AB35-23A61C6027DA";
name = Regular;
paths = (
{
closed = 1;
nodes = (
"225 -12 OFFCURVE",
"163 21 OFFCURVE",
"119 81 CURVE SMOOTH",
"74 140 OFFCURVE",
"48 226 OFFCURVE",
"48 331 CURVE SMOOTH",
"48 436 OFFCURVE",
"74 521 OFFCURVE",
"119 579 CURVE SMOOTH",
"163 637 OFFCURVE",
"225 668 OFFCURVE",
"300 668 CURVE SMOOTH",
"373 668 OFFCURVE",
"437 636 OFFCURVE",
"482 578 CURVE SMOOTH",
"526 520 OFFCURVE",
"552 435 OFFCURVE",
"552 331 CURVE SMOOTH",
"552 226 OFFCURVE",
"526 140 OFFCURVE",
"482 81 CURVE SMOOTH",
"437 21 OFFCURVE",
"373 -12 OFFCURVE",
"300 -12 CURVE SMOOTH"
);
},
{
closed = 1;
nodes = (
"349 61 OFFCURVE",
"392 87 OFFCURVE",
"421 135 CURVE SMOOTH",
"449 182 OFFCURVE",
"466 248 OFFCURVE",
"466 331 CURVE SMOOTH",
"466 412 OFFCURVE",
"449 479 OFFCURVE",
"421 524 CURVE SMOOTH",
"392 569 OFFCURVE",
"349 595 OFFCURVE",
"300 595 CURVE SMOOTH",
"249 595 OFFCURVE",
"208 569 OFFCURVE",
"180 524 CURVE SMOOTH",
"151 479 OFFCURVE",
"134 412 OFFCURVE",
"134 331 CURVE SMOOTH",
"134 248 OFFCURVE",
"151 182 OFFCURVE",
"180 135 CURVE SMOOTH",
"208 87 OFFCURVE",
"249 61 OFFCURVE",
"300 61 CURVE SMOOTH"
);
},
{
closed = 1;
nodes = (
"176 786 LINE",
"424 786 LINE",
"424 729 LINE",
"176 729 LINE"
);
}
);
width = 600;
}
);
unicode = 014C;
},
{
glyphname = Oogonek;
layers = (
{
layerId = "071E7A8C-CF57-4473-AB35-23A61C6027DA";
name = Regular;
paths = (
{
closed = 1;
nodes = (
"410 -184 LINE",
"390 -199 OFFCURVE",
"357 -212 OFFCURVE",
"330 -212 CURVE SMOOTH",
"277 -212 OFFCURVE",
"234 -182 OFFCURVE",
"234 -125 CURVE SMOOTH",
"234 -81 OFFCURVE",
"261 -40 OFFCURVE",
"296 -11 CURVE",
"209 -8 OFFCURVE",
"148 33 OFFCURVE",
"108 97 CURVE SMOOTH",
"67 160 OFFCURVE",
"48 244 OFFCURVE",
"48 331 CURVE SMOOTH",
"48 436 OFFCURVE",
"74 521 OFFCURVE",
"119 579 CURVE SMOOTH",
"163 637 OFFCURVE",
"225 668 OFFCURVE",
"300 668 CURVE SMOOTH",
"373 668 OFFCURVE",
"437 636 OFFCURVE",
"482 578 CURVE SMOOTH",
"526 520 OFFCURVE",
"552 435 OFFCURVE",
"552 331 CURVE SMOOTH",
"552 154 OFFCURVE",
"482 45 OFFCURVE",
"377 0 CURVE SMOOTH",
"350 -12 OFFCURVE",
"330 -29 OFFCURVE",
"318 -48 CURVE SMOOTH",
"305 -68 OFFCURVE",
"299 -90 OFFCURVE",
"299 -107 CURVE SMOOTH",
"299 -138 OFFCURVE",
"323 -153 OFFCURVE",
"346 -153 CURVE SMOOTH",
"361 -153 OFFCURVE",
"374 -148 OFFCURVE",
"387 -139 CURVE"
);
},
{
closed = 1;
nodes = (
"349 61 OFFCURVE",
"392 87 OFFCURVE",
"421 135 CURVE SMOOTH",
"449 182 OFFCURVE",
"466 248 OFFCURVE",
"466 331 CURVE SMOOTH",
"466 412 OFFCURVE",
"449 479 OFFCURVE",
"421 524 CURVE SMOOTH",
"392 569 OFFCURVE",
"349 595 OFFCURVE",
"300 595 CURVE SMOOTH",
"249 595 OFFCURVE",
"208 569 OFFCURVE",
"180 524 CURVE SMOOTH",
"151 479 OFFCURVE",
"134 412 OFFCURVE",
"134 331 CURVE SMOOTH",
"134 248 OFFCURVE",
"151 182 OFFCURVE",
"180 135 CURVE SMOOTH",
"208 87 OFFCURVE",
"249 61 OFFCURVE",
"300 61 CURVE SMOOTH"
);
}
);
width = 600;
}
);
unicode = 01EA;
},
{
glyphname = Oslash;
layers = (
{
layerId = "071E7A8C-CF57-4473-AB35-23A61C6027DA";
name = Regular;
paths = (
{
closed = 1;
nodes = (
"192 116 LINE",
"220 81 OFFCURVE",
"257 61 OFFCURVE",
"300 61 CURVE SMOOTH",
"349 61 OFFCURVE",
"392 87 OFFCURVE",
"421 135 CURVE SMOOTH",
"449 182 OFFCURVE",
"466 248 OFFCURVE",
"466 331 CURVE SMOOTH",
"466 390 OFFCURVE",
"458 441 OFFCURVE",
"441 484 CURVE"
);
},
{
closed = 1;
nodes = (
"410 540 LINE",
"382 575 OFFCURVE",
"344 595 OFFCURVE",
"300 595 CURVE SMOOTH",
"249 595 OFFCURVE",
"208 569 OFFCURVE",
"180 524 CURVE SMOOTH",
"151 479 OFFCURVE",
"134 412 OFFCURVE",
"134 331 CURVE SMOOTH",
"134 268 OFFCURVE",
"143 215 OFFCURVE",
"161 172 CURVE"
);
},
{
closed = 1;
nodes = (
"493 561 LINE",
"532 504 OFFCURVE",
"552 427 OFFCURVE",
"552 331 CURVE SMOOTH",
"552 226 OFFCURVE",
"526 140 OFFCURVE",
"482 81 CURVE SMOOTH",
"437 21 OFFCURVE",
"373 -12 OFFCURVE",
"300 -12 CURVE SMOOTH",
"240 -12 OFFCURVE",
"189 8 OFFCURVE",
"146 49 CURVE",
"93 -30 LINE",
"45 2 LINE",
"108 95 LINE",
"69 155 OFFCURVE",
"48 234 OFFCURVE",
"48 331 CURVE SMOOTH",
"48 436 OFFCURVE",
"74 521 OFFCURVE",
"119 579 CURVE SMOOTH",
"163 637 OFFCURVE",
"225 668 OFFCURVE",
"300 668 CURVE SMOOTH",
"361 668 OFFCURVE",
"413 648 OFFCURVE",
"455 607 CURVE",
"509 686 LINE",
"556 654 LINE"
);
}
);
width = 600;
}
);
unicode = 00D8;
},
{
glyphname = Otilde;
layers = (
{
layerId = "071E7A8C-CF57-4473-AB35-23A61C6027DA";
name = Regular;
paths = (
{
closed = 1;
nodes = (
"225 -12 OFFCURVE",
"163 21 OFFCURVE",
"119 81 CURVE SMOOTH",
"74 140 OFFCURVE",
"48 226 OFFCURVE",
"48 331 CURVE SMOOTH",
"48 436 OFFCURVE",
"74 521 OFFCURVE",
"119 579 CURVE SMOOTH",
"163 637 OFFCURVE",
"225 668 OFFCURVE",
"300 668 CURVE SMOOTH",
"373 668 OFFCURVE",
"437 636 OFFCURVE",
"482 578 CURVE SMOOTH",
"526 520 OFFCURVE",
"552 435 OFFCURVE",
"552 331 CURVE SMOOTH",
"552 226 OFFCURVE",
"526 140 OFFCURVE",
"482 81 CURVE SMOOTH",
"437 21 OFFCURVE",
"373 -12 OFFCURVE",
"300 -12 CURVE SMOOTH"
);
},
{
closed = 1;
nodes = (
"349 61 OFFCURVE",
"392 87 OFFCURVE",
"421 135 CURVE SMOOTH",
"449 182 OFFCURVE",
"466 248 OFFCURVE",
"466 331 CURVE SMOOTH",
"466 412 OFFCURVE",
"449 479 OFFCURVE",
"421 524 CURVE SMOOTH",
"392 569 OFFCURVE",
"349 595 OFFCURVE",
"300 595 CURVE SMOOTH",
"249 595 OFFCURVE",
"208 569 OFFCURVE",
"180 524 CURVE SMOOTH",
"151 479 OFFCURVE",
"134 412 OFFCURVE",
"134 331 CURVE SMOOTH",
"134 248 OFFCURVE",
"151 182 OFFCURVE",
"180 135 CURVE SMOOTH",
"208 87 OFFCURVE",
"249 61 OFFCURVE",
"300 61 CURVE SMOOTH"
);
},
{
closed = 1;
nodes = (
"333 711 OFFCURVE",
"313 724 OFFCURVE",
"295 737 CURVE SMOOTH",
"277 750 OFFCURVE",
"260 763 OFFCURVE",
"241 763 CURVE SMOOTH",
"222 763 OFFCURVE",
"206 746 OFFCURVE",
"201 711 CURVE",
"155 711 LINE",
"162 774 OFFCURVE",
"192 819 OFFCURVE",
"240 819 CURVE SMOOTH",
"267 819 OFFCURVE",
"288 806 OFFCURVE",
"306 793 CURVE SMOOTH",
"324 780 OFFCURVE",
"340 767 OFFCURVE",
"359 767 CURVE SMOOTH",
"378 767 OFFCURVE",
"394 786 OFFCURVE",
"399 819 CURVE",
"445 819 LINE",
"438 758 OFFCURVE",
"408 711 OFFCURVE",
"360 711 CURVE SMOOTH"
);
}
);
width = 600;
}
);
unicode = 00D5;
},
{
glyphname = OE;
layers = (
{
layerId = "071E7A8C-CF57-4473-AB35-23A61C6027DA";
name = Regular;
paths = (
{
closed = 1;
nodes = (
"33 542 OFFCURVE",
"132 657 OFFCURVE",
"299 657 CURVE SMOOTH",
"581 657 LINE",
"581 587 LINE",
"387 587 LINE",
"387 380 LINE",
"535 380 LINE",
"535 309 LINE",
"387 309 LINE",
"387 71 LINE",
"591 71 LINE",
"591 0 LINE",
"296 0 LINE SMOOTH",
"213 0 OFFCURVE",
"148 31 OFFCURVE",
"103 88 CURVE SMOOTH",
"58 144 OFFCURVE",
"33 227 OFFCURVE",
"33 331 CURVE SMOOTH"
);
},
{
closed = 1;
nodes = (
"119 163 OFFCURVE",
"174 68 OFFCURVE",
"289 68 CURVE SMOOTH",
"310 68 LINE",
"310 588 LINE",
"289 588 LINE SMOOTH",
"174 588 OFFCURVE",
"119 499 OFFCURVE",
"119 331 CURVE SMOOTH"
);
}
);
width = 600;
}
);
unicode = 0152;
},
{
glyphname = P;
layers = (
{
layerId = "071E7A8C-CF57-4473-AB35-23A61C6027DA";
name = Regular;
paths = (
{
closed = 1;
nodes = (
"102 656 LINE",
"303 656 LINE SMOOTH",
"375 656 OFFCURVE",
"437 644 OFFCURVE",
"479 614 CURVE SMOOTH",
"521 584 OFFCURVE",
"545 535 OFFCURVE",
"545 463 CURVE SMOOTH",
"545 394 OFFCURVE",
"521 343 OFFCURVE",
"478 310 CURVE SMOOTH",
"435 277 OFFCURVE",
"375 260 OFFCURVE",
"303 260 CURVE SMOOTH",
"185 260 LINE",
"185 0 LINE",
"102 0 LINE"
);
},
{
closed = 1;
nodes = (
"292 328 LINE SMOOTH",
"408 328 OFFCURVE",
"462 370 OFFCURVE",
"462 463 CURVE SMOOTH",
"462 558 OFFCURVE",
"405 589 OFFCURVE",
"292 589 CURVE SMOOTH",
"185 589 LINE",
"185 328 LINE"
);
}
);
width = 600;
}
);
unicode = 0050;
},
{
glyphname = Thorn;
layers = (
{
layerId = "071E7A8C-CF57-4473-AB35-23A61C6027DA";
name = Regular;
paths = (
{
closed = 1;
nodes = (
"101 656 LINE",
"185 656 LINE",
"185 546 LINE",
"303 546 LINE SMOOTH",
"375 546 OFFCURVE",
"437 534 OFFCURVE",
"479 503 CURVE SMOOTH",
"521 472 OFFCURVE",
"545 425 OFFCURVE",
"545 353 CURVE SMOOTH",
"545 284 OFFCURVE",
"521 232 OFFCURVE",
"478 199 CURVE SMOOTH",
"435 166 OFFCURVE",
"375 150 OFFCURVE",
"303 150 CURVE SMOOTH",
"185 150 LINE",
"185 0 LINE",
"101 0 LINE"
);
},
{
closed = 1;
nodes = (
"292 218 LINE SMOOTH",
"408 218 OFFCURVE",
"462 258 OFFCURVE",
"462 353 CURVE SMOOTH",
"462 448 OFFCURVE",
"405 478 OFFCURVE",
"292 478 CURVE SMOOTH",
"185 478 LINE",
"185 218 LINE"
);
}
);
width = 600;
}
);
unicode = 00DE;
},
{
glyphname = Q;
layers = (
{
layerId = "071E7A8C-CF57-4473-AB35-23A61C6027DA";
name = Regular;
paths = (
{
closed = 1;
nodes = (
"134 250 OFFCURVE",
"150 182 OFFCURVE",
"179 135 CURVE SMOOTH",
"207 87 OFFCURVE",
"248 60 OFFCURVE",
"299 60 CURVE SMOOTH",
"348 60 OFFCURVE",
"390 87 OFFCURVE",
"419 135 CURVE SMOOTH",
"447 182 OFFCURVE",
"463 250 OFFCURVE",
"463 331 CURVE SMOOTH",
"463 412 OFFCURVE",
"447 480 OFFCURVE",
"419 526 CURVE SMOOTH",
"390 572 OFFCURVE",
"348 597 OFFCURVE",
"299 597 CURVE SMOOTH",
"248 597 OFFCURVE",
"207 572 OFFCURVE",
"179 526 CURVE SMOOTH",
"150 480 OFFCURVE",
"134 412 OFFCURVE",
"134 331 CURVE SMOOTH"
);
},
{
closed = 1;
nodes = (
"553 -149 LINE",
"532 -157 OFFCURVE",
"508 -163 OFFCURVE",
"479 -163 CURVE SMOOTH",
"363 -163 OFFCURVE",
"291 -97 OFFCURVE",
"258 -8 CURVE",
"195 3 OFFCURVE",
"143 41 OFFCURVE",
"107 99 CURVE SMOOTH",
"70 157 OFFCURVE",
"49 236 OFFCURVE",
"49 331 CURVE SMOOTH",
"49 436 OFFCURVE",
"74 521 OFFCURVE",
"118 579 CURVE SMOOTH",
"162 637 OFFCURVE",
"224 669 OFFCURVE",
"299 669 CURVE SMOOTH",
"372 669 OFFCURVE",
"435 637 OFFCURVE",
"479 579 CURVE SMOOTH",
"523 521 OFFCURVE",
"548 435 OFFCURVE",
"548 331 CURVE SMOOTH",
"548 238 OFFCURVE",
"528 160 OFFCURVE",
"493 102 CURVE SMOOTH",
"458 44 OFFCURVE",
"407 5 OFFCURVE",
"347 -7 CURVE",
"370 -63 OFFCURVE",
"421 -92 OFFCURVE",
"489 -92 CURVE SMOOTH",
"509 -92 OFFCURVE",
"526 -87 OFFCURVE",
"538 -82 CURVE"
);
}
);
width = 600;
}
);
unicode = 0051;
},
{
glyphname = R;
layers = (
{
layerId = "071E7A8C-CF57-4473-AB35-23A61C6027DA";
name = Regular;
paths = (
{
closed = 1;
nodes = (
"183 345 LINE",
"292 345 LINE SMOOTH",
"395 345 OFFCURVE",
"450 387 OFFCURVE",
"450 472 CURVE SMOOTH",
"450 559 OFFCURVE",
"395 589 OFFCURVE",
"292 589 CURVE SMOOTH",
"183 589 LINE"
);
},
{
closed = 1;
nodes = (
"458 0 LINE",
"300 277 LINE",
"183 277 LINE",
"183 0 LINE",
"100 0 LINE",
"100 656 LINE",
"304 656 LINE SMOOTH",
"371 656 OFFCURVE",
"428 644 OFFCURVE",
"469 615 CURVE SMOOTH",
"509 586 OFFCURVE",
"533 540 OFFCURVE",
"533 472 CURVE SMOOTH",
"533 369 OFFCURVE",
"475 309 OFFCURVE",
"386 286 CURVE",
"553 0 LINE"
);
}
);
width = 600;
}
);
unicode = 0052;
},
{
glyphname = Racute;
layers = (
{
layerId = "071E7A8C-CF57-4473-AB35-23A61C6027DA";
name = Regular;
paths = (
{
closed = 1;
nodes = (
"183 345 LINE",
"292 345 LINE SMOOTH",
"395 345 OFFCURVE",
"450 387 OFFCURVE",
"450 472 CURVE SMOOTH",
"450 559 OFFCURVE",
"395 589 OFFCURVE",
"292 589 CURVE SMOOTH",
"183 589 LINE"
);
},
{
closed = 1;
nodes = (
"458 0 LINE",
"300 277 LINE",
"183 277 LINE",
"183 0 LINE",
"100 0 LINE",
"100 656 LINE",
"304 656 LINE SMOOTH",
"371 656 OFFCURVE",
"428 644 OFFCURVE",
"469 615 CURVE SMOOTH",
"509 586 OFFCURVE",
"533 540 OFFCURVE",
"533 472 CURVE SMOOTH",
"533 369 OFFCURVE",
"475 309 OFFCURVE",
"386 286 CURVE",
"553 0 LINE"
);
},
{
closed = 1;
nodes = (
"323 706 LINE",
"254 706 LINE",
"342 818 LINE",
"436 818 LINE"
);
}
);
width = 600;
}
);
unicode = 0154;
},
{
glyphname = Rcaron;
layers = (
{
layerId = "071E7A8C-CF57-4473-AB35-23A61C6027DA";
name = Regular;
paths = (
{
closed = 1;
nodes = (
"183 345 LINE",
"292 345 LINE SMOOTH",
"395 345 OFFCURVE",
"450 387 OFFCURVE",
"450 472 CURVE SMOOTH",
"450 559 OFFCURVE",
"395 589 OFFCURVE",
"292 589 CURVE SMOOTH",
"183 589 LINE"
);
},
{
closed = 1;
nodes = (
"458 0 LINE",
"300 277 LINE",
"183 277 LINE",
"183 0 LINE",
"100 0 LINE",
"100 656 LINE",
"304 656 LINE SMOOTH",
"371 656 OFFCURVE",
"428 644 OFFCURVE",
"469 615 CURVE SMOOTH",
"509 586 OFFCURVE",
"533 540 OFFCURVE",
"533 472 CURVE SMOOTH",
"533 369 OFFCURVE",
"475 309 OFFCURVE",
"386 286 CURVE",
"553 0 LINE"
);
},
{
closed = 1;
nodes = (
"441 818 LINE",
"345 706 LINE",
"265 706 LINE",
"169 818 LINE",
"236 818 LINE",
"303 750 LINE",
"307 750 LINE",
"374 818 LINE"
);
}
);
width = 600;
}
);
unicode = 0158;
},
{
glyphname = Rcommaaccent;
layers = (
{
layerId = "071E7A8C-CF57-4473-AB35-23A61C6027DA";
name = Regular;
paths = (
{
closed = 1;
nodes = (
"183 345 LINE",
"292 345 LINE SMOOTH",
"395 345 OFFCURVE",
"450 387 OFFCURVE",
"450 472 CURVE SMOOTH",
"450 559 OFFCURVE",
"395 589 OFFCURVE",
"292 589 CURVE SMOOTH",
"183 589 LINE"
);
},
{
closed = 1;
nodes = (
"458 0 LINE",
"300 277 LINE",
"183 277 LINE",
"183 0 LINE",
"100 0 LINE",
"100 656 LINE",
"304 656 LINE SMOOTH",
"371 656 OFFCURVE",
"428 644 OFFCURVE",
"469 615 CURVE SMOOTH",
"509 586 OFFCURVE",
"533 540 OFFCURVE",
"533 472 CURVE SMOOTH",
"533 369 OFFCURVE",
"475 309 OFFCURVE",
"386 286 CURVE",
"553 0 LINE"
);
},
{
closed = 1;
nodes = (
"359 -59 OFFCURVE",
"388 -80 OFFCURVE",
"388 -125 CURVE SMOOTH",
"388 -154 OFFCURVE",
"371 -175 OFFCURVE",
"344 -190 CURVE SMOOTH",
"317 -205 OFFCURVE",
"280 -213 OFFCURVE",
"243 -216 CURVE",
"235 -176 LINE",
"288 -169 OFFCURVE",
"324 -157 OFFCURVE",
"324 -130 CURVE SMOOTH",
"324 -103 OFFCURVE",
"301 -93 OFFCURVE",
"273 -86 CURVE",
"291 -48 LINE"
);
}
);
width = 600;
}
);
unicode = 0156;
},
{
glyphname = Rdotbelow;
layers = (
{
layerId = "071E7A8C-CF57-4473-AB35-23A61C6027DA";
name = Regular;
paths = (
{
closed = 1;
nodes = (
"183 345 LINE",
"292 345 LINE SMOOTH",
"395 345 OFFCURVE",
"450 387 OFFCURVE",
"450 472 CURVE SMOOTH",
"450 559 OFFCURVE",
"395 589 OFFCURVE",
"292 589 CURVE SMOOTH",
"183 589 LINE"
);
},
{
closed = 1;
nodes = (
"458 0 LINE",
"300 277 LINE",
"183 277 LINE",
"183 0 LINE",
"100 0 LINE",
"100 656 LINE",
"304 656 LINE SMOOTH",
"371 656 OFFCURVE",
"428 644 OFFCURVE",
"469 615 CURVE SMOOTH",
"509 586 OFFCURVE",
"533 540 OFFCURVE",
"533 472 CURVE SMOOTH",
"533 369 OFFCURVE",
"475 309 OFFCURVE",
"386 286 CURVE",
"553 0 LINE"
);
},
{
closed = 1;
nodes = (
"283 -226 OFFCURVE",
"254 -202 OFFCURVE",
"254 -163 CURVE SMOOTH",
"254 -124 OFFCURVE",
"283 -99 OFFCURVE",
"320 -99 CURVE SMOOTH",
"357 -99 OFFCURVE",
"386 -124 OFFCURVE",
"386 -163 CURVE SMOOTH",
"386 -202 OFFCURVE",
"357 -226 OFFCURVE",
"320 -226 CURVE SMOOTH"
);
}
);
width = 600;
}
);
unicode = 1E5A;
},
{
glyphname = Rdotbelowmacron;
layers = (
{
layerId = "071E7A8C-CF57-4473-AB35-23A61C6027DA";
name = Regular;
paths = (
{
closed = 1;
nodes = (
"183 345 LINE",
"292 345 LINE SMOOTH",
"395 345 OFFCURVE",
"450 387 OFFCURVE",
"450 472 CURVE SMOOTH",
"450 559 OFFCURVE",
"395 589 OFFCURVE",
"292 589 CURVE SMOOTH",
"183 589 LINE"
);
},
{
closed = 1;
nodes = (
"458 0 LINE",
"300 277 LINE",
"183 277 LINE",
"183 0 LINE",
"100 0 LINE",
"100 656 LINE",
"304 656 LINE SMOOTH",
"371 656 OFFCURVE",
"428 644 OFFCURVE",
"469 615 CURVE SMOOTH",
"509 586 OFFCURVE",
"533 540 OFFCURVE",
"533 472 CURVE SMOOTH",
"533 369 OFFCURVE",
"475 309 OFFCURVE",
"386 286 CURVE",
"553 0 LINE"
);
},
{
closed = 1;
nodes = (
"181 786 LINE",
"429 786 LINE",
"429 729 LINE",
"181 729 LINE"
);
},
{
closed = 1;
nodes = (
"283 -226 OFFCURVE",
"254 -202 OFFCURVE",
"254 -163 CURVE SMOOTH",
"254 -124 OFFCURVE",
"283 -99 OFFCURVE",
"320 -99 CURVE SMOOTH",
"357 -99 OFFCURVE",
"386 -124 OFFCURVE",
"386 -163 CURVE SMOOTH",
"386 -202 OFFCURVE",
"357 -226 OFFCURVE",
"320 -226 CURVE SMOOTH"
);
}
);
width = 600;
}
);
unicode = 1E5C;
},
{
glyphname = Rlinebelow;
layers = (
{
layerId = "071E7A8C-CF57-4473-AB35-23A61C6027DA";
name = Regular;
paths = (
{
closed = 1;
nodes = (
"183 345 LINE",
"292 345 LINE SMOOTH",
"395 345 OFFCURVE",
"450 387 OFFCURVE",
"450 472 CURVE SMOOTH",
"450 559 OFFCURVE",
"395 589 OFFCURVE",
"292 589 CURVE SMOOTH",
"183 589 LINE"
);
},
{
closed = 1;
nodes = (
"458 0 LINE",
"300 277 LINE",
"183 277 LINE",
"183 0 LINE",
"100 0 LINE",
"100 656 LINE",
"304 656 LINE SMOOTH",
"371 656 OFFCURVE",
"428 644 OFFCURVE",
"469 615 CURVE SMOOTH",
"509 586 OFFCURVE",
"533 540 OFFCURVE",
"533 472 CURVE SMOOTH",
"533 369 OFFCURVE",
"475 309 OFFCURVE",
"386 286 CURVE",
"553 0 LINE"
);
},
{
closed = 1;
nodes = (
"443 -171 LINE",
"196 -171 LINE",
"196 -113 LINE",
"443 -113 LINE"
);
}
);
width = 600;
}
);
unicode = 1E5E;
},
{
glyphname = S;
layers = (
{
layerId = "071E7A8C-CF57-4473-AB35-23A61C6027DA";
name = Regular;
paths = (
{
closed = 1;
nodes = (
"117 143 LINE",
"166 94 OFFCURVE",
"234 61 OFFCURVE",
"306 61 CURVE SMOOTH",
"399 61 OFFCURVE",
"452 104 OFFCURVE",
"452 168 CURVE SMOOTH",
"452 201 OFFCURVE",
"439 224 OFFCURVE",
"418 241 CURVE SMOOTH",
"397 257 OFFCURVE",
"367 269 OFFCURVE",
"334 284 CURVE SMOOTH",
"240 325 LINE",
"207 338 OFFCURVE",
"172 356 OFFCURVE",
"145 383 CURVE SMOOTH",
"117 410 OFFCURVE",
"98 446 OFFCURVE",
"98 494 CURVE SMOOTH",
"98 543 OFFCURVE",
"121 587 OFFCURVE",
"159 619 CURVE SMOOTH",
"197 650 OFFCURVE",
"250 668 OFFCURVE",
"313 668 CURVE SMOOTH",
"396 668 OFFCURVE",
"467 635 OFFCURVE",
"515 587 CURVE",
"471 533 LINE",
"428 572 OFFCURVE",
"378 595 OFFCURVE",
"313 595 CURVE SMOOTH",
"233 595 OFFCURVE",
"183 559 OFFCURVE",
"183 499 CURVE SMOOTH",
"183 467 OFFCURVE",
"199 446 OFFCURVE",
"221 430 CURVE",
"232 421 OFFCURVE",
"244 414 OFFCURVE",
"258 408 CURVE SMOOTH",
"272 402 OFFCURVE",
"286 396 OFFCURVE",
"300 390 CURVE SMOOTH",
"392 350 LINE SMOOTH",
"432 334 OFFCURVE",
"469 314 OFFCURVE",
"495 287 CURVE SMOOTH",
"521 259 OFFCURVE",
"537 223 OFFCURVE",
"537 175 CURVE SMOOTH",
"537 123 OFFCURVE",
"515 77 OFFCURVE",
"475 43 CURVE SMOOTH",
"435 9 OFFCURVE",
"377 -12 OFFCURVE",
"305 -12 CURVE SMOOTH",
"209 -12 OFFCURVE",
"127 25 OFFCURVE",
"67 85 CURVE"
);
}
);
width = 600;
}
);
unicode = 0053;
},
{
glyphname = Sacute;
layers = (
{
layerId = "071E7A8C-CF57-4473-AB35-23A61C6027DA";
name = Regular;
paths = (
{
closed = 1;
nodes = (
"117 143 LINE",
"166 94 OFFCURVE",
"234 61 OFFCURVE",
"306 61 CURVE SMOOTH",
"399 61 OFFCURVE",
"452 104 OFFCURVE",
"452 168 CURVE SMOOTH",
"452 201 OFFCURVE",
"439 224 OFFCURVE",
"418 241 CURVE SMOOTH",
"397 257 OFFCURVE",
"367 269 OFFCURVE",
"334 284 CURVE SMOOTH",
"240 325 LINE",
"207 338 OFFCURVE",
"172 356 OFFCURVE",
"145 383 CURVE SMOOTH",
"117 410 OFFCURVE",
"98 446 OFFCURVE",
"98 494 CURVE SMOOTH",
"98 543 OFFCURVE",
"121 587 OFFCURVE",
"159 619 CURVE SMOOTH",
"197 650 OFFCURVE",
"250 668 OFFCURVE",
"313 668 CURVE SMOOTH",
"396 668 OFFCURVE",
"467 635 OFFCURVE",
"515 587 CURVE",
"471 533 LINE",
"428 572 OFFCURVE",
"378 595 OFFCURVE",
"313 595 CURVE SMOOTH",
"233 595 OFFCURVE",
"183 559 OFFCURVE",
"183 499 CURVE SMOOTH",
"183 467 OFFCURVE",
"199 446 OFFCURVE",
"221 430 CURVE",
"232 421 OFFCURVE",
"244 414 OFFCURVE",
"258 408 CURVE SMOOTH",
"272 402 OFFCURVE",
"286 396 OFFCURVE",
"300 390 CURVE SMOOTH",
"392 350 LINE SMOOTH",
"432 334 OFFCURVE",
"469 314 OFFCURVE",
"495 287 CURVE SMOOTH",
"521 259 OFFCURVE",
"537 223 OFFCURVE",
"537 175 CURVE SMOOTH",
"537 123 OFFCURVE",
"515 77 OFFCURVE",
"475 43 CURVE SMOOTH",
"435 9 OFFCURVE",
"377 -12 OFFCURVE",
"305 -12 CURVE SMOOTH",
"209 -12 OFFCURVE",
"127 25 OFFCURVE",
"67 85 CURVE"
);
},
{
closed = 1;
nodes = (
"329 706 LINE",
"260 706 LINE",
"348 818 LINE",
"442 818 LINE"
);
}
);
width = 600;
}
);
unicode = 015A;
},
{
glyphname = Scaron;
layers = (
{
layerId = "071E7A8C-CF57-4473-AB35-23A61C6027DA";
name = Regular;
paths = (
{
closed = 1;
nodes = (
"117 143 LINE",
"166 94 OFFCURVE",
"234 61 OFFCURVE",
"306 61 CURVE SMOOTH",
"399 61 OFFCURVE",
"452 104 OFFCURVE",
"452 168 CURVE SMOOTH",
"452 201 OFFCURVE",
"439 224 OFFCURVE",
"418 241 CURVE SMOOTH",
"397 257 OFFCURVE",
"367 269 OFFCURVE",
"334 284 CURVE SMOOTH",
"240 325 LINE",
"207 338 OFFCURVE",
"172 356 OFFCURVE",
"145 383 CURVE SMOOTH",
"117 410 OFFCURVE",
"98 446 OFFCURVE",
"98 494 CURVE SMOOTH",
"98 543 OFFCURVE",
"121 587 OFFCURVE",
"159 619 CURVE SMOOTH",
"197 650 OFFCURVE",
"250 668 OFFCURVE",
"313 668 CURVE SMOOTH",
"396 668 OFFCURVE",
"467 635 OFFCURVE",
"515 587 CURVE",
"471 533 LINE",
"428 572 OFFCURVE",
"378 595 OFFCURVE",
"313 595 CURVE SMOOTH",
"233 595 OFFCURVE",
"183 559 OFFCURVE",
"183 499 CURVE SMOOTH",
"183 467 OFFCURVE",
"199 446 OFFCURVE",
"221 430 CURVE",
"232 421 OFFCURVE",
"244 414 OFFCURVE",
"258 408 CURVE SMOOTH",
"272 402 OFFCURVE",
"286 396 OFFCURVE",
"300 390 CURVE SMOOTH",
"392 350 LINE SMOOTH",
"432 334 OFFCURVE",
"469 314 OFFCURVE",
"495 287 CURVE SMOOTH",
"521 259 OFFCURVE",
"537 223 OFFCURVE",
"537 175 CURVE SMOOTH",
"537 123 OFFCURVE",
"515 77 OFFCURVE",
"475 43 CURVE SMOOTH",
"435 9 OFFCURVE",
"377 -12 OFFCURVE",
"305 -12 CURVE SMOOTH",
"209 -12 OFFCURVE",
"127 25 OFFCURVE",
"67 85 CURVE"
);
},
{
closed = 1;
nodes = (
"447 818 LINE",
"351 706 LINE",
"271 706 LINE",
"175 818 LINE",
"242 818 LINE",
"309 750 LINE",
"313 750 LINE",
"380 818 LINE"
);
}
);
width = 600;
}
);
unicode = 0160;
},
{
glyphname = Scedilla;
layers = (
{
layerId = "071E7A8C-CF57-4473-AB35-23A61C6027DA";
name = Regular;
paths = (
{
closed = 1;
nodes = (
"117 143 LINE",
"166 94 OFFCURVE",
"234 61 OFFCURVE",
"306 61 CURVE SMOOTH",
"399 61 OFFCURVE",
"452 104 OFFCURVE",
"452 168 CURVE SMOOTH",
"452 201 OFFCURVE",
"439 224 OFFCURVE",
"418 241 CURVE SMOOTH",
"397 257 OFFCURVE",
"367 269 OFFCURVE",
"334 284 CURVE SMOOTH",
"240 325 LINE",
"207 338 OFFCURVE",
"172 356 OFFCURVE",
"145 383 CURVE SMOOTH",
"117 410 OFFCURVE",
"98 446 OFFCURVE",
"98 494 CURVE SMOOTH",
"98 543 OFFCURVE",
"121 587 OFFCURVE",
"159 619 CURVE SMOOTH",
"197 650 OFFCURVE",
"250 668 OFFCURVE",
"313 668 CURVE SMOOTH",
"396 668 OFFCURVE",
"467 635 OFFCURVE",
"515 587 CURVE",
"471 533 LINE",
"428 572 OFFCURVE",
"378 595 OFFCURVE",
"313 595 CURVE SMOOTH",
"233 595 OFFCURVE",
"183 559 OFFCURVE",
"183 499 CURVE SMOOTH",
"183 467 OFFCURVE",
"199 446 OFFCURVE",
"221 430 CURVE",
"232 421 OFFCURVE",
"244 414 OFFCURVE",
"258 408 CURVE SMOOTH",
"272 402 OFFCURVE",
"286 396 OFFCURVE",
"300 390 CURVE SMOOTH",
"392 350 LINE SMOOTH",
"432 334 OFFCURVE",
"469 314 OFFCURVE",
"495 287 CURVE SMOOTH",
"521 259 OFFCURVE",
"537 223 OFFCURVE",
"537 175 CURVE SMOOTH",
"537 123 OFFCURVE",
"515 77 OFFCURVE",
"475 43 CURVE SMOOTH",
"435 9 OFFCURVE",
"377 -12 OFFCURVE",
"305 -12 CURVE SMOOTH",
"209 -12 OFFCURVE",
"127 25 OFFCURVE",
"67 85 CURVE"
);
},
{
closed = 1;
nodes = (
"288 3 LINE",
"342 3 LINE",
"317 -50 LINE",
"349 -61 OFFCURVE",
"376 -80 OFFCURVE",
"376 -121 CURVE SMOOTH",
"376 -150 OFFCURVE",
"359 -171 OFFCURVE",
"332 -186 CURVE SMOOTH",
"305 -201 OFFCURVE",
"268 -209 OFFCURVE",
"231 -213 CURVE",
"223 -172 LINE",
"276 -165 OFFCURVE",
"312 -151 OFFCURVE",
"312 -124 CURVE SMOOTH",
"312 -97 OFFCURVE",
"289 -86 OFFCURVE",
"248 -75 CURVE"
);
}
);
width = 600;
}
);
unicode = 015E;
},
{
glyphname = Scircumflex;
layers = (
{
layerId = "071E7A8C-CF57-4473-AB35-23A61C6027DA";
name = Regular;
paths = (
{
closed = 1;
nodes = (
"117 143 LINE",
"166 94 OFFCURVE",
"234 61 OFFCURVE",
"306 61 CURVE SMOOTH",
"399 61 OFFCURVE",
"452 104 OFFCURVE",
"452 168 CURVE SMOOTH",
"452 201 OFFCURVE",
"439 224 OFFCURVE",
"418 241 CURVE SMOOTH",
"397 257 OFFCURVE",
"367 269 OFFCURVE",
"334 284 CURVE SMOOTH",
"240 325 LINE",
"207 338 OFFCURVE",
"172 356 OFFCURVE",
"145 383 CURVE SMOOTH",
"117 410 OFFCURVE",
"98 446 OFFCURVE",
"98 494 CURVE SMOOTH",
"98 543 OFFCURVE",
"121 587 OFFCURVE",
"159 619 CURVE SMOOTH",
"197 650 OFFCURVE",
"250 668 OFFCURVE",
"313 668 CURVE SMOOTH",
"396 668 OFFCURVE",
"467 635 OFFCURVE",
"515 587 CURVE",
"471 533 LINE",
"428 572 OFFCURVE",
"378 595 OFFCURVE",
"313 595 CURVE SMOOTH",
"233 595 OFFCURVE",
"183 559 OFFCURVE",
"183 499 CURVE SMOOTH",
"183 467 OFFCURVE",
"199 446 OFFCURVE",
"221 430 CURVE",
"232 421 OFFCURVE",
"244 414 OFFCURVE",
"258 408 CURVE SMOOTH",
"272 402 OFFCURVE",
"286 396 OFFCURVE",
"300 390 CURVE SMOOTH",
"392 350 LINE SMOOTH",
"432 334 OFFCURVE",
"469 314 OFFCURVE",
"495 287 CURVE SMOOTH",
"521 259 OFFCURVE",
"537 223 OFFCURVE",
"537 175 CURVE SMOOTH",
"537 123 OFFCURVE",
"515 77 OFFCURVE",
"475 43 CURVE SMOOTH",
"435 9 OFFCURVE",
"377 -12 OFFCURVE",
"305 -12 CURVE SMOOTH",
"209 -12 OFFCURVE",
"127 25 OFFCURVE",
"67 85 CURVE"
);
},
{
closed = 1;
nodes = (
"175 706 LINE",
"271 818 LINE",
"351 818 LINE",
"447 706 LINE",
"380 706 LINE",
"313 774 LINE",
"309 774 LINE",
"242 706 LINE"
);
}
);
width = 600;
}
);
unicode = 015C;
},
{
glyphname = Scommaaccent;
layers = (
{
layerId = "071E7A8C-CF57-4473-AB35-23A61C6027DA";
name = Regular;
paths = (
{
closed = 1;
nodes = (
"117 143 LINE",
"166 94 OFFCURVE",
"234 61 OFFCURVE",
"306 61 CURVE SMOOTH",
"399 61 OFFCURVE",
"452 104 OFFCURVE",
"452 168 CURVE SMOOTH",
"452 201 OFFCURVE",
"439 224 OFFCURVE",
"418 241 CURVE SMOOTH",
"397 257 OFFCURVE",
"367 269 OFFCURVE",
"334 284 CURVE SMOOTH",
"240 325 LINE",
"207 338 OFFCURVE",
"172 356 OFFCURVE",
"145 383 CURVE SMOOTH",
"117 410 OFFCURVE",
"98 446 OFFCURVE",
"98 494 CURVE SMOOTH",
"98 543 OFFCURVE",
"121 587 OFFCURVE",
"159 619 CURVE SMOOTH",
"197 650 OFFCURVE",
"250 668 OFFCURVE",
"313 668 CURVE SMOOTH",
"396 668 OFFCURVE",
"467 635 OFFCURVE",
"515 587 CURVE",
"471 533 LINE",
"428 572 OFFCURVE",
"378 595 OFFCURVE",
"313 595 CURVE SMOOTH",
"233 595 OFFCURVE",
"183 559 OFFCURVE",
"183 499 CURVE SMOOTH",
"183 467 OFFCURVE",
"199 446 OFFCURVE",
"221 430 CURVE",
"232 421 OFFCURVE",
"244 414 OFFCURVE",
"258 408 CURVE SMOOTH",
"272 402 OFFCURVE",
"286 396 OFFCURVE",
"300 390 CURVE SMOOTH",
"392 350 LINE SMOOTH",
"432 334 OFFCURVE",
"469 314 OFFCURVE",
"495 287 CURVE SMOOTH",
"521 259 OFFCURVE",
"537 223 OFFCURVE",
"537 175 CURVE SMOOTH",
"537 123 OFFCURVE",
"515 77 OFFCURVE",
"475 43 CURVE SMOOTH",
"435 9 OFFCURVE",
"377 -12 OFFCURVE",
"305 -12 CURVE SMOOTH",
"209 -12 OFFCURVE",
"127 25 OFFCURVE",
"67 85 CURVE"
);
},
{
closed = 1;
nodes = (
"349 -59 OFFCURVE",
"378 -80 OFFCURVE",
"378 -125 CURVE SMOOTH",
"378 -154 OFFCURVE",
"361 -175 OFFCURVE",
"334 -190 CURVE SMOOTH",
"307 -205 OFFCURVE",
"270 -213 OFFCURVE",
"233 -216 CURVE",
"225 -176 LINE",
"278 -169 OFFCURVE",
"314 -157 OFFCURVE",
"314 -130 CURVE SMOOTH",
"314 -103 OFFCURVE",
"291 -93 OFFCURVE",
"263 -86 CURVE",
"281 -48 LINE"
);
}
);
width = 600;
}
);
unicode = 0218;
},
{
glyphname = Sdotaccent;
layers = (
{
layerId = "071E7A8C-CF57-4473-AB35-23A61C6027DA";
name = Regular;
paths = (
{
closed = 1;
nodes = (
"117 143 LINE",
"166 94 OFFCURVE",
"234 61 OFFCURVE",
"306 61 CURVE SMOOTH",
"399 61 OFFCURVE",
"452 104 OFFCURVE",
"452 168 CURVE SMOOTH",
"452 201 OFFCURVE",
"439 224 OFFCURVE",
"418 241 CURVE SMOOTH",
"397 257 OFFCURVE",
"367 269 OFFCURVE",
"334 284 CURVE SMOOTH",
"240 325 LINE",
"207 338 OFFCURVE",
"172 356 OFFCURVE",
"145 383 CURVE SMOOTH",
"117 410 OFFCURVE",
"98 446 OFFCURVE",
"98 494 CURVE SMOOTH",
"98 543 OFFCURVE",
"121 587 OFFCURVE",
"159 619 CURVE SMOOTH",
"197 650 OFFCURVE",
"250 668 OFFCURVE",
"313 668 CURVE SMOOTH",
"396 668 OFFCURVE",
"467 635 OFFCURVE",
"515 587 CURVE",
"471 533 LINE",
"428 572 OFFCURVE",
"378 595 OFFCURVE",
"313 595 CURVE SMOOTH",
"233 595 OFFCURVE",
"183 559 OFFCURVE",
"183 499 CURVE SMOOTH",
"183 467 OFFCURVE",
"199 446 OFFCURVE",
"221 430 CURVE",
"232 421 OFFCURVE",
"244 414 OFFCURVE",
"258 408 CURVE SMOOTH",
"272 402 OFFCURVE",
"286 396 OFFCURVE",
"300 390 CURVE SMOOTH",
"392 350 LINE SMOOTH",
"432 334 OFFCURVE",
"469 314 OFFCURVE",
"495 287 CURVE SMOOTH",
"521 259 OFFCURVE",
"537 223 OFFCURVE",
"537 175 CURVE SMOOTH",
"537 123 OFFCURVE",
"515 77 OFFCURVE",
"475 43 CURVE SMOOTH",
"435 9 OFFCURVE",
"377 -12 OFFCURVE",
"305 -12 CURVE SMOOTH",
"209 -12 OFFCURVE",
"127 25 OFFCURVE",
"67 85 CURVE"
);
},
{
closed = 1;
nodes = (
"279 714 OFFCURVE",
"254 736 OFFCURVE",
"254 768 CURVE SMOOTH",
"254 799 OFFCURVE",
"279 821 OFFCURVE",
"311 821 CURVE SMOOTH",
"343 821 OFFCURVE",
"368 799 OFFCURVE",
"368 768 CURVE SMOOTH",
"368 736 OFFCURVE",
"343 714 OFFCURVE",
"311 714 CURVE SMOOTH"
);
}
);
width = 600;
}
);
unicode = 1E60;
},
{
glyphname = Sdotbelow;
layers = (
{
layerId = "071E7A8C-CF57-4473-AB35-23A61C6027DA";
name = Regular;
paths = (
{
closed = 1;
nodes = (
"117 143 LINE",
"166 94 OFFCURVE",
"234 61 OFFCURVE",
"306 61 CURVE SMOOTH",
"399 61 OFFCURVE",
"452 104 OFFCURVE",
"452 168 CURVE SMOOTH",
"452 201 OFFCURVE",
"439 224 OFFCURVE",
"418 241 CURVE SMOOTH",
"397 257 OFFCURVE",
"367 269 OFFCURVE",
"334 284 CURVE SMOOTH",
"240 325 LINE",
"207 338 OFFCURVE",
"172 356 OFFCURVE",
"145 383 CURVE SMOOTH",
"117 410 OFFCURVE",
"98 446 OFFCURVE",
"98 494 CURVE SMOOTH",
"98 543 OFFCURVE",
"121 587 OFFCURVE",
"159 619 CURVE SMOOTH",
"197 650 OFFCURVE",
"250 668 OFFCURVE",
"313 668 CURVE SMOOTH",
"396 668 OFFCURVE",
"467 635 OFFCURVE",
"515 587 CURVE",
"471 533 LINE",
"428 572 OFFCURVE",
"378 595 OFFCURVE",
"313 595 CURVE SMOOTH",
"233 595 OFFCURVE",
"183 559 OFFCURVE",
"183 499 CURVE SMOOTH",
"183 467 OFFCURVE",
"199 446 OFFCURVE",
"221 430 CURVE",
"232 421 OFFCURVE",
"244 414 OFFCURVE",
"258 408 CURVE SMOOTH",
"272 402 OFFCURVE",
"286 396 OFFCURVE",
"300 390 CURVE SMOOTH",
"392 350 LINE SMOOTH",
"432 334 OFFCURVE",
"469 314 OFFCURVE",
"495 287 CURVE SMOOTH",
"521 259 OFFCURVE",
"537 223 OFFCURVE",
"537 175 CURVE SMOOTH",
"537 123 OFFCURVE",
"515 77 OFFCURVE",
"475 43 CURVE SMOOTH",
"435 9 OFFCURVE",
"377 -12 OFFCURVE",
"305 -12 CURVE SMOOTH",
"209 -12 OFFCURVE",
"127 25 OFFCURVE",
"67 85 CURVE"
);
},
{
closed = 1;
nodes = (
"273 -226 OFFCURVE",
"244 -202 OFFCURVE",
"244 -163 CURVE SMOOTH",
"244 -124 OFFCURVE",
"273 -99 OFFCURVE",
"310 -99 CURVE SMOOTH",
"347 -99 OFFCURVE",
"376 -124 OFFCURVE",
"376 -163 CURVE SMOOTH",
"376 -202 OFFCURVE",
"347 -226 OFFCURVE",
"310 -226 CURVE SMOOTH"
);
}
);
width = 600;
}
);
unicode = 1E62;
},
{
glyphname = Germandbls;
layers = (
{
layerId = "071E7A8C-CF57-4473-AB35-23A61C6027DA";
name = Regular;
paths = (
{
closed = 1;
nodes = (
"79 432 LINE SMOOTH",
"79 499 OFFCURVE",
"98 559 OFFCURVE",
"136 601 CURVE SMOOTH",
"174 643 OFFCURVE",
"232 668 OFFCURVE",
"311 668 CURVE SMOOTH",
"415 668 OFFCURVE",
"479 607 OFFCURVE",
"510 514 CURVE",
"393 362 LINE",
"510 334 OFFCURVE",
"563 267 OFFCURVE",
"563 171 CURVE SMOOTH",
"563 119 OFFCURVE",
"547 73 OFFCURVE",
"517 41 CURVE SMOOTH",
"487 8 OFFCURVE",
"444 -12 OFFCURVE",
"391 -12 CURVE SMOOTH",
"322 -12 OFFCURVE",
"265 17 OFFCURVE",
"229 61 CURVE",
"277 114 LINE",
"310 75 OFFCURVE",
"343 58 OFFCURVE",
"383 58 CURVE SMOOTH",
"442 58 OFFCURVE",
"475 104 OFFCURVE",
"475 171 CURVE SMOOTH",
"475 202 OFFCURVE",
"466 230 OFFCURVE",
"441 254 CURVE SMOOTH",
"416 278 OFFCURVE",
"375 297 OFFCURVE",
"310 310 CURVE",
"305 364 LINE",
"423 517 LINE",
"404 562 OFFCURVE",
"367 599 OFFCURVE",
"308 599 CURVE SMOOTH",
"217 599 OFFCURVE",
"164 541 OFFCURVE",
"164 416 CURVE SMOOTH",
"164 0 LINE",
"79 0 LINE"
);
}
);
width = 600;
}
);
unicode = 1E9E;
},
{
glyphname = Schwa;
layers = (
{
layerId = "071E7A8C-CF57-4473-AB35-23A61C6027DA";
name = Regular;
paths = (
{
closed = 1;
nodes = (
"147 283 LINE",
"156 142 OFFCURVE",
"214 59 OFFCURVE",
"302 59 CURVE SMOOTH",
"393 59 OFFCURVE",
"454 144 OFFCURVE",
"465 284 CURVE"
);
},
{
closed = 1;
nodes = (
"131 595 LINE",
"172 638 OFFCURVE",
"229 668 OFFCURVE",
"306 668 CURVE SMOOTH",
"382 668 OFFCURVE",
"443 636 OFFCURVE",
"485 578 CURVE SMOOTH",
"527 520 OFFCURVE",
"550 435 OFFCURVE",
"550 330 CURVE SMOOTH",
"550 225 OFFCURVE",
"525 140 OFFCURVE",
"482 81 CURVE SMOOTH",
"438 21 OFFCURVE",
"375 -12 OFFCURVE",
"302 -12 CURVE SMOOTH",
"229 -12 OFFCURVE",
"168 21 OFFCURVE",
"127 81 CURVE SMOOTH",
"86 140 OFFCURVE",
"62 224 OFFCURVE",
"62 325 CURVE SMOOTH",
"62 332 OFFCURVE",
"63 340 OFFCURVE",
"64 347 CURVE",
"467 347 LINE",
"463 504 OFFCURVE",
"407 597 OFFCURVE",
"300 597 CURVE SMOOTH",
"245 597 OFFCURVE",
"202 573 OFFCURVE",
"169 538 CURVE"
);
}
);
width = 600;
}
);
unicode = 018F;
},
{
glyphname = T;
layers = (
{
layerId = "071E7A8C-CF57-4473-AB35-23A61C6027DA";
name = Regular;
paths = (
{
closed = 1;
nodes = (
"258 586 LINE",
"42 586 LINE",
"42 656 LINE",
"558 656 LINE",
"558 586 LINE",
"342 586 LINE",
"342 0 LINE",
"258 0 LINE"
);
}
);
width = 600;
}
);
unicode = 0054;
},
{
glyphname = Tcaron;
layers = (
{
layerId = "071E7A8C-CF57-4473-AB35-23A61C6027DA";
name = Regular;
paths = (
{
closed = 1;
nodes = (
"258 586 LINE",
"42 586 LINE",
"42 656 LINE",
"558 656 LINE",
"558 586 LINE",
"342 586 LINE",
"342 0 LINE",
"258 0 LINE"
);
},
{
closed = 1;
nodes = (
"436 818 LINE",
"340 706 LINE",
"260 706 LINE",
"164 818 LINE",
"231 818 LINE",
"298 750 LINE",
"302 750 LINE",
"369 818 LINE"
);
}
);
width = 600;
}
);
unicode = 0164;
},
{
glyphname = Tcedilla;
layers = (
{
layerId = "071E7A8C-CF57-4473-AB35-23A61C6027DA";
name = Regular;
paths = (
{
closed = 1;
nodes = (
"258 586 LINE",
"42 586 LINE",
"42 656 LINE",
"558 656 LINE",
"558 586 LINE",
"342 586 LINE",
"342 0 LINE",
"258 0 LINE"
);
},
{
closed = 1;
nodes = (
"275 3 LINE",
"329 3 LINE",
"304 -50 LINE",
"336 -61 OFFCURVE",
"363 -80 OFFCURVE",
"363 -121 CURVE SMOOTH",
"363 -150 OFFCURVE",
"346 -171 OFFCURVE",
"319 -186 CURVE SMOOTH",
"292 -201 OFFCURVE",
"255 -209 OFFCURVE",
"218 -213 CURVE",
"210 -172 LINE",
"263 -165 OFFCURVE",
"299 -151 OFFCURVE",
"299 -124 CURVE SMOOTH",
"299 -97 OFFCURVE",
"276 -86 OFFCURVE",
"235 -75 CURVE"
);
}
);
width = 600;
}
);
unicode = 0162;
},
{
glyphname = Tcommaaccent;
layers = (
{
layerId = "071E7A8C-CF57-4473-AB35-23A61C6027DA";
name = Regular;
paths = (
{
closed = 1;
nodes = (
"258 586 LINE",
"42 586 LINE",
"42 656 LINE",
"558 656 LINE",
"558 586 LINE",
"342 586 LINE",
"342 0 LINE",
"258 0 LINE"
);
},
{
closed = 1;
nodes = (
"340 -59 OFFCURVE",
"369 -80 OFFCURVE",
"369 -125 CURVE SMOOTH",
"369 -154 OFFCURVE",
"352 -175 OFFCURVE",
"325 -190 CURVE SMOOTH",
"298 -205 OFFCURVE",
"261 -213 OFFCURVE",
"224 -216 CURVE",
"216 -176 LINE",
"269 -169 OFFCURVE",
"305 -157 OFFCURVE",
"305 -130 CURVE SMOOTH",
"305 -103 OFFCURVE",
"282 -93 OFFCURVE",
"254 -86 CURVE",
"272 -48 LINE"
);
}
);
width = 600;
}
);
unicode = 021A;
},
{
glyphname = Tdotbelow;
layers = (
{
layerId = "071E7A8C-CF57-4473-AB35-23A61C6027DA";
name = Regular;
paths = (
{
closed = 1;
nodes = (
"258 586 LINE",
"42 586 LINE",
"42 656 LINE",
"558 656 LINE",
"558 586 LINE",
"342 586 LINE",
"342 0 LINE",
"258 0 LINE"
);
},
{
closed = 1;
nodes = (
"264 -226 OFFCURVE",
"235 -202 OFFCURVE",
"235 -163 CURVE SMOOTH",
"235 -124 OFFCURVE",
"264 -99 OFFCURVE",
"301 -99 CURVE SMOOTH",
"338 -99 OFFCURVE",
"367 -124 OFFCURVE",
"367 -163 CURVE SMOOTH",
"367 -202 OFFCURVE",
"338 -226 OFFCURVE",
"301 -226 CURVE SMOOTH"
);
}
);
width = 600;
}
);
unicode = 1E6C;
},
{
glyphname = Tlinebelow;
layers = (
{
layerId = "071E7A8C-CF57-4473-AB35-23A61C6027DA";
name = Regular;
paths = (
{
closed = 1;
nodes = (
"258 586 LINE",
"42 586 LINE",
"42 656 LINE",
"558 656 LINE",
"558 586 LINE",
"342 586 LINE",
"342 0 LINE",
"258 0 LINE"
);
},
{
closed = 1;
nodes = (
"424 -171 LINE",
"177 -171 LINE",
"177 -113 LINE",
"424 -113 LINE"
);
}
);
width = 600;
}
);
unicode = 1E6E;
},
{
glyphname = U;
layers = (
{
layerId = "071E7A8C-CF57-4473-AB35-23A61C6027DA";
name = Regular;
paths = (
{
closed = 1;
nodes = (
"79 656 LINE",
"163 656 LINE",
"163 246 LINE SMOOTH",
"163 178 OFFCURVE",
"178 131 OFFCURVE",
"203 103 CURVE",
"227 74 OFFCURVE",
"261 61 OFFCURVE",
"301 61 CURVE SMOOTH",
"341 61 OFFCURVE",
"375 74 OFFCURVE",
"400 103 CURVE SMOOTH",
"425 131 OFFCURVE",
"440 178 OFFCURVE",
"440 246 CURVE SMOOTH",
"440 656 LINE",
"521 656 LINE",
"521 248 LINE SMOOTH",
"521 153 OFFCURVE",
"498 90 OFFCURVE",
"459 48 CURVE SMOOTH",
"420 6 OFFCURVE",
"365 -12 OFFCURVE",
"301 -12 CURVE SMOOTH",
"237 -12 OFFCURVE",
"181 6 OFFCURVE",
"142 48 CURVE SMOOTH",
"102 90 OFFCURVE",
"79 153 OFFCURVE",
"79 248 CURVE SMOOTH"
);
}
);
width = 600;
}
);
unicode = 0055;
},
{
glyphname = Uacute;
layers = (
{
layerId = "071E7A8C-CF57-4473-AB35-23A61C6027DA";
name = Regular;
paths = (
{
closed = 1;
nodes = (
"79 656 LINE",
"163 656 LINE",
"163 246 LINE SMOOTH",
"163 178 OFFCURVE",
"178 131 OFFCURVE",
"203 103 CURVE",
"227 74 OFFCURVE",
"261 61 OFFCURVE",
"301 61 CURVE SMOOTH",
"341 61 OFFCURVE",
"375 74 OFFCURVE",
"400 103 CURVE SMOOTH",
"425 131 OFFCURVE",
"440 178 OFFCURVE",
"440 246 CURVE SMOOTH",
"440 656 LINE",
"521 656 LINE",
"521 248 LINE SMOOTH",
"521 153 OFFCURVE",
"498 90 OFFCURVE",
"459 48 CURVE SMOOTH",
"420 6 OFFCURVE",
"365 -12 OFFCURVE",
"301 -12 CURVE SMOOTH",
"237 -12 OFFCURVE",
"181 6 OFFCURVE",
"142 48 CURVE SMOOTH",
"102 90 OFFCURVE",
"79 153 OFFCURVE",
"79 248 CURVE SMOOTH"
);
},
{
closed = 1;
nodes = (
"318 706 LINE",
"249 706 LINE",
"337 818 LINE",
"431 818 LINE"
);
}
);
width = 600;
}
);
unicode = 00DA;
},
{
glyphname = Ubreve;
layers = (
{
layerId = "071E7A8C-CF57-4473-AB35-23A61C6027DA";
name = Regular;
paths = (
{
closed = 1;
nodes = (
"79 656 LINE",
"163 656 LINE",
"163 246 LINE SMOOTH",
"163 178 OFFCURVE",
"178 131 OFFCURVE",
"203 103 CURVE",
"227 74 OFFCURVE",
"261 61 OFFCURVE",
"301 61 CURVE SMOOTH",
"341 61 OFFCURVE",
"375 74 OFFCURVE",
"400 103 CURVE SMOOTH",
"425 131 OFFCURVE",
"440 178 OFFCURVE",
"440 246 CURVE SMOOTH",
"440 656 LINE",
"521 656 LINE",
"521 248 LINE SMOOTH",
"521 153 OFFCURVE",
"498 90 OFFCURVE",
"459 48 CURVE SMOOTH",
"420 6 OFFCURVE",
"365 -12 OFFCURVE",
"301 -12 CURVE SMOOTH",
"237 -12 OFFCURVE",
"181 6 OFFCURVE",
"142 48 CURVE SMOOTH",
"102 90 OFFCURVE",
"79 153 OFFCURVE",
"79 248 CURVE SMOOTH"
);
},
{
closed = 1;
nodes = (
"260 708 OFFCURVE",
"231 722 OFFCURVE",
"211 742 CURVE SMOOTH",
"191 762 OFFCURVE",
"181 790 OFFCURVE",
"177 818 CURVE",
"227 818 LINE",
"234 786 OFFCURVE",
"255 755 OFFCURVE",
"300 755 CURVE SMOOTH",
"345 755 OFFCURVE",
"366 786 OFFCURVE",
"373 818 CURVE",
"423 818 LINE",
"419 790 OFFCURVE",
"409 762 OFFCURVE",
"389 742 CURVE SMOOTH",
"369 722 OFFCURVE",
"340 708 OFFCURVE",
"300 708 CURVE SMOOTH"
);
}
);
width = 600;
}
);
unicode = 016C;
},
{
glyphname = Ucaron;
layers = (
{
layerId = "071E7A8C-CF57-4473-AB35-23A61C6027DA";
name = Regular;
paths = (
{
closed = 1;
nodes = (
"79 656 LINE",
"163 656 LINE",
"163 246 LINE SMOOTH",
"163 178 OFFCURVE",
"178 131 OFFCURVE",
"203 103 CURVE",
"227 74 OFFCURVE",
"261 61 OFFCURVE",
"301 61 CURVE SMOOTH",
"341 61 OFFCURVE",
"375 74 OFFCURVE",
"400 103 CURVE SMOOTH",
"425 131 OFFCURVE",
"440 178 OFFCURVE",
"440 246 CURVE SMOOTH",
"440 656 LINE",
"521 656 LINE",
"521 248 LINE SMOOTH",
"521 153 OFFCURVE",
"498 90 OFFCURVE",
"459 48 CURVE SMOOTH",
"420 6 OFFCURVE",
"365 -12 OFFCURVE",
"301 -12 CURVE SMOOTH",
"237 -12 OFFCURVE",
"181 6 OFFCURVE",
"142 48 CURVE SMOOTH",
"102 90 OFFCURVE",
"79 153 OFFCURVE",
"79 248 CURVE SMOOTH"
);
},
{
closed = 1;
nodes = (
"436 818 LINE",
"340 706 LINE",
"260 706 LINE",
"164 818 LINE",
"231 818 LINE",
"298 750 LINE",
"302 750 LINE",
"369 818 LINE"
);
}
);
width = 600;
}
);
unicode = 01D3;
},
{
glyphname = Ucircumflex;
layers = (
{
layerId = "071E7A8C-CF57-4473-AB35-23A61C6027DA";
name = Regular;
paths = (
{
closed = 1;
nodes = (
"79 656 LINE",
"163 656 LINE",
"163 246 LINE SMOOTH",
"163 178 OFFCURVE",
"178 131 OFFCURVE",
"203 103 CURVE",
"227 74 OFFCURVE",
"261 61 OFFCURVE",
"301 61 CURVE SMOOTH",
"341 61 OFFCURVE",
"375 74 OFFCURVE",
"400 103 CURVE SMOOTH",
"425 131 OFFCURVE",
"440 178 OFFCURVE",
"440 246 CURVE SMOOTH",
"440 656 LINE",
"521 656 LINE",
"521 248 LINE SMOOTH",
"521 153 OFFCURVE",
"498 90 OFFCURVE",
"459 48 CURVE SMOOTH",
"420 6 OFFCURVE",
"365 -12 OFFCURVE",
"301 -12 CURVE SMOOTH",
"237 -12 OFFCURVE",
"181 6 OFFCURVE",
"142 48 CURVE SMOOTH",
"102 90 OFFCURVE",
"79 153 OFFCURVE",
"79 248 CURVE SMOOTH"
);
},
{
closed = 1;
nodes = (
"164 706 LINE",
"260 818 LINE",
"340 818 LINE",
"436 706 LINE",
"369 706 LINE",
"302 774 LINE",
"298 774 LINE",
"231 706 LINE"
);
}
);
width = 600;
}
);
unicode = 00DB;
},
{
glyphname = Udieresis;
layers = (
{
layerId = "071E7A8C-CF57-4473-AB35-23A61C6027DA";
name = Regular;
paths = (
{
closed = 1;
nodes = (
"79 656 LINE",
"163 656 LINE",
"163 246 LINE SMOOTH",
"163 178 OFFCURVE",
"178 131 OFFCURVE",
"203 103 CURVE",
"227 74 OFFCURVE",
"261 61 OFFCURVE",
"301 61 CURVE SMOOTH",
"341 61 OFFCURVE",
"375 74 OFFCURVE",
"400 103 CURVE SMOOTH",
"425 131 OFFCURVE",
"440 178 OFFCURVE",
"440 246 CURVE SMOOTH",
"440 656 LINE",
"521 656 LINE",
"521 248 LINE SMOOTH",
"521 153 OFFCURVE",
"498 90 OFFCURVE",
"459 48 CURVE SMOOTH",
"420 6 OFFCURVE",
"365 -12 OFFCURVE",
"301 -12 CURVE SMOOTH",
"237 -12 OFFCURVE",
"181 6 OFFCURVE",
"142 48 CURVE SMOOTH",
"102 90 OFFCURVE",
"79 153 OFFCURVE",
"79 248 CURVE SMOOTH"
);
},
{
closed = 1;
nodes = (
"185 715 OFFCURVE",
"165 736 OFFCURVE",
"165 764 CURVE SMOOTH",
"165 793 OFFCURVE",
"185 813 OFFCURVE",
"214 813 CURVE SMOOTH",
"242 813 OFFCURVE",
"263 793 OFFCURVE",
"263 764 CURVE SMOOTH",
"263 736 OFFCURVE",
"242 715 OFFCURVE",
"214 715 CURVE SMOOTH"
);
},
{
closed = 1;
nodes = (
"358 715 OFFCURVE",
"337 736 OFFCURVE",
"337 764 CURVE SMOOTH",
"337 793 OFFCURVE",
"358 813 OFFCURVE",
"386 813 CURVE SMOOTH",
"415 813 OFFCURVE",
"435 793 OFFCURVE",
"435 764 CURVE SMOOTH",
"435 736 OFFCURVE",
"415 715 OFFCURVE",
"386 715 CURVE SMOOTH"
);
}
);
width = 600;
}
);
unicode = 00DC;
},
{
glyphname = Udieresisacute;
layers = (
{
layerId = "071E7A8C-CF57-4473-AB35-23A61C6027DA";
name = Regular;
paths = (
{
closed = 1;
nodes = (
"79 656 LINE",
"163 656 LINE",
"163 246 LINE SMOOTH",
"163 178 OFFCURVE",
"178 131 OFFCURVE",
"203 103 CURVE",
"227 74 OFFCURVE",
"261 61 OFFCURVE",
"301 61 CURVE SMOOTH",
"341 61 OFFCURVE",
"375 74 OFFCURVE",
"400 103 CURVE SMOOTH",
"425 131 OFFCURVE",
"440 178 OFFCURVE",
"440 246 CURVE SMOOTH",
"440 656 LINE",
"521 656 LINE",
"521 248 LINE SMOOTH",
"521 153 OFFCURVE",
"498 90 OFFCURVE",
"459 48 CURVE SMOOTH",
"420 6 OFFCURVE",
"365 -12 OFFCURVE",
"301 -12 CURVE SMOOTH",
"237 -12 OFFCURVE",
"181 6 OFFCURVE",
"142 48 CURVE SMOOTH",
"102 90 OFFCURVE",
"79 153 OFFCURVE",
"79 248 CURVE SMOOTH"
);
},
{
closed = 1;
nodes = (
"338 950 LINE",
"429 950 LINE",
"317 839 LINE",
"249 839 LINE"
);
},
{
closed = 1;
nodes = (
"187 715 OFFCURVE",
"168 734 OFFCURVE",
"168 761 CURVE SMOOTH",
"168 788 OFFCURVE",
"187 806 OFFCURVE",
"214 806 CURVE SMOOTH",
"241 806 OFFCURVE",
"259 788 OFFCURVE",
"259 761 CURVE SMOOTH",
"259 734 OFFCURVE",
"241 715 OFFCURVE",
"214 715 CURVE SMOOTH"
);
},
{
closed = 1;
nodes = (
"359 715 OFFCURVE",
"341 734 OFFCURVE",
"341 761 CURVE SMOOTH",
"341 788 OFFCURVE",
"359 806 OFFCURVE",
"386 806 CURVE SMOOTH",
"413 806 OFFCURVE",
"432 788 OFFCURVE",
"432 761 CURVE SMOOTH",
"432 734 OFFCURVE",
"413 715 OFFCURVE",
"386 715 CURVE SMOOTH"
);
}
);
width = 600;
}
);
unicode = 01D7;
},
{
glyphname = Udieresiscaron;
layers = (
{
layerId = "071E7A8C-CF57-4473-AB35-23A61C6027DA";
name = Regular;
paths = (
{
closed = 1;
nodes = (
"79 656 LINE",
"163 656 LINE",
"163 246 LINE SMOOTH",
"163 178 OFFCURVE",
"178 131 OFFCURVE",
"203 103 CURVE",
"227 74 OFFCURVE",
"261 61 OFFCURVE",
"301 61 CURVE SMOOTH",
"341 61 OFFCURVE",
"375 74 OFFCURVE",
"400 103 CURVE SMOOTH",
"425 131 OFFCURVE",
"440 178 OFFCURVE",
"440 246 CURVE SMOOTH",
"440 656 LINE",
"521 656 LINE",
"521 248 LINE SMOOTH",
"521 153 OFFCURVE",
"498 90 OFFCURVE",
"459 48 CURVE SMOOTH",
"420 6 OFFCURVE",
"365 -12 OFFCURVE",
"301 -12 CURVE SMOOTH",
"237 -12 OFFCURVE",
"181 6 OFFCURVE",
"142 48 CURVE SMOOTH",
"102 90 OFFCURVE",
"79 153 OFFCURVE",
"79 248 CURVE SMOOTH"
);
},
{
closed = 1;
nodes = (
"187 715 OFFCURVE",
"168 734 OFFCURVE",
"168 761 CURVE SMOOTH",
"168 788 OFFCURVE",
"187 806 OFFCURVE",
"214 806 CURVE SMOOTH",
"241 806 OFFCURVE",
"259 788 OFFCURVE",
"259 761 CURVE SMOOTH",
"259 734 OFFCURVE",
"241 715 OFFCURVE",
"214 715 CURVE SMOOTH"
);
},
{
closed = 1;
nodes = (
"359 715 OFFCURVE",
"341 734 OFFCURVE",
"341 761 CURVE SMOOTH",
"341 788 OFFCURVE",
"359 806 OFFCURVE",
"386 806 CURVE SMOOTH",
"413 806 OFFCURVE",
"432 788 OFFCURVE",
"432 761 CURVE SMOOTH",
"432 734 OFFCURVE",
"413 715 OFFCURVE",
"386 715 CURVE SMOOTH"
);
},
{
closed = 1;
nodes = (
"436 950 LINE",
"340 839 LINE",
"260 839 LINE",
"164 950 LINE",
"231 950 LINE",
"298 882 LINE",
"302 882 LINE",
"369 950 LINE"
);
}
);
width = 600;
}
);
unicode = 01D9;
},
{
glyphname = Udieresisgrave;
layers = (
{
layerId = "071E7A8C-CF57-4473-AB35-23A61C6027DA";
name = Regular;
paths = (
{
closed = 1;
nodes = (
"79 656 LINE",
"163 656 LINE",
"163 246 LINE SMOOTH",
"163 178 OFFCURVE",
"178 131 OFFCURVE",
"203 103 CURVE",
"227 74 OFFCURVE",
"261 61 OFFCURVE",
"301 61 CURVE SMOOTH",
"341 61 OFFCURVE",
"375 74 OFFCURVE",
"400 103 CURVE SMOOTH",
"425 131 OFFCURVE",
"440 178 OFFCURVE",
"440 246 CURVE SMOOTH",
"440 656 LINE",
"521 656 LINE",
"521 248 LINE SMOOTH",
"521 153 OFFCURVE",
"498 90 OFFCURVE",
"459 48 CURVE SMOOTH",
"420 6 OFFCURVE",
"365 -12 OFFCURVE",
"301 -12 CURVE SMOOTH",
"237 -12 OFFCURVE",
"181 6 OFFCURVE",
"142 48 CURVE SMOOTH",
"102 90 OFFCURVE",
"79 153 OFFCURVE",
"79 248 CURVE SMOOTH"
);
},
{
closed = 1;
nodes = (
"351 839 LINE",
"283 839 LINE",
"171 950 LINE",
"262 950 LINE"
);
},
{
closed = 1;
nodes = (
"359 715 OFFCURVE",
"341 734 OFFCURVE",
"341 761 CURVE SMOOTH",
"341 788 OFFCURVE",
"359 806 OFFCURVE",
"386 806 CURVE SMOOTH",
"413 806 OFFCURVE",
"432 788 OFFCURVE",
"432 761 CURVE SMOOTH",
"432 734 OFFCURVE",
"413 715 OFFCURVE",
"386 715 CURVE SMOOTH"
);
},
{
closed = 1;
nodes = (
"187 715 OFFCURVE",
"168 734 OFFCURVE",
"168 761 CURVE SMOOTH",
"168 788 OFFCURVE",
"187 806 OFFCURVE",
"214 806 CURVE SMOOTH",
"241 806 OFFCURVE",
"259 788 OFFCURVE",
"259 761 CURVE SMOOTH",
"259 734 OFFCURVE",
"241 715 OFFCURVE",
"214 715 CURVE SMOOTH"
);
}
);
width = 600;
}
);
unicode = 01DB;
},
{
glyphname = Udieresismacron;
layers = (
{
layerId = "071E7A8C-CF57-4473-AB35-23A61C6027DA";
name = Regular;
paths = (
{
closed = 1;
nodes = (
"79 656 LINE",
"163 656 LINE",
"163 246 LINE SMOOTH",
"163 178 OFFCURVE",
"178 131 OFFCURVE",
"203 103 CURVE",
"227 74 OFFCURVE",
"261 61 OFFCURVE",
"301 61 CURVE SMOOTH",
"341 61 OFFCURVE",
"375 74 OFFCURVE",
"400 103 CURVE SMOOTH",
"425 131 OFFCURVE",
"440 178 OFFCURVE",
"440 246 CURVE SMOOTH",
"440 656 LINE",
"521 656 LINE",
"521 248 LINE SMOOTH",
"521 153 OFFCURVE",
"498 90 OFFCURVE",
"459 48 CURVE SMOOTH",
"420 6 OFFCURVE",
"365 -12 OFFCURVE",
"301 -12 CURVE SMOOTH",
"237 -12 OFFCURVE",
"181 6 OFFCURVE",
"142 48 CURVE SMOOTH",
"102 90 OFFCURVE",
"79 153 OFFCURVE",
"79 248 CURVE SMOOTH"
);
},
{
closed = 1;
nodes = (
"176 907 LINE",
"424 907 LINE",
"424 861 LINE",
"176 861 LINE"
);
},
{
closed = 1;
nodes = (
"187 715 OFFCURVE",
"168 734 OFFCURVE",
"168 761 CURVE SMOOTH",
"168 788 OFFCURVE",
"187 806 OFFCURVE",
"214 806 CURVE SMOOTH",
"241 806 OFFCURVE",
"259 788 OFFCURVE",
"259 761 CURVE SMOOTH",
"259 734 OFFCURVE",
"241 715 OFFCURVE",
"214 715 CURVE SMOOTH"
);
},
{
closed = 1;
nodes = (
"359 715 OFFCURVE",
"341 734 OFFCURVE",
"341 761 CURVE SMOOTH",
"341 788 OFFCURVE",
"359 806 OFFCURVE",
"386 806 CURVE SMOOTH",
"413 806 OFFCURVE",
"432 788 OFFCURVE",
"432 761 CURVE SMOOTH",
"432 734 OFFCURVE",
"413 715 OFFCURVE",
"386 715 CURVE SMOOTH"
);
}
);
width = 600;
}
);
unicode = 01D5;
},
{
glyphname = Udotbelow;
layers = (
{
layerId = "071E7A8C-CF57-4473-AB35-23A61C6027DA";
name = Regular;
paths = (
{
closed = 1;
nodes = (
"79 656 LINE",
"163 656 LINE",
"163 246 LINE SMOOTH",
"163 178 OFFCURVE",
"178 131 OFFCURVE",
"203 103 CURVE",
"227 74 OFFCURVE",
"261 61 OFFCURVE",
"301 61 CURVE SMOOTH",
"341 61 OFFCURVE",
"375 74 OFFCURVE",
"400 103 CURVE SMOOTH",
"425 131 OFFCURVE",
"440 178 OFFCURVE",
"440 246 CURVE SMOOTH",
"440 656 LINE",
"521 656 LINE",
"521 248 LINE SMOOTH",
"521 153 OFFCURVE",
"498 90 OFFCURVE",
"459 48 CURVE SMOOTH",
"420 6 OFFCURVE",
"365 -12 OFFCURVE",
"301 -12 CURVE SMOOTH",
"237 -12 OFFCURVE",
"181 6 OFFCURVE",
"142 48 CURVE SMOOTH",
"102 90 OFFCURVE",
"79 153 OFFCURVE",
"79 248 CURVE SMOOTH"
);
},
{
closed = 1;
nodes = (
"263 -226 OFFCURVE",
"234 -202 OFFCURVE",
"234 -163 CURVE SMOOTH",
"234 -124 OFFCURVE",
"263 -99 OFFCURVE",
"300 -99 CURVE SMOOTH",
"337 -99 OFFCURVE",
"366 -124 OFFCURVE",
"366 -163 CURVE SMOOTH",
"366 -202 OFFCURVE",
"337 -226 OFFCURVE",
"300 -226 CURVE SMOOTH"
);
}
);
width = 600;
}
);
unicode = 1EE4;
},
{
glyphname = Ugrave;
layers = (
{
layerId = "071E7A8C-CF57-4473-AB35-23A61C6027DA";
name = Regular;
paths = (
{
closed = 1;
nodes = (
"79 656 LINE",
"163 656 LINE",
"163 246 LINE SMOOTH",
"163 178 OFFCURVE",
"178 131 OFFCURVE",
"203 103 CURVE",
"227 74 OFFCURVE",
"261 61 OFFCURVE",
"301 61 CURVE SMOOTH",
"341 61 OFFCURVE",
"375 74 OFFCURVE",
"400 103 CURVE SMOOTH",
"425 131 OFFCURVE",
"440 178 OFFCURVE",
"440 246 CURVE SMOOTH",
"440 656 LINE",
"521 656 LINE",
"521 248 LINE SMOOTH",
"521 153 OFFCURVE",
"498 90 OFFCURVE",
"459 48 CURVE SMOOTH",
"420 6 OFFCURVE",
"365 -12 OFFCURVE",
"301 -12 CURVE SMOOTH",
"237 -12 OFFCURVE",
"181 6 OFFCURVE",
"142 48 CURVE SMOOTH",
"102 90 OFFCURVE",
"79 153 OFFCURVE",
"79 248 CURVE SMOOTH"
);
},
{
closed = 1;
nodes = (
"169 818 LINE",
"263 818 LINE",
"351 706 LINE",
"282 706 LINE"
);
}
);
width = 600;
}
);
unicode = 00D9;
},
{
glyphname = Uhookabove;
layers = (
{
layerId = "071E7A8C-CF57-4473-AB35-23A61C6027DA";
name = Regular;
paths = (
{
closed = 1;
nodes = (
"79 656 LINE",
"163 656 LINE",
"163 246 LINE SMOOTH",
"163 178 OFFCURVE",
"178 131 OFFCURVE",
"203 103 CURVE",
"227 74 OFFCURVE",
"261 61 OFFCURVE",
"301 61 CURVE SMOOTH",
"341 61 OFFCURVE",
"375 74 OFFCURVE",
"400 103 CURVE SMOOTH",
"425 131 OFFCURVE",
"440 178 OFFCURVE",
"440 246 CURVE SMOOTH",
"440 656 LINE",
"521 656 LINE",
"521 248 LINE SMOOTH",
"521 153 OFFCURVE",
"498 90 OFFCURVE",
"459 48 CURVE SMOOTH",
"420 6 OFFCURVE",
"365 -12 OFFCURVE",
"301 -12 CURVE SMOOTH",
"237 -12 OFFCURVE",
"181 6 OFFCURVE",
"142 48 CURVE SMOOTH",
"102 90 OFFCURVE",
"79 153 OFFCURVE",
"79 248 CURVE SMOOTH"
);
},
{
closed = 1;
nodes = (
"263 736 LINE",
"295 745 OFFCURVE",
"319 757 OFFCURVE",
"319 782 CURVE SMOOTH",
"319 808 OFFCURVE",
"291 822 OFFCURVE",
"236 824 CURVE",
"245 872 LINE",
"333 869 OFFCURVE",
"383 842 OFFCURVE",
"383 791 CURVE SMOOTH",
"383 762 OFFCURVE",
"370 742 OFFCURVE",
"350 727 CURVE SMOOTH",
"329 711 OFFCURVE",
"301 703 OFFCURVE",
"272 698 CURVE"
);
}
);
width = 600;
}
);
unicode = 1EE6;
},
{
glyphname = Uhorn;
layers = (
{
layerId = "071E7A8C-CF57-4473-AB35-23A61C6027DA";
name = Regular;
paths = (
{
closed = 1;
nodes = (
"607 793 LINE",
"622 774 OFFCURVE",
"630 753 OFFCURVE",
"630 728 CURVE SMOOTH",
"630 695 OFFCURVE",
"617 671 OFFCURVE",
"597 654 CURVE SMOOTH",
"577 637 OFFCURVE",
"550 627 OFFCURVE",
"521 620 CURVE",
"521 248 LINE SMOOTH",
"521 153 OFFCURVE",
"498 90 OFFCURVE",
"459 48 CURVE SMOOTH",
"420 6 OFFCURVE",
"365 -12 OFFCURVE",
"301 -12 CURVE SMOOTH",
"237 -12 OFFCURVE",
"181 6 OFFCURVE",
"142 48 CURVE SMOOTH",
"102 90 OFFCURVE",
"79 153 OFFCURVE",
"79 248 CURVE SMOOTH",
"79 656 LINE",
"163 656 LINE",
"163 246 LINE SMOOTH",
"163 178 OFFCURVE",
"178 131 OFFCURVE",
"203 103 CURVE",
"227 74 OFFCURVE",
"261 61 OFFCURVE",
"301 61 CURVE SMOOTH",
"341 61 OFFCURVE",
"375 74 OFFCURVE",
"400 103 CURVE SMOOTH",
"425 131 OFFCURVE",
"440 178 OFFCURVE",
"440 246 CURVE SMOOTH",
"440 656 LINE",
"475 656 LINE",
"528 663 OFFCURVE",
"563 676 OFFCURVE",
"563 723 CURVE SMOOTH",
"563 738 OFFCURVE",
"557 751 OFFCURVE",
"548 764 CURVE"
);
}
);
width = 600;
}
);
unicode = 01AF;
},
{
glyphname = Uhornacute;
layers = (
{
layerId = "071E7A8C-CF57-4473-AB35-23A61C6027DA";
name = Regular;
paths = (
{
closed = 1;
nodes = (
"607 793 LINE",
"622 774 OFFCURVE",
"630 753 OFFCURVE",
"630 728 CURVE SMOOTH",
"630 695 OFFCURVE",
"617 671 OFFCURVE",
"597 654 CURVE SMOOTH",
"577 637 OFFCURVE",
"550 627 OFFCURVE",
"521 620 CURVE",
"521 248 LINE SMOOTH",
"521 153 OFFCURVE",
"498 90 OFFCURVE",
"459 48 CURVE SMOOTH",
"420 6 OFFCURVE",
"365 -12 OFFCURVE",
"301 -12 CURVE SMOOTH",
"237 -12 OFFCURVE",
"181 6 OFFCURVE",
"142 48 CURVE SMOOTH",
"102 90 OFFCURVE",
"79 153 OFFCURVE",
"79 248 CURVE SMOOTH",
"79 656 LINE",
"163 656 LINE",
"163 246 LINE SMOOTH",
"163 178 OFFCURVE",
"178 131 OFFCURVE",
"203 103 CURVE",
"227 74 OFFCURVE",
"261 61 OFFCURVE",
"301 61 CURVE SMOOTH",
"341 61 OFFCURVE",
"375 74 OFFCURVE",
"400 103 CURVE SMOOTH",
"425 131 OFFCURVE",
"440 178 OFFCURVE",
"440 246 CURVE SMOOTH",
"440 656 LINE",
"475 656 LINE",
"528 663 OFFCURVE",
"563 676 OFFCURVE",
"563 723 CURVE SMOOTH",
"563 738 OFFCURVE",
"557 751 OFFCURVE",
"548 764 CURVE"
);
},
{
closed = 1;
nodes = (
"318 706 LINE",
"249 706 LINE",
"337 818 LINE",
"431 818 LINE"
);
}
);
width = 600;
}
);
unicode = 1EE8;
},
{
glyphname = Uhorndotbelow;
layers = (
{
layerId = "071E7A8C-CF57-4473-AB35-23A61C6027DA";
name = Regular;
paths = (
{
closed = 1;
nodes = (
"607 793 LINE",
"622 774 OFFCURVE",
"630 753 OFFCURVE",
"630 728 CURVE SMOOTH",
"630 695 OFFCURVE",
"617 671 OFFCURVE",
"597 654 CURVE SMOOTH",
"577 637 OFFCURVE",
"550 627 OFFCURVE",
"521 620 CURVE",
"521 248 LINE SMOOTH",
"521 153 OFFCURVE",
"498 90 OFFCURVE",
"459 48 CURVE SMOOTH",
"420 6 OFFCURVE",
"365 -12 OFFCURVE",
"301 -12 CURVE SMOOTH",
"237 -12 OFFCURVE",
"181 6 OFFCURVE",
"142 48 CURVE SMOOTH",
"102 90 OFFCURVE",
"79 153 OFFCURVE",
"79 248 CURVE SMOOTH",
"79 656 LINE",
"163 656 LINE",
"163 246 LINE SMOOTH",
"163 178 OFFCURVE",
"178 131 OFFCURVE",
"203 103 CURVE",
"227 74 OFFCURVE",
"261 61 OFFCURVE",
"301 61 CURVE SMOOTH",
"341 61 OFFCURVE",
"375 74 OFFCURVE",
"400 103 CURVE SMOOTH",
"425 131 OFFCURVE",
"440 178 OFFCURVE",
"440 246 CURVE SMOOTH",
"440 656 LINE",
"475 656 LINE",
"528 663 OFFCURVE",
"563 676 OFFCURVE",
"563 723 CURVE SMOOTH",
"563 738 OFFCURVE",
"557 751 OFFCURVE",
"548 764 CURVE"
);
},
{
closed = 1;
nodes = (
"263 -226 OFFCURVE",
"234 -202 OFFCURVE",
"234 -163 CURVE SMOOTH",
"234 -124 OFFCURVE",
"263 -99 OFFCURVE",
"300 -99 CURVE SMOOTH",
"337 -99 OFFCURVE",
"366 -124 OFFCURVE",
"366 -163 CURVE SMOOTH",
"366 -202 OFFCURVE",
"337 -226 OFFCURVE",
"300 -226 CURVE SMOOTH"
);
}
);
width = 600;
}
);
unicode = 1EF0;
},
{
glyphname = Uhorngrave;
layers = (
{
layerId = "071E7A8C-CF57-4473-AB35-23A61C6027DA";
name = Regular;
paths = (
{
closed = 1;
nodes = (
"607 793 LINE",
"622 774 OFFCURVE",
"630 753 OFFCURVE",
"630 728 CURVE SMOOTH",
"630 695 OFFCURVE",
"617 671 OFFCURVE",
"597 654 CURVE SMOOTH",
"577 637 OFFCURVE",
"550 627 OFFCURVE",
"521 620 CURVE",
"521 248 LINE SMOOTH",
"521 153 OFFCURVE",
"498 90 OFFCURVE",
"459 48 CURVE SMOOTH",
"420 6 OFFCURVE",
"365 -12 OFFCURVE",
"301 -12 CURVE SMOOTH",
"237 -12 OFFCURVE",
"181 6 OFFCURVE",
"142 48 CURVE SMOOTH",
"102 90 OFFCURVE",
"79 153 OFFCURVE",
"79 248 CURVE SMOOTH",
"79 656 LINE",
"163 656 LINE",
"163 246 LINE SMOOTH",
"163 178 OFFCURVE",
"178 131 OFFCURVE",
"203 103 CURVE",
"227 74 OFFCURVE",
"261 61 OFFCURVE",
"301 61 CURVE SMOOTH",
"341 61 OFFCURVE",
"375 74 OFFCURVE",
"400 103 CURVE SMOOTH",
"425 131 OFFCURVE",
"440 178 OFFCURVE",
"440 246 CURVE SMOOTH",
"440 656 LINE",
"475 656 LINE",
"528 663 OFFCURVE",
"563 676 OFFCURVE",
"563 723 CURVE SMOOTH",
"563 738 OFFCURVE",
"557 751 OFFCURVE",
"548 764 CURVE"
);
},
{
closed = 1;
nodes = (
"169 818 LINE",
"263 818 LINE",
"351 706 LINE",
"282 706 LINE"
);
}
);
width = 600;
}
);
unicode = 1EEA;
},
{
glyphname = Uhornhookabove;
layers = (
{
layerId = "071E7A8C-CF57-4473-AB35-23A61C6027DA";
name = Regular;
paths = (
{
closed = 1;
nodes = (
"607 793 LINE",
"622 774 OFFCURVE",
"630 753 OFFCURVE",
"630 728 CURVE SMOOTH",
"630 695 OFFCURVE",
"617 671 OFFCURVE",
"597 654 CURVE SMOOTH",
"577 637 OFFCURVE",
"550 627 OFFCURVE",
"521 620 CURVE",
"521 248 LINE SMOOTH",
"521 153 OFFCURVE",
"498 90 OFFCURVE",
"459 48 CURVE SMOOTH",
"420 6 OFFCURVE",
"365 -12 OFFCURVE",
"301 -12 CURVE SMOOTH",
"237 -12 OFFCURVE",
"181 6 OFFCURVE",
"142 48 CURVE SMOOTH",
"102 90 OFFCURVE",
"79 153 OFFCURVE",
"79 248 CURVE SMOOTH",
"79 656 LINE",
"163 656 LINE",
"163 246 LINE SMOOTH",
"163 178 OFFCURVE",
"178 131 OFFCURVE",
"203 103 CURVE",
"227 74 OFFCURVE",
"261 61 OFFCURVE",
"301 61 CURVE SMOOTH",
"341 61 OFFCURVE",
"375 74 OFFCURVE",
"400 103 CURVE SMOOTH",
"425 131 OFFCURVE",
"440 178 OFFCURVE",
"440 246 CURVE SMOOTH",
"440 656 LINE",
"475 656 LINE",
"528 663 OFFCURVE",
"563 676 OFFCURVE",
"563 723 CURVE SMOOTH",
"563 738 OFFCURVE",
"557 751 OFFCURVE",
"548 764 CURVE"
);
},
{
closed = 1;
nodes = (
"263 736 LINE",
"295 745 OFFCURVE",
"319 757 OFFCURVE",
"319 782 CURVE SMOOTH",
"319 808 OFFCURVE",
"291 822 OFFCURVE",
"236 824 CURVE",
"245 872 LINE",
"333 869 OFFCURVE",
"383 842 OFFCURVE",
"383 791 CURVE SMOOTH",
"383 762 OFFCURVE",
"370 742 OFFCURVE",
"350 727 CURVE SMOOTH",
"329 711 OFFCURVE",
"301 703 OFFCURVE",
"272 698 CURVE"
);
}
);
width = 600;
}
);
unicode = 1EEC;
},
{
glyphname = Uhorntilde;
layers = (
{
layerId = "071E7A8C-CF57-4473-AB35-23A61C6027DA";
name = Regular;
paths = (
{
closed = 1;
nodes = (
"607 793 LINE",
"622 774 OFFCURVE",
"630 753 OFFCURVE",
"630 728 CURVE SMOOTH",
"630 695 OFFCURVE",
"617 671 OFFCURVE",
"597 654 CURVE SMOOTH",
"577 637 OFFCURVE",
"550 627 OFFCURVE",
"521 620 CURVE",
"521 248 LINE SMOOTH",
"521 153 OFFCURVE",
"498 90 OFFCURVE",
"459 48 CURVE SMOOTH",
"420 6 OFFCURVE",
"365 -12 OFFCURVE",
"301 -12 CURVE SMOOTH",
"237 -12 OFFCURVE",
"181 6 OFFCURVE",
"142 48 CURVE SMOOTH",
"102 90 OFFCURVE",
"79 153 OFFCURVE",
"79 248 CURVE SMOOTH",
"79 656 LINE",
"163 656 LINE",
"163 246 LINE SMOOTH",
"163 178 OFFCURVE",
"178 131 OFFCURVE",
"203 103 CURVE",
"227 74 OFFCURVE",
"261 61 OFFCURVE",
"301 61 CURVE SMOOTH",
"341 61 OFFCURVE",
"375 74 OFFCURVE",
"400 103 CURVE SMOOTH",
"425 131 OFFCURVE",
"440 178 OFFCURVE",
"440 246 CURVE SMOOTH",
"440 656 LINE",
"475 656 LINE",
"528 663 OFFCURVE",
"563 676 OFFCURVE",
"563 723 CURVE SMOOTH",
"563 738 OFFCURVE",
"557 751 OFFCURVE",
"548 764 CURVE"
);
},
{
closed = 1;
nodes = (
"333 711 OFFCURVE",
"313 724 OFFCURVE",
"295 737 CURVE SMOOTH",
"277 750 OFFCURVE",
"260 763 OFFCURVE",
"241 763 CURVE SMOOTH",
"222 763 OFFCURVE",
"206 746 OFFCURVE",
"201 711 CURVE",
"155 711 LINE",
"162 774 OFFCURVE",
"192 819 OFFCURVE",
"240 819 CURVE SMOOTH",
"267 819 OFFCURVE",
"288 806 OFFCURVE",
"306 793 CURVE SMOOTH",
"324 780 OFFCURVE",
"340 767 OFFCURVE",
"359 767 CURVE SMOOTH",
"378 767 OFFCURVE",
"394 786 OFFCURVE",
"399 819 CURVE",
"445 819 LINE",
"438 758 OFFCURVE",
"408 711 OFFCURVE",
"360 711 CURVE SMOOTH"
);
}
);
width = 600;
}
);
unicode = 1EEE;
},
{
glyphname = Uhungarumlaut;
layers = (
{
layerId = "071E7A8C-CF57-4473-AB35-23A61C6027DA";
name = Regular;
paths = (
{
closed = 1;
nodes = (
"79 656 LINE",
"163 656 LINE",
"163 246 LINE SMOOTH",
"163 178 OFFCURVE",
"178 131 OFFCURVE",
"203 103 CURVE",
"227 74 OFFCURVE",
"261 61 OFFCURVE",
"301 61 CURVE SMOOTH",
"341 61 OFFCURVE",
"375 74 OFFCURVE",
"400 103 CURVE SMOOTH",
"425 131 OFFCURVE",
"440 178 OFFCURVE",
"440 246 CURVE SMOOTH",
"440 656 LINE",
"521 656 LINE",
"521 248 LINE SMOOTH",
"521 153 OFFCURVE",
"498 90 OFFCURVE",
"459 48 CURVE SMOOTH",
"420 6 OFFCURVE",
"365 -12 OFFCURVE",
"301 -12 CURVE SMOOTH",
"237 -12 OFFCURVE",
"181 6 OFFCURVE",
"142 48 CURVE SMOOTH",
"102 90 OFFCURVE",
"79 153 OFFCURVE",
"79 248 CURVE SMOOTH"
);
},
{
closed = 1;
nodes = (
"191 706 LINE",
"257 818 LINE",
"334 818 LINE",
"251 706 LINE"
);
},
{
closed = 1;
nodes = (
"415 818 LINE",
"492 818 LINE",
"408 706 LINE",
"349 706 LINE"
);
}
);
width = 600;
}
);
unicode = 0170;
},
{
glyphname = Umacron;
layers = (
{
layerId = "071E7A8C-CF57-4473-AB35-23A61C6027DA";
name = Regular;
paths = (
{
closed = 1;
nodes = (
"79 656 LINE",
"163 656 LINE",
"163 246 LINE SMOOTH",
"163 178 OFFCURVE",
"178 131 OFFCURVE",
"203 103 CURVE",
"227 74 OFFCURVE",
"261 61 OFFCURVE",
"301 61 CURVE SMOOTH",
"341 61 OFFCURVE",
"375 74 OFFCURVE",
"400 103 CURVE SMOOTH",
"425 131 OFFCURVE",
"440 178 OFFCURVE",
"440 246 CURVE SMOOTH",
"440 656 LINE",
"521 656 LINE",
"521 248 LINE SMOOTH",
"521 153 OFFCURVE",
"498 90 OFFCURVE",
"459 48 CURVE SMOOTH",
"420 6 OFFCURVE",
"365 -12 OFFCURVE",
"301 -12 CURVE SMOOTH",
"237 -12 OFFCURVE",
"181 6 OFFCURVE",
"142 48 CURVE SMOOTH",
"102 90 OFFCURVE",
"79 153 OFFCURVE",
"79 248 CURVE SMOOTH"
);
},
{
closed = 1;
nodes = (
"176 786 LINE",
"424 786 LINE",
"424 729 LINE",
"176 729 LINE"
);
}
);
width = 600;
}
);
unicode = 016A;
},
{
glyphname = Uogonek;
layers = (
{
layerId = "071E7A8C-CF57-4473-AB35-23A61C6027DA";
name = Regular;
paths = (
{
closed = 1;
nodes = (
"79 656 LINE",
"163 656 LINE",
"163 246 LINE SMOOTH",
"163 178 OFFCURVE",
"178 131 OFFCURVE",
"202 103 CURVE SMOOTH",
"226 74 OFFCURVE",
"260 61 OFFCURVE",
"300 61 CURVE SMOOTH",
"340 61 OFFCURVE",
"375 74 OFFCURVE",
"400 103 CURVE SMOOTH",
"424 131 OFFCURVE",
"440 178 OFFCURVE",
"440 246 CURVE SMOOTH",
"440 656 LINE",
"521 656 LINE",
"521 248 LINE SMOOTH",
"521 112 OFFCURVE",
"470 38 OFFCURVE",
"397 5 CURVE SMOOTH",
"326 -27 OFFCURVE",
"296 -71 OFFCURVE",
"296 -107 CURVE SMOOTH",
"296 -138 OFFCURVE",
"319 -153 OFFCURVE",
"343 -153 CURVE SMOOTH",
"359 -153 OFFCURVE",
"371 -148 OFFCURVE",
"384 -139 CURVE",
"406 -184 LINE",
"387 -199 OFFCURVE",
"354 -212 OFFCURVE",
"327 -212 CURVE SMOOTH",
"274 -212 OFFCURVE",
"231 -182 OFFCURVE",
"231 -125 CURVE SMOOTH",
"231 -97 OFFCURVE",
"241 -76 OFFCURVE",
"254 -57 CURVE SMOOTH",
"267 -38 OFFCURVE",
"284 -23 OFFCURVE",
"296 -11 CURVE",
"149 -8 OFFCURVE",
"79 81 OFFCURVE",
"79 248 CURVE SMOOTH"
);
}
);
width = 600;
}
);
unicode = 0172;
},
{
glyphname = Uring;
layers = (
{
layerId = "071E7A8C-CF57-4473-AB35-23A61C6027DA";
name = Regular;
paths = (
{
closed = 1;
nodes = (
"79 656 LINE",
"163 656 LINE",
"163 246 LINE SMOOTH",
"163 178 OFFCURVE",
"178 131 OFFCURVE",
"203 103 CURVE",
"227 74 OFFCURVE",
"261 61 OFFCURVE",
"301 61 CURVE SMOOTH",
"341 61 OFFCURVE",
"375 74 OFFCURVE",
"400 103 CURVE SMOOTH",
"425 131 OFFCURVE",
"440 178 OFFCURVE",
"440 246 CURVE SMOOTH",
"440 656 LINE",
"521 656 LINE",
"521 248 LINE SMOOTH",
"521 153 OFFCURVE",
"498 90 OFFCURVE",
"459 48 CURVE SMOOTH",
"420 6 OFFCURVE",
"365 -12 OFFCURVE",
"301 -12 CURVE SMOOTH",
"237 -12 OFFCURVE",
"181 6 OFFCURVE",
"142 48 CURVE SMOOTH",
"102 90 OFFCURVE",
"79 153 OFFCURVE",
"79 248 CURVE SMOOTH"
);
},
{
closed = 1;
nodes = (
"245 699 OFFCURVE",
"207 732 OFFCURVE",
"207 787 CURVE SMOOTH",
"207 840 OFFCURVE",
"245 875 OFFCURVE",
"300 875 CURVE SMOOTH",
"353 875 OFFCURVE",
"393 840 OFFCURVE",
"393 787 CURVE SMOOTH",
"393 732 OFFCURVE",
"353 699 OFFCURVE",
"300 699 CURVE SMOOTH"
);
},
{
closed = 1;
nodes = (
"325 735 OFFCURVE",
"347 754 OFFCURVE",
"347 787 CURVE SMOOTH",
"347 818 OFFCURVE",
"325 838 OFFCURVE",
"300 838 CURVE SMOOTH",
"273 838 OFFCURVE",
"252 818 OFFCURVE",
"252 787 CURVE SMOOTH",
"252 754 OFFCURVE",
"273 735 OFFCURVE",
"300 735 CURVE SMOOTH"
);
}
);
width = 600;
}
);
unicode = 016E;
},
{
glyphname = Utilde;
layers = (
{
layerId = "071E7A8C-CF57-4473-AB35-23A61C6027DA";
name = Regular;
paths = (
{
closed = 1;
nodes = (
"79 656 LINE",
"163 656 LINE",
"163 246 LINE SMOOTH",
"163 178 OFFCURVE",
"178 131 OFFCURVE",
"203 103 CURVE",
"227 74 OFFCURVE",
"261 61 OFFCURVE",
"301 61 CURVE SMOOTH",
"341 61 OFFCURVE",
"375 74 OFFCURVE",
"400 103 CURVE SMOOTH",
"425 131 OFFCURVE",
"440 178 OFFCURVE",
"440 246 CURVE SMOOTH",
"440 656 LINE",
"521 656 LINE",
"521 248 LINE SMOOTH",
"521 153 OFFCURVE",
"498 90 OFFCURVE",
"459 48 CURVE SMOOTH",
"420 6 OFFCURVE",
"365 -12 OFFCURVE",
"301 -12 CURVE SMOOTH",
"237 -12 OFFCURVE",
"181 6 OFFCURVE",
"142 48 CURVE SMOOTH",
"102 90 OFFCURVE",
"79 153 OFFCURVE",
"79 248 CURVE SMOOTH"
);
},
{
closed = 1;
nodes = (
"333 711 OFFCURVE",
"313 724 OFFCURVE",
"295 737 CURVE SMOOTH",
"277 750 OFFCURVE",
"260 763 OFFCURVE",
"241 763 CURVE SMOOTH",
"222 763 OFFCURVE",
"206 746 OFFCURVE",
"201 711 CURVE",
"155 711 LINE",
"162 774 OFFCURVE",
"192 819 OFFCURVE",
"240 819 CURVE SMOOTH",
"267 819 OFFCURVE",
"288 806 OFFCURVE",
"306 793 CURVE SMOOTH",
"324 780 OFFCURVE",
"340 767 OFFCURVE",
"359 767 CURVE SMOOTH",
"378 767 OFFCURVE",
"394 786 OFFCURVE",
"399 819 CURVE",
"445 819 LINE",
"438 758 OFFCURVE",
"408 711 OFFCURVE",
"360 711 CURVE SMOOTH"
);
}
);
width = 600;
}
);
unicode = 0168;
},
{
glyphname = V;
layers = (
{
layerId = "071E7A8C-CF57-4473-AB35-23A61C6027DA";
name = Regular;
paths = (
{
closed = 1;
nodes = (
"43 656 LINE",
"131 656 LINE",
"237 302 LINE SMOOTH",
"248 263 OFFCURVE",
"259 226 OFFCURVE",
"268 193 CURVE SMOOTH",
"277 160 OFFCURVE",
"288 124 OFFCURVE",
"300 85 CURVE",
"304 85 LINE",
"316 124 OFFCURVE",
"327 158 OFFCURVE",
"337 193 CURVE SMOOTH",
"347 228 OFFCURVE",
"356 263 OFFCURVE",
"367 302 CURVE SMOOTH",
"472 656 LINE",
"557 656 LINE",
"349 0 LINE",
"252 0 LINE"
);
}
);
width = 600;
}
);
unicode = 0056;
},
{
glyphname = W;
layers = (
{
layerId = "071E7A8C-CF57-4473-AB35-23A61C6027DA";
name = Regular;
paths = (
{
closed = 1;
nodes = (
"10 657 LINE",
"93 657 LINE",
"146 245 LINE",
"147 217 OFFCURVE",
"150 190 OFFCURVE",
"153 164 CURVE SMOOTH",
"156 137 OFFCURVE",
"158 110 OFFCURVE",
"160 83 CURVE",
"163 83 LINE",
"178 138 OFFCURVE",
"192 190 OFFCURVE",
"205 245 CURVE",
"274 487 LINE",
"333 487 LINE",
"402 245 LINE",
"414 192 OFFCURVE",
"428 138 OFFCURVE",
"443 83 CURVE",
"447 83 LINE",
"449 110 OFFCURVE",
"451 137 OFFCURVE",
"454 164 CURVE SMOOTH",
"457 191 OFFCURVE",
"459 218 OFFCURVE",
"461 245 CURVE",
"511 657 LINE",
"590 657 LINE",
"493 0 LINE",
"401 0 LINE",
"326 275 LINE",
"317 314 OFFCURVE",
"309 354 OFFCURVE",
"302 393 CURVE",
"299 393 LINE",
"295 374 OFFCURVE",
"291 354 OFFCURVE",
"287 334 CURVE SMOOTH",
"283 314 OFFCURVE",
"278 294 OFFCURVE",
"273 275 CURVE SMOOTH",
"201 0 LINE",
"111 0 LINE"
);
}
);
width = 600;
}
);
unicode = 0057;
},
{
glyphname = Wacute;
layers = (
{
layerId = "071E7A8C-CF57-4473-AB35-23A61C6027DA";
name = Regular;
paths = (
{
closed = 1;
nodes = (
"10 657 LINE",
"93 657 LINE",
"146 245 LINE",
"147 217 OFFCURVE",
"150 190 OFFCURVE",
"153 164 CURVE SMOOTH",
"156 137 OFFCURVE",
"158 110 OFFCURVE",
"160 83 CURVE",
"163 83 LINE",
"178 138 OFFCURVE",
"192 190 OFFCURVE",
"205 245 CURVE",
"274 487 LINE",
"333 487 LINE",
"402 245 LINE",
"414 192 OFFCURVE",
"428 138 OFFCURVE",
"443 83 CURVE",
"447 83 LINE",
"449 110 OFFCURVE",
"451 137 OFFCURVE",
"454 164 CURVE SMOOTH",
"457 191 OFFCURVE",
"459 218 OFFCURVE",
"461 245 CURVE",
"511 657 LINE",
"590 657 LINE",
"493 0 LINE",
"401 0 LINE",
"326 275 LINE",
"317 314 OFFCURVE",
"309 354 OFFCURVE",
"302 393 CURVE",
"299 393 LINE",
"295 374 OFFCURVE",
"291 354 OFFCURVE",
"287 334 CURVE SMOOTH",
"283 314 OFFCURVE",
"278 294 OFFCURVE",
"273 275 CURVE SMOOTH",
"201 0 LINE",
"111 0 LINE"
);
},
{
closed = 1;
nodes = (
"318 706 LINE",
"249 706 LINE",
"337 818 LINE",
"431 818 LINE"
);
}
);
width = 600;
}
);
unicode = 1E82;
},
{
glyphname = Wcircumflex;
layers = (
{
layerId = "071E7A8C-CF57-4473-AB35-23A61C6027DA";
name = Regular;
paths = (
{
closed = 1;
nodes = (
"10 657 LINE",
"93 657 LINE",
"146 245 LINE",
"147 217 OFFCURVE",
"150 190 OFFCURVE",
"153 164 CURVE SMOOTH",
"156 137 OFFCURVE",
"158 110 OFFCURVE",
"160 83 CURVE",
"163 83 LINE",
"178 138 OFFCURVE",
"192 190 OFFCURVE",
"205 245 CURVE",
"274 487 LINE",
"333 487 LINE",
"402 245 LINE",
"414 192 OFFCURVE",
"428 138 OFFCURVE",
"443 83 CURVE",
"447 83 LINE",
"449 110 OFFCURVE",
"451 137 OFFCURVE",
"454 164 CURVE SMOOTH",
"457 191 OFFCURVE",
"459 218 OFFCURVE",
"461 245 CURVE",
"511 657 LINE",
"590 657 LINE",
"493 0 LINE",
"401 0 LINE",
"326 275 LINE",
"317 314 OFFCURVE",
"309 354 OFFCURVE",
"302 393 CURVE",
"299 393 LINE",
"295 374 OFFCURVE",
"291 354 OFFCURVE",
"287 334 CURVE SMOOTH",
"283 314 OFFCURVE",
"278 294 OFFCURVE",
"273 275 CURVE SMOOTH",
"201 0 LINE",
"111 0 LINE"
);
},
{
closed = 1;
nodes = (
"164 706 LINE",
"260 818 LINE",
"340 818 LINE",
"436 706 LINE",
"369 706 LINE",
"302 774 LINE",
"298 774 LINE",
"231 706 LINE"
);
}
);
width = 600;
}
);
unicode = 0174;
},
{
glyphname = Wdieresis;
layers = (
{
layerId = "071E7A8C-CF57-4473-AB35-23A61C6027DA";
name = Regular;
paths = (
{
closed = 1;
nodes = (
"10 657 LINE",
"93 657 LINE",
"146 245 LINE",
"147 217 OFFCURVE",
"150 190 OFFCURVE",
"153 164 CURVE SMOOTH",
"156 137 OFFCURVE",
"158 110 OFFCURVE",
"160 83 CURVE",
"163 83 LINE",
"178 138 OFFCURVE",
"192 190 OFFCURVE",
"205 245 CURVE",
"274 487 LINE",
"333 487 LINE",
"402 245 LINE",
"414 192 OFFCURVE",
"428 138 OFFCURVE",
"443 83 CURVE",
"447 83 LINE",
"449 110 OFFCURVE",
"451 137 OFFCURVE",
"454 164 CURVE SMOOTH",
"457 191 OFFCURVE",
"459 218 OFFCURVE",
"461 245 CURVE",
"511 657 LINE",
"590 657 LINE",
"493 0 LINE",
"401 0 LINE",
"326 275 LINE",
"317 314 OFFCURVE",
"309 354 OFFCURVE",
"302 393 CURVE",
"299 393 LINE",
"295 374 OFFCURVE",
"291 354 OFFCURVE",
"287 334 CURVE SMOOTH",
"283 314 OFFCURVE",
"278 294 OFFCURVE",
"273 275 CURVE SMOOTH",
"201 0 LINE",
"111 0 LINE"
);
},
{
closed = 1;
nodes = (
"185 715 OFFCURVE",
"165 736 OFFCURVE",
"165 764 CURVE SMOOTH",
"165 793 OFFCURVE",
"185 813 OFFCURVE",
"214 813 CURVE SMOOTH",
"242 813 OFFCURVE",
"263 793 OFFCURVE",
"263 764 CURVE SMOOTH",
"263 736 OFFCURVE",
"242 715 OFFCURVE",
"214 715 CURVE SMOOTH"
);
},
{
closed = 1;
nodes = (
"358 715 OFFCURVE",
"337 736 OFFCURVE",
"337 764 CURVE SMOOTH",
"337 793 OFFCURVE",
"358 813 OFFCURVE",
"386 813 CURVE SMOOTH",
"415 813 OFFCURVE",
"435 793 OFFCURVE",
"435 764 CURVE SMOOTH",
"435 736 OFFCURVE",
"415 715 OFFCURVE",
"386 715 CURVE SMOOTH"
);
}
);
width = 600;
}
);
unicode = 1E84;
},
{
glyphname = Wgrave;
layers = (
{
layerId = "071E7A8C-CF57-4473-AB35-23A61C6027DA";
name = Regular;
paths = (
{
closed = 1;
nodes = (
"10 657 LINE",
"93 657 LINE",
"146 245 LINE",
"147 217 OFFCURVE",
"150 190 OFFCURVE",
"153 164 CURVE SMOOTH",
"156 137 OFFCURVE",
"158 110 OFFCURVE",
"160 83 CURVE",
"163 83 LINE",
"178 138 OFFCURVE",
"192 190 OFFCURVE",
"205 245 CURVE",
"274 487 LINE",
"333 487 LINE",
"402 245 LINE",
"414 192 OFFCURVE",
"428 138 OFFCURVE",
"443 83 CURVE",
"447 83 LINE",
"449 110 OFFCURVE",
"451 137 OFFCURVE",
"454 164 CURVE SMOOTH",
"457 191 OFFCURVE",
"459 218 OFFCURVE",
"461 245 CURVE",
"511 657 LINE",
"590 657 LINE",
"493 0 LINE",
"401 0 LINE",
"326 275 LINE",
"317 314 OFFCURVE",
"309 354 OFFCURVE",
"302 393 CURVE",
"299 393 LINE",
"295 374 OFFCURVE",
"291 354 OFFCURVE",
"287 334 CURVE SMOOTH",
"283 314 OFFCURVE",
"278 294 OFFCURVE",
"273 275 CURVE SMOOTH",
"201 0 LINE",
"111 0 LINE"
);
},
{
closed = 1;
nodes = (
"169 818 LINE",
"263 818 LINE",
"351 706 LINE",
"282 706 LINE"
);
}
);
width = 600;
}
);
unicode = 1E80;
},
{
glyphname = X;
layers = (
{
layerId = "071E7A8C-CF57-4473-AB35-23A61C6027DA";
name = Regular;
paths = (
{
closed = 1;
nodes = (
"250 339 LINE",
"67 656 LINE",
"159 656 LINE",
"251 488 LINE SMOOTH",
"268 457 OFFCURVE",
"283 432 OFFCURVE",
"304 393 CURVE",
"308 393 LINE",
"327 432 OFFCURVE",
"339 457 OFFCURVE",
"355 488 CURVE SMOOTH",
"445 656 LINE",
"533 656 LINE",
"350 335 LINE",
"546 0 LINE",
"454 0 LINE",
"355 177 LINE SMOOTH",
"346 193 OFFCURVE",
"337 210 OFFCURVE",
"328 227 CURVE SMOOTH",
"319 244 OFFCURVE",
"308 262 OFFCURVE",
"297 282 CURVE",
"293 282 LINE",
"274 242 OFFCURVE",
"257 209 OFFCURVE",
"240 177 CURVE SMOOTH",
"142 0 LINE",
"54 0 LINE"
);
}
);
width = 600;
}
);
unicode = 0058;
},
{
glyphname = Y;
layers = (
{
layerId = "071E7A8C-CF57-4473-AB35-23A61C6027DA";
name = Regular;
paths = (
{
closed = 1;
nodes = (
"258 234 LINE",
"38 656 LINE",
"126 656 LINE",
"225 461 LINE SMOOTH",
"238 436 OFFCURVE",
"250 411 OFFCURVE",
"262 386 CURVE SMOOTH",
"274 361 OFFCURVE",
"287 335 OFFCURVE",
"300 308 CURVE",
"304 308 LINE",
"331 361 OFFCURVE",
"356 411 OFFCURVE",
"381 462 CURVE SMOOTH",
"476 656 LINE",
"562 656 LINE",
"342 234 LINE",
"342 0 LINE",
"258 0 LINE"
);
}
);
width = 600;
}
);
unicode = 0059;
},
{
glyphname = Yacute;
layers = (
{
layerId = "071E7A8C-CF57-4473-AB35-23A61C6027DA";
name = Regular;
paths = (
{
closed = 1;
nodes = (
"258 234 LINE",
"38 656 LINE",
"126 656 LINE",
"225 461 LINE SMOOTH",
"238 436 OFFCURVE",
"250 411 OFFCURVE",
"262 386 CURVE SMOOTH",
"274 361 OFFCURVE",
"287 335 OFFCURVE",
"300 308 CURVE",
"304 308 LINE",
"331 361 OFFCURVE",
"356 411 OFFCURVE",
"381 462 CURVE SMOOTH",
"476 656 LINE",
"562 656 LINE",
"342 234 LINE",
"342 0 LINE",
"258 0 LINE"
);
},
{
closed = 1;
nodes = (
"318 706 LINE",
"249 706 LINE",
"337 818 LINE",
"431 818 LINE"
);
}
);
width = 600;
}
);
unicode = 00DD;
},
{
glyphname = Ycircumflex;
layers = (
{
layerId = "071E7A8C-CF57-4473-AB35-23A61C6027DA";
name = Regular;
paths = (
{
closed = 1;
nodes = (
"258 234 LINE",
"38 656 LINE",
"126 656 LINE",
"225 461 LINE SMOOTH",
"238 436 OFFCURVE",
"250 411 OFFCURVE",
"262 386 CURVE SMOOTH",
"274 361 OFFCURVE",
"287 335 OFFCURVE",
"300 308 CURVE",
"304 308 LINE",
"331 361 OFFCURVE",
"356 411 OFFCURVE",
"381 462 CURVE SMOOTH",
"476 656 LINE",
"562 656 LINE",
"342 234 LINE",
"342 0 LINE",
"258 0 LINE"
);
},
{
closed = 1;
nodes = (
"164 706 LINE",
"260 818 LINE",
"340 818 LINE",
"436 706 LINE",
"369 706 LINE",
"302 774 LINE",
"298 774 LINE",
"231 706 LINE"
);
}
);
width = 600;
}
);
unicode = 0176;
},
{
glyphname = Ydieresis;
layers = (
{
layerId = "071E7A8C-CF57-4473-AB35-23A61C6027DA";
name = Regular;
paths = (
{
closed = 1;
nodes = (
"258 234 LINE",
"38 656 LINE",
"126 656 LINE",
"225 461 LINE SMOOTH",
"238 436 OFFCURVE",
"250 411 OFFCURVE",
"262 386 CURVE SMOOTH",
"274 361 OFFCURVE",
"287 335 OFFCURVE",
"300 308 CURVE",
"304 308 LINE",
"331 361 OFFCURVE",
"356 411 OFFCURVE",
"381 462 CURVE SMOOTH",
"476 656 LINE",
"562 656 LINE",
"342 234 LINE",
"342 0 LINE",
"258 0 LINE"
);
},
{
closed = 1;
nodes = (
"185 715 OFFCURVE",
"165 736 OFFCURVE",
"165 764 CURVE SMOOTH",
"165 793 OFFCURVE",
"185 813 OFFCURVE",
"214 813 CURVE SMOOTH",
"242 813 OFFCURVE",
"263 793 OFFCURVE",
"263 764 CURVE SMOOTH",
"263 736 OFFCURVE",
"242 715 OFFCURVE",
"214 715 CURVE SMOOTH"
);
},
{
closed = 1;
nodes = (
"358 715 OFFCURVE",
"337 736 OFFCURVE",
"337 764 CURVE SMOOTH",
"337 793 OFFCURVE",
"358 813 OFFCURVE",
"386 813 CURVE SMOOTH",
"415 813 OFFCURVE",
"435 793 OFFCURVE",
"435 764 CURVE SMOOTH",
"435 736 OFFCURVE",
"415 715 OFFCURVE",
"386 715 CURVE SMOOTH"
);
}
);
width = 600;
}
);
unicode = 0178;
},
{
glyphname = Ydotaccent;
layers = (
{
layerId = "071E7A8C-CF57-4473-AB35-23A61C6027DA";
name = Regular;
paths = (
{
closed = 1;
nodes = (
"258 234 LINE",
"38 656 LINE",
"126 656 LINE",
"225 461 LINE SMOOTH",
"238 436 OFFCURVE",
"250 411 OFFCURVE",
"262 386 CURVE SMOOTH",
"274 361 OFFCURVE",
"287 335 OFFCURVE",
"300 308 CURVE",
"304 308 LINE",
"331 361 OFFCURVE",
"356 411 OFFCURVE",
"381 462 CURVE SMOOTH",
"476 656 LINE",
"562 656 LINE",
"342 234 LINE",
"342 0 LINE",
"258 0 LINE"
);
},
{
closed = 1;
nodes = (
"268 714 OFFCURVE",
"243 736 OFFCURVE",
"243 768 CURVE SMOOTH",
"243 799 OFFCURVE",
"268 821 OFFCURVE",
"300 821 CURVE SMOOTH",
"332 821 OFFCURVE",
"357 799 OFFCURVE",
"357 768 CURVE SMOOTH",
"357 736 OFFCURVE",
"332 714 OFFCURVE",
"300 714 CURVE SMOOTH"
);
}
);
width = 600;
}
);
unicode = 1E8E;
},
{
glyphname = Ydotbelow;
layers = (
{
layerId = "071E7A8C-CF57-4473-AB35-23A61C6027DA";
name = Regular;
paths = (
{
closed = 1;
nodes = (
"258 234 LINE",
"38 656 LINE",
"126 656 LINE",
"225 461 LINE SMOOTH",
"238 436 OFFCURVE",
"250 411 OFFCURVE",
"262 386 CURVE SMOOTH",
"274 361 OFFCURVE",
"287 335 OFFCURVE",
"300 308 CURVE",
"304 308 LINE",
"331 361 OFFCURVE",
"356 411 OFFCURVE",
"381 462 CURVE SMOOTH",
"476 656 LINE",
"562 656 LINE",
"342 234 LINE",
"342 0 LINE",
"258 0 LINE"
);
},
{
closed = 1;
nodes = (
"263 -226 OFFCURVE",
"234 -202 OFFCURVE",
"234 -163 CURVE SMOOTH",
"234 -124 OFFCURVE",
"263 -99 OFFCURVE",
"300 -99 CURVE SMOOTH",
"337 -99 OFFCURVE",
"366 -124 OFFCURVE",
"366 -163 CURVE SMOOTH",
"366 -202 OFFCURVE",
"337 -226 OFFCURVE",
"300 -226 CURVE SMOOTH"
);
}
);
width = 600;
}
);
unicode = 1EF4;
},
{
glyphname = Ygrave;
layers = (
{
layerId = "071E7A8C-CF57-4473-AB35-23A61C6027DA";
name = Regular;
paths = (
{
closed = 1;
nodes = (
"258 234 LINE",
"38 656 LINE",
"126 656 LINE",
"225 461 LINE SMOOTH",
"238 436 OFFCURVE",
"250 411 OFFCURVE",
"262 386 CURVE SMOOTH",
"274 361 OFFCURVE",
"287 335 OFFCURVE",
"300 308 CURVE",
"304 308 LINE",
"331 361 OFFCURVE",
"356 411 OFFCURVE",
"381 462 CURVE SMOOTH",
"476 656 LINE",
"562 656 LINE",
"342 234 LINE",
"342 0 LINE",
"258 0 LINE"
);
},
{
closed = 1;
nodes = (
"169 818 LINE",
"263 818 LINE",
"351 706 LINE",
"282 706 LINE"
);
}
);
width = 600;
}
);
unicode = 1EF2;
},
{
glyphname = Yhookabove;
layers = (
{
layerId = "071E7A8C-CF57-4473-AB35-23A61C6027DA";
name = Regular;
paths = (
{
closed = 1;
nodes = (
"258 234 LINE",
"38 656 LINE",
"126 656 LINE",
"225 461 LINE SMOOTH",
"238 436 OFFCURVE",
"250 411 OFFCURVE",
"262 386 CURVE SMOOTH",
"274 361 OFFCURVE",
"287 335 OFFCURVE",
"300 308 CURVE",
"304 308 LINE",
"331 361 OFFCURVE",
"356 411 OFFCURVE",
"381 462 CURVE SMOOTH",
"476 656 LINE",
"562 656 LINE",
"342 234 LINE",
"342 0 LINE",
"258 0 LINE"
);
},
{
closed = 1;
nodes = (
"263 736 LINE",
"295 745 OFFCURVE",
"319 757 OFFCURVE",
"319 782 CURVE SMOOTH",
"319 808 OFFCURVE",
"291 822 OFFCURVE",
"236 824 CURVE",
"245 872 LINE",
"333 869 OFFCURVE",
"383 842 OFFCURVE",
"383 791 CURVE SMOOTH",
"383 762 OFFCURVE",
"370 742 OFFCURVE",
"350 727 CURVE SMOOTH",
"329 711 OFFCURVE",
"301 703 OFFCURVE",
"272 698 CURVE"
);
}
);
width = 600;
}
);
unicode = 1EF6;
},
{
glyphname = Ytilde;
layers = (
{
layerId = "071E7A8C-CF57-4473-AB35-23A61C6027DA";
name = Regular;
paths = (
{
closed = 1;
nodes = (
"258 234 LINE",
"38 656 LINE",
"126 656 LINE",
"225 461 LINE SMOOTH",
"238 436 OFFCURVE",
"250 411 OFFCURVE",
"262 386 CURVE SMOOTH",
"274 361 OFFCURVE",
"287 335 OFFCURVE",
"300 308 CURVE",
"304 308 LINE",
"331 361 OFFCURVE",
"356 411 OFFCURVE",
"381 462 CURVE SMOOTH",
"476 656 LINE",
"562 656 LINE",
"342 234 LINE",
"342 0 LINE",
"258 0 LINE"
);
},
{
closed = 1;
nodes = (
"333 711 OFFCURVE",
"313 724 OFFCURVE",
"295 737 CURVE SMOOTH",
"277 750 OFFCURVE",
"260 763 OFFCURVE",
"241 763 CURVE SMOOTH",
"222 763 OFFCURVE",
"206 746 OFFCURVE",
"201 711 CURVE",
"155 711 LINE",
"162 774 OFFCURVE",
"192 819 OFFCURVE",
"240 819 CURVE SMOOTH",
"267 819 OFFCURVE",
"288 806 OFFCURVE",
"306 793 CURVE SMOOTH",
"324 780 OFFCURVE",
"340 767 OFFCURVE",
"359 767 CURVE SMOOTH",
"378 767 OFFCURVE",
"394 786 OFFCURVE",
"399 819 CURVE",
"445 819 LINE",
"438 758 OFFCURVE",
"408 711 OFFCURVE",
"360 711 CURVE SMOOTH"
);
}
);
width = 600;
}
);
unicode = 1EF8;
},
{
glyphname = Z;
layers = (
{
layerId = "071E7A8C-CF57-4473-AB35-23A61C6027DA";
name = Regular;
paths = (
{
closed = 1;
nodes = (
"65 50 LINE",
"432 587 LINE",
"97 587 LINE",
"97 657 LINE",
"534 657 LINE",
"534 607 LINE",
"166 71 LINE",
"539 71 LINE",
"539 0 LINE",
"65 0 LINE"
);
}
);
width = 600;
}
);
unicode = 005A;
},
{
glyphname = Zacute;
layers = (
{
layerId = "071E7A8C-CF57-4473-AB35-23A61C6027DA";
name = Regular;
paths = (
{
closed = 1;
nodes = (
"65 50 LINE",
"432 587 LINE",
"97 587 LINE",
"97 657 LINE",
"534 657 LINE",
"534 607 LINE",
"166 71 LINE",
"539 71 LINE",
"539 0 LINE",
"65 0 LINE"
);
},
{
closed = 1;
nodes = (
"333 706 LINE",
"264 706 LINE",
"352 818 LINE",
"446 818 LINE"
);
}
);
width = 600;
}
);
unicode = 0179;
},
{
glyphname = Zcaron;
layers = (
{
layerId = "071E7A8C-CF57-4473-AB35-23A61C6027DA";
name = Regular;
paths = (
{
closed = 1;
nodes = (
"65 50 LINE",
"432 587 LINE",
"97 587 LINE",
"97 657 LINE",
"534 657 LINE",
"534 607 LINE",
"166 71 LINE",
"539 71 LINE",
"539 0 LINE",
"65 0 LINE"
);
},
{
closed = 1;
nodes = (
"451 818 LINE",
"355 706 LINE",
"275 706 LINE",
"179 818 LINE",
"246 818 LINE",
"313 750 LINE",
"317 750 LINE",
"384 818 LINE"
);
}
);
width = 600;
}
);
unicode = 017D;
},
{
glyphname = Zdotaccent;
layers = (
{
layerId = "071E7A8C-CF57-4473-AB35-23A61C6027DA";
name = Regular;
paths = (
{
closed = 1;
nodes = (
"65 50 LINE",
"432 587 LINE",
"97 587 LINE",
"97 657 LINE",
"534 657 LINE",
"534 607 LINE",
"166 71 LINE",
"539 71 LINE",
"539 0 LINE",
"65 0 LINE"
);
},
{
closed = 1;
nodes = (
"283 714 OFFCURVE",
"258 736 OFFCURVE",
"258 768 CURVE SMOOTH",
"258 799 OFFCURVE",
"283 821 OFFCURVE",
"315 821 CURVE SMOOTH",
"347 821 OFFCURVE",
"372 799 OFFCURVE",
"372 768 CURVE SMOOTH",
"372 736 OFFCURVE",
"347 714 OFFCURVE",
"315 714 CURVE SMOOTH"
);
}
);
width = 600;
}
);
unicode = 017B;
},
{
glyphname = Zdotbelow;
layers = (
{
layerId = "071E7A8C-CF57-4473-AB35-23A61C6027DA";
name = Regular;
paths = (
{
closed = 1;
nodes = (
"65 50 LINE",
"432 587 LINE",
"97 587 LINE",
"97 657 LINE",
"534 657 LINE",
"534 607 LINE",
"166 71 LINE",
"539 71 LINE",
"539 0 LINE",
"65 0 LINE"
);
},
{
closed = 1;
nodes = (
"274 -226 OFFCURVE",
"245 -202 OFFCURVE",
"245 -163 CURVE SMOOTH",
"245 -124 OFFCURVE",
"274 -99 OFFCURVE",
"311 -99 CURVE SMOOTH",
"348 -99 OFFCURVE",
"377 -124 OFFCURVE",
"377 -163 CURVE SMOOTH",
"377 -202 OFFCURVE",
"348 -226 OFFCURVE",
"311 -226 CURVE SMOOTH"
);
}
);
width = 600;
}
);
unicode = 1E92;
},
